<svg xmlns="http://www.w3.org/2000/svg" xmlns:xlink="http://www.w3.org/1999/xlink" id="Raggruppa_26" data-name="Raggruppa 26" width="141.087" height="58.693" viewBox="0 0 141.087 58.693"><defs><clipPath id="clip-path"><rect id="Rettangolo_11" data-name="Rettangolo 11" width="141.087" height="58.693" fill="none"></rect></clipPath></defs><g id="Raggruppa_9" data-name="Raggruppa 9" clip-path="url(#clip-path)"><path id="Tracciato_155" data-name="Tracciato 155" d="M1547.752,433.17c3.233,7.176,12.375,8.377,12.375,8.377l6.33,10.633-.717.4a1.1,1.1,0,0,0,.139,1.985,4.57,4.57,0,0,0,2.435.21,2.1,2.1,0,0,0,1.724-1.909,79.734,79.734,0,0,0-.052-11.288l-7-13.748Z" transform="translate(-1449 -400.527)" fill="#a35900"></path><path id="Tracciato_156" data-name="Tracciato 156" d="M1556.39,445.355a5.067,5.067,0,0,1-1.778-.322,1.651,1.651,0,0,1-.213-2.992l.214-.118-5.9-9.915a21.151,21.151,0,0,1-4.858-1.5,17.366,17.366,0,0,1-4.238-2.628,12.946,12.946,0,0,1-3.443-4.53l-.248-.552,16.268-5.707,7.262,14.271.011.1a80.453,80.453,0,0,1,.053,11.393,2.659,2.659,0,0,1-2.179,2.412,5.355,5.355,0,0,1-.949.086m-18.941-21.914a11.971,11.971,0,0,0,2.888,3.6,16.264,16.264,0,0,0,3.968,2.458,19.6,19.6,0,0,0,4.822,1.454l.267.035,6.761,11.357-1.219.672a.537.537,0,0,0-.28.518.526.526,0,0,0,.344.461,4.021,4.021,0,0,0,2.143.184,1.549,1.549,0,0,0,1.269-1.405,79.813,79.813,0,0,0-.039-11.084l-6.729-13.225Z" transform="translate(-1437.926 -390.48)"></path><path id="Tracciato_157" data-name="Tracciato 157" d="M2042.163,634.43a3.139,3.139,0,1,1-3.139-3.139,3.139,3.139,0,0,1,3.139,3.139" transform="translate(-1905.988 -591.012)" fill="#a35900"></path><path id="Tracciato_158" data-name="Tracciato 158" d="M2030.876,629.976a3.694,3.694,0,1,1,3.694-3.694,3.7,3.7,0,0,1-3.694,3.694m0-6.278a2.584,2.584,0,1,0,2.584,2.584,2.587,2.587,0,0,0-2.584-2.584" transform="translate(-1897.84 -582.865)"></path><path id="Tracciato_159" data-name="Tracciato 159" d="M2032.743,104.813l0-.005c-.392-.608-.935-.748-1.328-.18a6.739,6.739,0,0,0-.694,2.453,12.611,12.611,0,0,1-1.023,3.547,10.375,10.375,0,0,1-1.345,2.107,13.29,13.29,0,0,1-5.379,3.793,6.421,6.421,0,0,0-.836.388.763.763,0,0,0-.445.638,4.382,4.382,0,0,0,1.239,2.129,1.846,1.846,0,0,0,.872.56,1.385,1.385,0,0,0,.891-.137,5.267,5.267,0,0,0,.609-.339c2.953-1.9,5.712-4.2,7.149-7.411a10.89,10.89,0,0,0,.984-4.3,6.214,6.214,0,0,0-.691-3.243" transform="translate(-1892.698 -97.616)" fill="#a35900"></path><path id="Tracciato_160" data-name="Tracciato 160" d="M2018.874,115.459a1.407,1.407,0,0,1-.312-.035,2.19,2.19,0,0,1-1.047-.658l-.006-.007a4.639,4.639,0,0,1-1.332-2.364v-.011a1.1,1.1,0,0,1,.615-.931,6.315,6.315,0,0,1,.843-.395l.044-.018a12.954,12.954,0,0,0,5.238-3.689,10.009,10.009,0,0,0,1.3-2.036,12.437,12.437,0,0,0,.994-3.451v-.008c.024-.127.046-.259.069-.4a5.56,5.56,0,0,1,.682-2.19,1.053,1.053,0,0,1,.874-.509,1.32,1.32,0,0,1,1.038.7l.006.009a6.6,6.6,0,0,1,.745,3.43v0a11.3,11.3,0,0,1-1.015,4.437,13.981,13.981,0,0,1-3.081,4.3,26.364,26.364,0,0,1-4.2,3.258l0,0a5.49,5.49,0,0,1-.651.362,1.938,1.938,0,0,1-.8.195m-.851-1.18a1.474,1.474,0,0,0,.694.459,1.045,1.045,0,0,0,.669-.114,4.823,4.823,0,0,0,.566-.316,25.658,25.658,0,0,0,4.086-3.168,13.3,13.3,0,0,0,2.932-4.09,10.6,10.6,0,0,0,.953-4.156,5.973,5.973,0,0,0-.635-3.051v0c-.179-.278-.355-.379-.461-.38h0c-.114,0-.216.112-.282.207a5.1,5.1,0,0,0-.566,1.906c-.024.142-.047.276-.071.407a13.082,13.082,0,0,1-1.053,3.64,10.713,10.713,0,0,1-1.389,2.177,13.658,13.658,0,0,1-5.518,3.9l-.039.016a5.884,5.884,0,0,0-.747.346c-.264.159-.275.278-.276.339a4.1,4.1,0,0,0,1.142,1.886" transform="translate(-1887.538 -92.457)"></path><path id="Tracciato_161" data-name="Tracciato 161" d="M739.316,108.284c-4.623-.4-9.5.014-13.849.019-8.829.011-22.706-.345-31.556-.06-8.876.286-19.083,3.092-21.3,11.674-1.43,5.526,1.733,12.615,7.275,15.619,5.778,3.131,13.007,2.084,19.419,2.1,8.009.015,21.046.191,29.1.25,11.751.086,27.494-1.717,27.494-14.865a14.279,14.279,0,0,0-6.817-11.872,21.936,21.936,0,0,0-9.762-2.86" transform="translate(-629.371 -101.212)" fill="#fcd575"></path><path id="Tracciato_162" data-name="Tracciato 162" d="M721.013,130.29l-.773,0c-3.011-.022-6.7-.06-10.6-.1-6.629-.069-13.484-.14-18.5-.149-1.275,0-2.556.037-3.912.078-5.417.165-11.017.335-15.771-2.241a15.863,15.863,0,0,1-7.808-11.69,12.212,12.212,0,0,1,.259-4.556,12.7,12.7,0,0,1,3.153-5.649,17.192,17.192,0,0,1,5.309-3.665,35.9,35.9,0,0,1,13.361-2.776c5.79-.186,13.862-.1,20.983-.019,3.872.043,7.529.083,10.59.079,1.417,0,2.865-.046,4.4-.094a81.7,81.7,0,0,1,9.5.077,22.387,22.387,0,0,1,10.006,2.941,15.139,15.139,0,0,1,5.2,5.41,14.133,14.133,0,0,1,1.883,6.935,12.424,12.424,0,0,1-3.623,9.169,16.56,16.56,0,0,1-4.979,3.291,29.909,29.909,0,0,1-6.17,1.9,63.215,63.215,0,0,1-12.509,1.065m-29.977-1.363h.11c5.018.009,11.875.08,18.506.149,3.9.04,7.586.078,10.6.1a63.729,63.729,0,0,0,13.053-1.04c4.723-.958,8.286-2.6,10.588-4.889a10.818,10.818,0,0,0,2.412-3.581,12.6,12.6,0,0,0,.882-4.8,13.023,13.023,0,0,0-1.739-6.387,14.028,14.028,0,0,0-4.815-5.012,21.321,21.321,0,0,0-9.518-2.779,80.875,80.875,0,0,0-9.369-.073c-1.542.047-3,.092-4.431.094-3.068,0-6.728-.037-10.6-.079-7.11-.078-15.169-.167-20.935.019a34.8,34.8,0,0,0-12.934,2.675c-4.24,1.948-6.881,4.836-7.85,8.583a11.11,11.11,0,0,0-.232,4.143A14.755,14.755,0,0,0,671.99,126.9c4.49,2.433,9.938,2.267,15.208,2.107,1.269-.039,2.579-.078,3.838-.078" transform="translate(-621.214 -93.063)"></path><path id="Tracciato_163" data-name="Tracciato 163" d="M145.849,79.628c-3.029-6.461-8.95-9.043-15.465-10.151-12.931-2.2-26.057-.518-39.061-.174-9.784.259-20.179-1.751-29.887-.549-3.4.421-4.518.867-7.61-.921-2.535-1.466-6.135-4.505-8.732-5.861a26.9,26.9,0,0,0-11.481-3.466,13.392,13.392,0,0,0-9.521,3.179h0a8.978,8.978,0,0,0-1.837,2.444l.5.14L17.7,74c-2.187.161-5.661.6-6.8,2.283-1.239,2.129,2.035,4.068,3.742,4.737a25.774,25.774,0,0,0,8.241,1.309l.63.6-1.673-.431a2.806,2.806,0,0,0-.042.815,2.084,2.084,0,0,0,1.057,1.534,21.3,21.3,0,0,0,3.058.356l9.543,1.4c1.978.313,3.863.6,5.413.8l7.191,3.831C51.3,98.4,60.442,99.6,60.442,99.6l6.33,10.633-.717.4a1.1,1.1,0,0,0,.139,1.985,4.57,4.57,0,0,0,2.435.21,2.1,2.1,0,0,0,1.724-1.909A79.714,79.714,0,0,0,70.3,99.63l-1.2-2.364,37.925-3.2,11.9-2.08c3.51,6.5,12,7.618,12,7.618l6.33,10.633-.717.4a1.1,1.1,0,0,0,.139,1.985,4.57,4.57,0,0,0,2.435.21,2.1,2.1,0,0,0,1.724-1.909c.149-1.929.148-7.6,2.127-10.462,3.988-5.766,6.158-13.849,2.885-20.829" transform="translate(-9.954 -54.767)" fill="#a35900"></path><path id="Tracciato_164" data-name="Tracciato 164" d="M545.723,571.457q-2,.4-3.992.81-3.031.625-6.056,1.282c1.677,1.4,3.092.171,5.832,1.353l7.15,12.345-.717.4a1.1,1.1,0,0,0,.139,1.985,4.569,4.569,0,0,0,2.435.21,2.1,2.1,0,0,0,1.724-1.909c.214-2.762.5-9.114-.918-13.257Z" transform="translate(-501.497 -534.996)" fill="#a35900"></path><path id="Tracciato_165" data-name="Tracciato 165" d="M531.627,581.881a5.067,5.067,0,0,1-1.778-.322,1.651,1.651,0,0,1-.213-2.992l.22-.121-6.772-11.692a7.084,7.084,0,0,0-2.81-.479,4.194,4.194,0,0,1-2.991-.888l-.874-.728,1.111-.242c1.97-.429,4.01-.861,6.062-1.284,1.271-.262,2.615-.535,4-.811l.2-.041,5.959,3.422.068.2a25.777,25.777,0,0,1,1.1,7.309,57.948,57.948,0,0,1-.154,6.171,2.66,2.66,0,0,1-2.179,2.413,5.357,5.357,0,0,1-.949.086m-12.149-16.749c.252.024.52.028.814.033a8.149,8.149,0,0,1,3.4.639l.169.073,7.526,12.995-1.213.669a.537.537,0,0,0-.279.518.526.526,0,0,0,.344.461,4.02,4.02,0,0,0,2.143.184,1.549,1.549,0,0,0,1.269-1.405c.195-2.518.5-8.75-.825-12.838l-5.233-3.005c-1.306.262-2.578.52-3.784.769-1.456.3-2.906.6-4.328.91" transform="translate(-483.46 -526.407)"></path><path id="Tracciato_166" data-name="Tracciato 166" d="M90.719,143.624a4.837,4.837,0,1,1-5.194-4.451,4.837,4.837,0,0,1,5.194,4.451" transform="translate(-75.888 -130.28)" fill="#fff"></path><path id="Tracciato_167" data-name="Tracciato 167" d="M79.644,143.01a5.267,5.267,0,1,1,.412-.016q-.207.016-.412.016m.015-9.674q-.172,0-.346.013a4.4,4.4,0,1,0,.346-.013" transform="translate(-69.643 -124.032)"></path><path id="Tracciato_168" data-name="Tracciato 168" d="M273.087,103.519a.48.48,0,0,1-.343-.144,4.389,4.389,0,0,0-5.062-.783.481.481,0,1,1-.452-.85,5.344,5.344,0,0,1,6.2.957.481.481,0,0,1-.343.819" transform="translate(-249.941 -94.698)"></path><path id="Tracciato_169" data-name="Tracciato 169" d="M127.071,92.462a.554.554,0,0,1-.4-.166,4.609,4.609,0,0,0-5.314-.822.555.555,0,0,1-.521-.98,5.712,5.712,0,0,1,6.627,1.023.555.555,0,0,1-.4.945" transform="translate(-112.854 -84.129)"></path><path id="Tracciato_170" data-name="Tracciato 170" d="M310.021,409.754a.37.37,0,0,1-.337-.524,2.124,2.124,0,0,0-.068-1.913.37.37,0,1,1,.641-.37,2.875,2.875,0,0,1,.1,2.59.37.37,0,0,1-.337.217" transform="translate(-289.816 -380.809)"></path><path id="Tracciato_171" data-name="Tracciato 171" d="M130.09,196.272a1.894,1.894,0,1,1-2.034-1.743,1.894,1.894,0,0,1,2.034,1.743" transform="translate(-118.248 -182.112)"></path><path id="Tracciato_172" data-name="Tracciato 172" d="M19.789,302.1H19.77c-1.358-.052-2.17-.06-2.956-.067-.887-.008-1.726-.017-3.258-.084h-.005l-.842-.044a26.107,26.107,0,0,1-8.38-1.343c-.352-.138-3.484-1.417-4.192-3.448a2.346,2.346,0,0,1,.2-2l.017-.028c1.3-1.923,5-2.368,7.675-2.536h.012A57.092,57.092,0,0,1,21.786,293.9a.5.5,0,1,1-.193.981,56.209,56.209,0,0,0-13.5-1.337,23.866,23.866,0,0,0-3.889.513,4.973,4.973,0,0,0-3,1.57,1.337,1.337,0,0,0-.115,1.159c.278.8,1.528,2.029,3.616,2.848a25.377,25.377,0,0,0,8.063,1.274l.843.044c1.513.067,2.342.075,3.221.083.793.008,1.613.015,2.985.068a.5.5,0,0,1-.019,1" transform="translate(0 -273.852)"></path><path id="Tracciato_173" data-name="Tracciato 173" d="M7.742,300.451l-.041-.159L7.02,299.7l-.244.04c-2.376.388-3.876,1.087-4.584,2.139l-.018.029a2.275,2.275,0,0,0-.2,1.944c.678,1.947,3.668,3.168,4,3.3.314.126.647.243.99.348l.474.146.174-.465a12.953,12.953,0,0,0,.125-6.731" transform="translate(-1.727 -280.578)"></path><path id="Tracciato_174" data-name="Tracciato 174" d="M299.438,106.071a5.012,5.012,0,0,1-1.759-.318,1.6,1.6,0,0,1-.206-2.891l.264-.146-5.945-9.986a21.051,21.051,0,0,1-4.87-1.5,17.3,17.3,0,0,1-4.224-2.62,12.892,12.892,0,0,1-3.428-4.511l.911-.41a11.9,11.9,0,0,0,3.154,4.151,16.284,16.284,0,0,0,3.968,2.465,19.763,19.763,0,0,0,4.864,1.47l.24.032.124.208,6.594,11.076-1.169.644a.587.587,0,0,0-.308.57.575.575,0,0,0,.38.509A4.076,4.076,0,0,0,300.2,105a1.6,1.6,0,0,0,1.314-1.456c.02-.264.038-.6.059-1,.13-2.492.373-7.132,2.155-9.709a24.878,24.878,0,0,0,4.084-9.761,19.238,19.238,0,0,0,.206-5.342,16.357,16.357,0,0,0-1.446-5.229,15.718,15.718,0,0,0-2.692-4.028,15.9,15.9,0,0,0-3.536-2.837,25.473,25.473,0,0,0-8.867-3c-9.568-1.627-19.421-1.108-28.95-.607-3.284.173-6.68.351-10.014.44-4.064.107-8.3-.179-12.39-.455-5.8-.392-11.8-.8-17.449-.1-.4.049-.759.1-1.109.145-2.621.355-3.937.533-6.813-1.129-1.179-.681-2.54-1.665-3.981-2.707a44,44,0,0,0-4.732-3.144,35.156,35.156,0,0,0-5.492-2.355,20.657,20.657,0,0,0-5.773-1.054,14.5,14.5,0,0,0-6.339,1.182,10.258,10.258,0,0,0-2.638,1.689,8.53,8.53,0,0,0-1.923,2.481l-.89-.455a10.244,10.244,0,0,1,5.04-4.626,15.5,15.5,0,0,1,6.778-1.27,21.638,21.638,0,0,1,6.05,1.1A36.147,36.147,0,0,1,206.5,54.2a44.588,44.588,0,0,1,4.855,3.22c1.42,1.026,2.761,2,3.9,2.652,2.58,1.492,3.634,1.349,6.179,1,.352-.048.716-.1,1.12-.147,5.746-.711,11.792-.3,17.639.092,4.07.275,8.28.559,12.3.453,3.321-.088,6.71-.266,9.988-.439,9.583-.5,19.493-1.026,29.17.62a26.439,26.439,0,0,1,9.211,3.131,16.9,16.9,0,0,1,3.758,3.016,16.718,16.718,0,0,1,2.864,4.284,17.353,17.353,0,0,1,1.535,5.547,20.234,20.234,0,0,1-.215,5.62,25.886,25.886,0,0,1-4.246,10.157c-1.621,2.344-1.854,6.8-1.979,9.193-.021.4-.039.747-.06,1.023a2.6,2.6,0,0,1-2.134,2.362,5.294,5.294,0,0,1-.939.085" transform="translate(-171.31 -47.433)"></path><path id="Tracciato_175" data-name="Tracciato 175" d="M194.09,438.742c-1.883-.234-4.213-.605-6.681-1-2.912-.464-5.923-.943-8.268-1.2l-.022,0c-.086-.013-.388-.035-.681-.056a8.531,8.531,0,0,1-2.549-.358,2.61,2.61,0,0,1-1.322-1.924,3.306,3.306,0,0,1,.045-.961l1.023.164a2.377,2.377,0,0,0-.04.665v.009a1.566,1.566,0,0,0,.785,1.135,16.083,16.083,0,0,0,2.13.236c.4.029.628.046.752.064,2.368.262,5.387.743,8.307,1.208,2.458.391,4.78.761,6.646.993Z" transform="translate(-163.412 -405.598)"></path><path id="Tracciato_176" data-name="Tracciato 176" d="M594.519,493.01c3.233,7.176,12.376,8.377,12.376,8.377l6.33,10.633-.717.4a1.1,1.1,0,0,0,.139,1.985,4.571,4.571,0,0,0,2.435.21,2.1,2.1,0,0,0,1.724-1.909,79.736,79.736,0,0,0-.052-11.288l-7-13.748Z" transform="translate(-556.587 -456.549)" fill="#a35900"></path><path id="Tracciato_177" data-name="Tracciato 177" d="M603.156,505.195a5.067,5.067,0,0,1-1.778-.322,1.651,1.651,0,0,1-.213-2.992l.214-.118-5.9-9.915a21.152,21.152,0,0,1-4.858-1.5,17.364,17.364,0,0,1-4.238-2.628,12.947,12.947,0,0,1-3.443-4.53l-.249-.552,16.268-5.707,7.262,14.271.011.1a80.445,80.445,0,0,1,.054,11.393,2.66,2.66,0,0,1-2.179,2.413,5.358,5.358,0,0,1-.949.086m-18.941-21.914a11.965,11.965,0,0,0,2.874,3.584,16.226,16.226,0,0,0,3.953,2.457,19.7,19.7,0,0,0,4.851,1.467l.266.035.138.231,6.623,11.126-1.219.672a.537.537,0,0,0-.279.518.526.526,0,0,0,.344.461,4.02,4.02,0,0,0,2.143.184,1.549,1.549,0,0,0,1.269-1.405,79.814,79.814,0,0,0-.039-11.084L598.408,478.3Z" transform="translate(-545.511 -446.502)"></path><path id="Tracciato_178" data-name="Tracciato 178" d="M325.047,496.573a42.58,42.58,0,0,1-.933-8.166l-.357-.1c-1.869-.528-4.52.016-6.346-.645.156,1.432.365,2.852.648,4.255,1.492,7.1,4.786,9.028,7.638,6.869a20.538,20.538,0,0,1-.65-2.214" transform="translate(-297.159 -456.548)"></path><path id="Tracciato_179" data-name="Tracciato 179" d="M404.248.16c-3.592-1.326-1.467,5.983-1.283,7.39.389,1.893.757,3.857.991,5.76,1.257,8.907-.713,17.754,1.3,26.715,2.795,11.871,12.826,12.19,17.221,2.764,3.079-6.661,1.107-14.8-2.171-22.376A57.677,57.677,0,0,0,411,6.085a45.306,45.306,0,0,0-3.148-3.318,13.268,13.268,0,0,0-3.6-2.606Z" transform="translate(-376.514 0)"></path><path id="Tracciato_180" data-name="Tracciato 180" d="M312.219,3.975c.72-.092,1.444-.152,2.17-.185s1.471-.038,2.207-.016q.418.013.835.037-.517-.528-1.063-1.044a13.266,13.266,0,0,0-3.6-2.606h0c-2.228-.822-2.256,1.677-1.913,4.03q.681-.129,1.369-.216" transform="translate(-290.866 -0.001)"></path><path id="Tracciato_181" data-name="Tracciato 181" d="M230.984,156.846a4.837,4.837,0,1,1-5.194-4.451,4.837,4.837,0,0,1,5.194,4.451" transform="translate(-207.203 -142.658)" fill="#fff"></path><path id="Tracciato_182" data-name="Tracciato 182" d="M220.727,156.993a5.21,5.21,0,1,1,.4-.016c-.135.01-.27.016-.4.016m.007-9.674q-.172,0-.346.013a4.464,4.464,0,1,0,.346-.013" transform="translate(-201.772 -137.227)"></path><path id="Tracciato_183" data-name="Tracciato 183" d="M270.768,187.73a2.32,2.32,0,1,1-2.491-2.135,2.32,2.32,0,0,1,2.491,2.135" transform="translate(-249.155 -173.747)"></path><path id="Tracciato_184" data-name="Tracciato 184" d="M874.995,139.742a6.218,6.218,0,0,1-3.235-.951c-.53-.322-1.005-.669-1.466-1.006-.136-.1-.272-.2-.408-.3-.5-.356-1.011-.73-1.571-1.145a4.139,4.139,0,0,0-2.032-1.011h-.015a3.921,3.921,0,0,0-1.949.919c-.308.221-.613.448-.935.687-.79.587-1.607,1.195-2.5,1.736a6.3,6.3,0,0,1-3.266.954,5.576,5.576,0,0,1-2.5-.589,9.164,9.164,0,0,1-2.022-1.456l-.789-.706q-.418-.375-.837-.749c-.44-.391-1.021-.905-1.62-1.412a2.848,2.848,0,0,0-.932-.559,1.915,1.915,0,0,0-1.738.377c-.766.54-1.5,1.124-2.285,1.742-.315.249-.64.507-.965.759a8.1,8.1,0,0,1-2.318,1.306,5.593,5.593,0,0,1-3.079.2,9.062,9.062,0,0,1-3.707-2.085c-.193-.156-.375-.3-.551-.44s-.369-.287-.553-.431c-.383-.3-.744-.583-1.112-.854a3.863,3.863,0,0,0-1.066-.607,2.047,2.047,0,0,0-1.82.549c-.768.631-1.5,1.3-2.282,2.007-.269.245-.548.5-.825.747l-.048.044a9.659,9.659,0,0,1-1.949,1.458,5.975,5.975,0,0,1-2.6.693l-.164,0a7.71,7.71,0,0,1-4.562-1.861c-.539-.394-1.1-.792-1.638-1.176l-.112-.079-.178-.127a7.9,7.9,0,0,0-1.182-.753,1.793,1.793,0,0,0-1.766.163,9.926,9.926,0,0,0-1,.787l-.3.253a2.036,2.036,0,1,1-2.618-3.118l.274-.232a13.3,13.3,0,0,1,1.442-1.114,5.891,5.891,0,0,1,5.671-.436,11.209,11.209,0,0,1,1.85,1.141l.169.121.111.079c.551.392,1.12.8,1.68,1.207a4.037,4.037,0,0,0,2.2,1.075,1.882,1.882,0,0,0,.817-.222,6.452,6.452,0,0,0,1.13-.887l.049-.044c.268-.241.542-.49.807-.73.781-.711,1.59-1.446,2.438-2.142a6.787,6.787,0,0,1,2.485-1.325,5.474,5.474,0,0,1,3.095.025,7.645,7.645,0,0,1,2.3,1.226c.417.307.82.623,1.209.928q.266.208.532.415c.215.166.425.336.628.5a5.826,5.826,0,0,0,2.019,1.271c.387.085.966.078,2.02-.741.31-.241.628-.493.936-.736.791-.626,1.609-1.274,2.468-1.879a5.927,5.927,0,0,1,5.353-.916,6.813,6.813,0,0,1,2.29,1.318c.634.536,1.24,1.072,1.7,1.48q.425.378.848.758l.78.7a5.72,5.72,0,0,0,1.127.851,1.893,1.893,0,0,0,1.838-.2c.727-.441,1.433-.966,2.181-1.522.321-.239.653-.486.989-.727a7.439,7.439,0,0,1,4.323-1.684h.068a7.693,7.693,0,0,1,4.4,1.808c.545.4,1.043.766,1.523,1.11.146.1.292.211.438.318.41.3.8.582,1.179.814a1.849,1.849,0,0,0,1.683.249,8.145,8.145,0,0,0,1.892-1.272c.141-.113.286-.23.432-.345a2.036,2.036,0,1,1,2.519,3.2c-.13.1-.261.208-.4.319a11.419,11.419,0,0,1-2.949,1.886,5.584,5.584,0,0,1-2.057.394" transform="translate(-756.24 -121.693)" fill="red"></path><path id="Tracciato_185" data-name="Tracciato 185" d="M866.846,132.145a6.815,6.815,0,0,1-3.523-1.031c-.55-.334-1.035-.689-1.505-1.032l-.007,0c-.132-.1-.265-.193-.4-.289-.5-.358-1.015-.734-1.578-1.15a4.05,4.05,0,0,0-1.709-.9h-.008a3.911,3.911,0,0,0-1.625.815c-.3.218-.6.442-.923.678l0,0c-.8.6-1.628,1.211-2.542,1.765a6.882,6.882,0,0,1-3.554,1.034,6.106,6.106,0,0,1-2.745-.647,9.652,9.652,0,0,1-2.144-1.539l-.782-.7-.024-.021q-.41-.367-.82-.734c-.437-.389-1.015-.9-1.609-1.4a2.316,2.316,0,0,0-.747-.456,1.38,1.38,0,0,0-1.245.3c-.753.531-1.485,1.11-2.26,1.724-.316.25-.642.509-.969.763a8.642,8.642,0,0,1-2.477,1.392,6.14,6.14,0,0,1-3.38.213,9.516,9.516,0,0,1-3.937-2.2c-.189-.154-.368-.3-.541-.432s-.371-.289-.556-.434c-.38-.3-.738-.578-1.1-.844a3.476,3.476,0,0,0-.9-.523,1.54,1.54,0,0,0-1.307.446c-.758.622-1.488,1.286-2.26,1.989l-.017.015c-.265.241-.538.49-.811.735l-.049.044a10.112,10.112,0,0,1-2.06,1.536,6.533,6.533,0,0,1-2.841.757l-.18,0a8.19,8.19,0,0,1-4.889-1.967c-.538-.393-1.094-.789-1.633-1.173l-.112-.079-.179-.128a7.571,7.571,0,0,0-1.091-.7,1.239,1.239,0,0,0-1.234.125,9.54,9.54,0,0,0-.941.742l-.3.256A2.591,2.591,0,0,1,800,125.131l.265-.225.005,0a13.738,13.738,0,0,1,1.5-1.159,6.443,6.443,0,0,1,6.2-.474,11.657,11.657,0,0,1,1.941,1.194l.168.12.111.079c.551.392,1.121.8,1.686,1.211a3.977,3.977,0,0,0,1.831.968h.024a1.325,1.325,0,0,0,.574-.158,6.167,6.167,0,0,0,1.018-.809l.049-.044c.267-.239.54-.488.8-.728.787-.716,1.6-1.455,2.459-2.16a7.339,7.339,0,0,1,2.689-1.43,6.02,6.02,0,0,1,3.4.028,8.166,8.166,0,0,1,2.472,1.311c.423.312.829.629,1.221.936.178.139.354.277.531.414.221.171.433.343.638.509a5.7,5.7,0,0,0,1.789,1.16c.158.035.576.127,1.56-.637.311-.241.626-.491.932-.733.8-.632,1.622-1.284,2.493-1.9a6.469,6.469,0,0,1,5.846-.99,7.355,7.355,0,0,1,2.475,1.422c.639.54,1.249,1.08,1.709,1.489q.425.379.849.759l.043.038.736.659a5.337,5.337,0,0,0,1.006.769,1.32,1.32,0,0,0,1.3-.179c.705-.428,1.4-.945,2.138-1.493.322-.239.655-.487,1-.732a7.882,7.882,0,0,1,4.721-1.788,8.18,8.18,0,0,1,4.724,1.916c.542.4,1.038.762,1.516,1.105.146.1.293.212.439.319l0,0c.4.292.777.568,1.139.788a1.313,1.313,0,0,0,1.191.207,7.82,7.82,0,0,0,1.748-1.188c.141-.114.288-.231.437-.349a2.591,2.591,0,1,1,3.206,4.072c-.126.1-.254.2-.39.311l-.005,0a11.86,11.86,0,0,1-3.094,1.97,6.135,6.135,0,0,1-2.261.432m-8.727-5.519h.021a4.519,4.519,0,0,1,2.356,1.119c.558.413,1.07.786,1.565,1.14.135.1.27.2.406.294l.007,0c.451.329.917.67,1.427.98a5.629,5.629,0,0,0,2.946.87,5.03,5.03,0,0,0,1.853-.355,10.973,10.973,0,0,0,2.805-1.8l.005,0c.138-.111.268-.215.4-.319a1.481,1.481,0,1,0-1.832-2.327c-.145.114-.289.23-.428.342a8.5,8.5,0,0,1-2.036,1.355,2.373,2.373,0,0,1-2.175-.291c-.4-.244-.8-.534-1.218-.84-.146-.107-.29-.212-.434-.315-.483-.346-.983-.711-1.53-1.115a7.209,7.209,0,0,0-4.078-1.7h-.061a6.94,6.94,0,0,0-4,1.579c-.334.24-.663.485-.982.721-.758.564-1.474,1.1-2.224,1.551a2.413,2.413,0,0,1-2.373.224,6.132,6.132,0,0,1-1.249-.934l-.739-.661-.043-.038q-.423-.379-.846-.757c-.455-.405-1.058-.938-1.687-1.471a6.271,6.271,0,0,0-2.105-1.215,5.385,5.385,0,0,0-4.86.843c-.846.6-1.658,1.239-2.443,1.86-.308.244-.626.5-.941.74a2.966,2.966,0,0,1-2.481.844,6.133,6.133,0,0,1-2.249-1.382c-.2-.163-.407-.33-.617-.493q-.269-.207-.535-.417c-.387-.3-.786-.616-1.2-.917a7.126,7.126,0,0,0-2.135-1.142,4.926,4.926,0,0,0-2.786-.021,6.238,6.238,0,0,0-2.282,1.219c-.837.687-1.64,1.417-2.416,2.123-.266.242-.54.491-.809.733l-.049.044a6.786,6.786,0,0,1-1.242.964,2.441,2.441,0,0,1-1.06.286h-.06a4.525,4.525,0,0,1-2.484-1.182c-.56-.409-1.126-.813-1.675-1.2l-.111-.079-.17-.122a10.764,10.764,0,0,0-1.759-1.088,5.338,5.338,0,0,0-5.139.4,12.848,12.848,0,0,0-1.381,1.07l-.005,0-.272.231a1.481,1.481,0,0,0,1.9,2.268l.293-.249a10.3,10.3,0,0,1,1.063-.833,2.36,2.36,0,0,1,2.3-.2,8.269,8.269,0,0,1,1.273.806l.177.126.112.079c.541.385,1.1.783,1.644,1.181a7.15,7.15,0,0,0,4.234,1.753l.147,0a5.416,5.416,0,0,0,2.355-.628,9.215,9.215,0,0,0,1.837-1.38l.049-.044c.271-.243.543-.491.806-.73l.017-.015c.783-.712,1.523-1.385,2.3-2.025a2.511,2.511,0,0,1,2.333-.651,4.337,4.337,0,0,1,1.235.692c.375.276.739.561,1.125.863.184.144.367.288.551.43s.367.291.562.449a8.616,8.616,0,0,0,3.477,1.974,5.046,5.046,0,0,0,2.777-.178,7.56,7.56,0,0,0,2.159-1.22c.323-.251.647-.508.96-.756.788-.624,1.532-1.213,2.311-1.762a2.436,2.436,0,0,1,2.231-.45,3.381,3.381,0,0,1,1.117.663c.6.51,1.188,1.027,1.63,1.421q.412.367.823.736l.024.021.78.7a8.685,8.685,0,0,0,1.9,1.374,5.005,5.005,0,0,0,2.25.531,5.773,5.773,0,0,0,2.978-.873c.869-.527,1.675-1.126,2.455-1.706l0,0c.322-.24.627-.466.938-.689a4.33,4.33,0,0,1,2.273-1.024" transform="translate(-748.092 -113.541)"></path><path id="Tracciato_186" data-name="Tracciato 186" d="M876.938,214.3c-3.357.071-6.282-2.586-9.694-2.33-4.005.29-6.869,3.393-11.126,1.655-2.544-.99-4.791-3.167-7.651-3.113a9.253,9.253,0,0,0-3.165.734c-2.064.8-4.153,1.9-6.414,1.625a14.354,14.354,0,0,1-3.966-1.255c-2.755-1.2-4.721-1.656-7.509-.21-2.153,1.07-4.284,2.681-6.793,2.7-2.313.031-4.484-1.145-6.7-1.761-.974-.294-1.988-.548-2.948-.837a6.61,6.61,0,0,1-2.564-1.219c-1.255-1.243.332-2.983,1.645-3.547,3.414-1.471,6.666,1.443,10.069,1.5,2.833.092,5.081-1.974,7.561-3.043,4.092-1.811,6.537.618,10.209,1.69a7.491,7.491,0,0,0,5.147-.568c2.814-1.2,5.066-2.5,8.187-1.289,2.5.951,4.728,3.051,7.465,3.2,3.064.151,5.814-2.022,8.883-2.051,2.748-.062,5.183,1.565,7.8,2.193.648.171,1.307.308,1.955.438,1.2.274,3.227.526,3.853,1.517a1.629,1.629,0,0,1-.074,1.555,4.772,4.772,0,0,1-4.162,2.418Z" transform="translate(-756.402 -191.497)" fill="#0fd827"></path><path id="Tracciato_187" data-name="Tracciato 187" d="M868.651,206.661a12.968,12.968,0,0,1-4.736-1.21,10.913,10.913,0,0,0-4.785-1.123,14.345,14.345,0,0,0-4.021,1.082,12.82,12.82,0,0,1-4.554,1.1,7.309,7.309,0,0,1-2.8-.565,20.051,20.051,0,0,1-2.63-1.34c-1.585-.908-3.083-1.767-4.8-1.734a8.758,8.758,0,0,0-2.975.7c-.334.13-.678.272-1.012.409a11.261,11.261,0,0,1-5.664,1.249,13.931,13.931,0,0,1-3.9-1.2l-.225-.095c-2.746-1.2-4.5-1.54-7.031-.226l-.009,0c-.492.245-.978.515-1.491.8a11.65,11.65,0,0,1-5.543,1.952,13.784,13.784,0,0,1-4.81-1.1c-.672-.242-1.366-.491-2.043-.679l-.012,0c-.488-.147-1-.287-1.487-.423s-.98-.27-1.46-.415a7.044,7.044,0,0,1-2.788-1.349l-.007-.007a1.947,1.947,0,0,1-.585-1.81,4.149,4.149,0,0,1,2.4-2.642c2.263-.976,4.411-.212,6.488.527a12.328,12.328,0,0,0,3.811.931h.008c1.791.058,3.346-.832,4.99-1.774a23.463,23.463,0,0,1,2.331-1.222c3.184-1.408,5.442-.428,7.833.609a23.283,23.283,0,0,0,2.751,1.055,6.851,6.851,0,0,0,4.78-.545c.291-.124.58-.252.859-.375,2.436-1.072,4.737-2.085,7.745-.92a20.008,20.008,0,0,1,2.765,1.4,10.555,10.555,0,0,0,4.529,1.765,11.383,11.383,0,0,0,4.385-.985,13.518,13.518,0,0,1,4.46-1.066,13.329,13.329,0,0,1,5.148,1.257,21.474,21.474,0,0,0,2.786.951l.012,0c.652.172,1.334.313,1.923.431l.014,0c.181.041.385.083.6.127,1.311.267,2.943.6,3.6,1.635l.006.009a2.151,2.151,0,0,1-.052,2.091,4.719,4.719,0,0,1-1.937,1.984,5.724,5.724,0,0,1-2.709.741h-.007l-.144,0m-9.095-3.46a13.031,13.031,0,0,1,4.767,1.217,11.617,11.617,0,0,0,4.446,1.131h.014a4.207,4.207,0,0,0,3.67-2.109,1.172,1.172,0,0,0,.1-1.017c-.406-.633-1.893-.935-2.878-1.136-.22-.045-.427-.087-.619-.13-.6-.121-1.3-.264-1.975-.443a22.68,22.68,0,0,1-2.926-1,12.31,12.31,0,0,0-4.722-1.181h-.007a12.49,12.49,0,0,0-4.094,1,12.375,12.375,0,0,1-4.822,1.051,11.533,11.533,0,0,1-5.024-1.91,18.883,18.883,0,0,0-2.611-1.325c-2.583-1-4.488-.162-6.9.9-.282.124-.575.253-.872.38l0,0a8.1,8.1,0,0,1-5.51.591l-.007,0a24.133,24.133,0,0,1-2.886-1.1,14.184,14.184,0,0,0-3.323-1.136,6.19,6.19,0,0,0-3.62.525l-.005,0a22.263,22.263,0,0,0-2.221,1.167,10.9,10.9,0,0,1-5.376,1.924c-.066,0-.132,0-.2,0a13.342,13.342,0,0,1-4.158-1c-1.961-.7-3.814-1.356-5.677-.553a3.119,3.119,0,0,0-1.749,1.829.848.848,0,0,0,.271.811,6.222,6.222,0,0,0,2.339,1.086c.465.14.958.276,1.433.407.5.137,1.009.278,1.507.429.715.2,1.427.455,2.116.7a12.77,12.77,0,0,0,4.421,1.036h0a10.826,10.826,0,0,0,5.011-1.811c.5-.279,1.019-.568,1.534-.824a7.441,7.441,0,0,1,4.057-.947,12.116,12.116,0,0,1,3.922,1.142l.214.09a13.091,13.091,0,0,0,3.591,1.124h.01a10.43,10.43,0,0,0,5.111-1.173c.338-.139.688-.284,1.034-.418a9.919,9.919,0,0,1,3.358-.772c2.026-.039,3.728.937,5.375,1.88a18.886,18.886,0,0,0,2.485,1.27l.008,0a6.165,6.165,0,0,0,3.36.411,15.547,15.547,0,0,0,3.184-.955,15.2,15.2,0,0,1,4.332-1.15q.256-.019.508-.019" transform="translate(-748.247 -183.298)"></path><path id="Tracciato_188" data-name="Tracciato 188" d="M765.475,259.894c-4.852-.419-9.968.014-14.536.02-9.266.011-23.832-.361-33.121-.063-9.316.3-20.029,3.232-22.36,12.2-1.5,5.776,1.819,13.187,7.636,16.326,6.064,3.273,13.652,2.178,20.382,2.191,8.407.016,22.089.2,30.542.261,12.333.09,28.858-1.794,28.858-15.538a14.914,14.914,0,0,0-7.155-12.41,23.094,23.094,0,0,0-10.246-2.99" transform="translate(-650.749 -243.141)" fill="#fcd575"></path><path id="Tracciato_189" data-name="Tracciato 189" d="M746.667,283.241q-.4,0-.811,0c-3.161-.023-7.03-.063-11.126-.105-6.958-.072-14.152-.146-19.413-.156-1.337,0-2.683.038-4.107.081-5.681.172-11.556.35-16.538-2.338a16.546,16.546,0,0,1-8.181-12.2,12.693,12.693,0,0,1,.272-4.753,13.236,13.236,0,0,1,3.3-5.894,18.019,18.019,0,0,1,5.563-3.825,37.787,37.787,0,0,1,14.013-2.9c6.077-.195,14.548-.1,22.022-.02,4.064.045,7.9.087,11.116.083,1.487,0,3.008-.048,4.618-.1a86.1,86.1,0,0,1,9.967.08,30.222,30.222,0,0,1,5.47.934,19.146,19.146,0,0,1,5.019,2.136,15.83,15.83,0,0,1,5.446,5.645,14.7,14.7,0,0,1,1.973,7.237,12.938,12.938,0,0,1-3.775,9.547,17.32,17.32,0,0,1-5.217,3.445,31.4,31.4,0,0,1-6.475,1.988,66.546,66.546,0,0,1-13.139,1.115M715.2,281.866h.116c5.266.01,12.463.084,19.423.156,4.1.042,7.963.082,11.122.105a67.138,67.138,0,0,0,13.722-1.09c4.968-1.006,8.712-2.733,11.13-5.133a11.325,11.325,0,0,0,2.524-3.745,13.147,13.147,0,0,0,.923-5.014,13.592,13.592,0,0,0-1.828-6.688,14.715,14.715,0,0,0-5.062-5.248,18.055,18.055,0,0,0-4.732-2.011,29.138,29.138,0,0,0-5.27-.9,85.275,85.275,0,0,0-9.837-.076c-1.618.05-3.147.1-4.65.1-3.22,0-7.062-.038-11.13-.083-7.463-.082-15.922-.174-21.975.02a36.683,36.683,0,0,0-13.586,2.8c-4.457,2.04-7.235,5.064-8.254,8.988a11.592,11.592,0,0,0-.244,4.339,15.437,15.437,0,0,0,7.607,11.359c4.719,2.547,10.442,2.373,15.977,2.206,1.331-.04,2.706-.082,4.027-.082" transform="translate(-642.591 -234.993)"></path><path id="Tracciato_190" data-name="Tracciato 190" d="M1826.713,485.125c.024.113-.051.233-.291.35-.587.287-2.215.824-2.215-.358a.735.735,0,0,1,.677-.735,2.024,2.024,0,0,1,.754.115c.284.081,1.011.336,1.074.628" transform="translate(-1707.817 -453.471)" fill="#fff"></path><path id="Tracciato_191" data-name="Tracciato 191" d="M1822.3,483.317a1.156,1.156,0,0,1-.616-.15.838.838,0,0,1-.374-.767.918.918,0,0,1,.844-.919,2.187,2.187,0,0,1,.823.121c.333.1,1.117.36,1.2.768.032.15-.009.368-.39.555a4.016,4.016,0,0,1-1.492.393m-.016-1.473a.9.9,0,0,0-.092,0,.553.553,0,0,0-.511.551.487.487,0,0,0,.2.453c.389.243,1.279-.031,1.749-.261.175-.085.191-.143.191-.143h0a1.758,1.758,0,0,0-.944-.489,2.228,2.228,0,0,0-.592-.113" transform="translate(-1705.101 -450.754)"></path><path id="Tracciato_192" data-name="Tracciato 192" d="M1594.462,440.1c.014.065-.029.133-.166.2-.335.164-1.263.47-1.263-.2a.419.419,0,0,1,.386-.419,1.158,1.158,0,0,1,.43.066c.162.046.577.191.612.358" transform="translate(-1491.392 -411.621)" fill="#fff"></path><path id="Tracciato_193" data-name="Tracciato 193" d="M1590.778,437.983a.741.741,0,0,1-.4-.1.553.553,0,0,1-.25-.505.6.6,0,0,1,.553-.6,1.31,1.31,0,0,1,.5.072c.253.072.686.233.743.5.02.093.012.269-.265.4a2.311,2.311,0,0,1-.884.233m-.012-.84-.044,0a.234.234,0,0,0-.22.235c0,.143.055.178.076.191a1.284,1.284,0,0,0,.92-.153l.033-.018a1.582,1.582,0,0,0-.45-.2,1.213,1.213,0,0,0-.316-.062" transform="translate(-1488.676 -408.905)"></path><path id="Tracciato_194" data-name="Tracciato 194" d="M1064.043,470.373c.055.035.072.113.023.255-.119.348-.553,1.21-1.024.739a.413.413,0,0,1-.023-.562,1.142,1.142,0,0,1,.346-.254c.145-.081.536-.269.678-.177" transform="translate(-995.103 -440.339)" fill="#fff"></path><path id="Tracciato_195" data-name="Tracciato 195" d="M1060.6,469a.578.578,0,0,1-.414-.192.6.6,0,0,1-.036-.81,1.294,1.294,0,0,1,.4-.3c.228-.126.643-.317.868-.171.079.051.2.181.1.47-.031.089-.313.875-.8.988a.512.512,0,0,1-.115.013m.575-1.153a1.579,1.579,0,0,0-.446.176,1,1,0,0,0-.292.209.229.229,0,0,0,.01.314c.1.1.161.085.184.079.186-.043.422-.422.534-.748,0-.012.007-.023.01-.032" transform="translate(-992.374 -437.648)"></path><path id="Tracciato_196" data-name="Tracciato 196" d="M1234.164,435.748c-.02-.094.043-.194.242-.291.489-.239,1.844-.686,1.844.3a.612.612,0,0,1-.564.612,1.686,1.686,0,0,1-.627-.1c-.237-.068-.842-.279-.894-.523" transform="translate(-1155.417 -407.382)" fill="#fff"></path><path id="Tracciato_197" data-name="Tracciato 197" d="M1232.873,433.847a2.133,2.133,0,0,1-.586-.107c-.283-.081-.948-.307-1.024-.662-.029-.136.007-.332.341-.5.048-.024,1.187-.573,1.784-.2a.727.727,0,0,1,.326.665.794.794,0,0,1-.73.8,1.093,1.093,0,0,1-.111.006m-1.245-.839a1.678,1.678,0,0,0,.76.376,1.54,1.54,0,0,0,.558.09.425.425,0,0,0,.4-.428c0-.256-.114-.328-.151-.351-.3-.185-1.012.017-1.426.219a.392.392,0,0,0-.139.094" transform="translate(-1152.697 -404.672)"></path><path id="Tracciato_198" data-name="Tracciato 198" d="M1719.107,390.789c.038-.059.122-.078.275-.025.376.129,1.306.6.8,1.106a.447.447,0,0,1-.607.025,1.232,1.232,0,0,1-.274-.373c-.087-.157-.29-.579-.191-.732" transform="translate(-1609.397 -365.803)" fill="#fff"></path><path id="Tracciato_199" data-name="Tracciato 199" d="M1717.173,389.483a.649.649,0,0,1-.41-.149,1.386,1.386,0,0,1-.319-.427c-.135-.243-.339-.685-.185-.922h0c.053-.082.187-.2.49-.1a2.747,2.747,0,0,1,.584.287,1,1,0,0,1,.473.566.578.578,0,0,1-.189.558.626.626,0,0,1-.444.187m-.6-1.264a1.6,1.6,0,0,0,.195.508,1.088,1.088,0,0,0,.229.32.261.261,0,0,0,.359-.012c.113-.113.1-.185.09-.213-.048-.206-.461-.465-.817-.587a.46.46,0,0,0-.057-.016" transform="translate(-1606.704 -363.099)"></path><path id="Tracciato_200" data-name="Tracciato 200" d="M1310.064,439.518c-.023-.108.049-.221.276-.333.559-.274,2.109-.784,2.109.341a.7.7,0,0,1-.645.7,1.928,1.928,0,0,1-.717-.109c-.271-.077-.963-.32-1.023-.6" transform="translate(-1226.473 -410.83)" fill="#fff"></path><path id="Tracciato_201" data-name="Tracciato 201" d="M1308.978,437.7a2.423,2.423,0,0,1-.663-.122c-.319-.091-1.069-.345-1.153-.738-.031-.146.009-.358.376-.538.055-.027,1.344-.649,2.015-.231a.806.806,0,0,1,.36.738.882.882,0,0,1-.811.884,1.232,1.232,0,0,1-.124.006m-1.454-.936a1.734,1.734,0,0,0,.892.458,1.788,1.788,0,0,0,.648.1.518.518,0,0,0,.479-.516.456.456,0,0,0-.186-.424,1.162,1.162,0,0,0-.8-.042,3.848,3.848,0,0,0-.852.291c-.145.071-.172.121-.177.129" transform="translate(-1223.752 -408.114)"></path><path id="Tracciato_202" data-name="Tracciato 202" d="M1480.471,439.482c.081.052.107.167.035.377-.177.515-.819,1.789-1.515,1.093a.612.612,0,0,1-.033-.831,1.683,1.683,0,0,1,.511-.376c.215-.12.793-.4,1-.262" transform="translate(-1384.458 -411.408)" fill="#fff"></path><path id="Tracciato_203" data-name="Tracciato 203" d="M1476.685,438.655a.771.771,0,0,1-.552-.257.794.794,0,0,1-.047-1.079,1.845,1.845,0,0,1,.565-.421c.257-.143.887-.454,1.193-.256.117.076.23.24.109.592-.017.051-.434,1.245-1.12,1.4a.657.657,0,0,1-.149.017m.906-1.711a2.057,2.057,0,0,0-.76.277,1.544,1.544,0,0,0-.458.331.425.425,0,0,0,.021.584c.181.181.312.151.355.141.34-.079.7-.728.853-1.163a.4.4,0,0,0,.031-.165.143.143,0,0,0-.044-.005" transform="translate(-1381.73 -408.723)"></path><path id="Tracciato_204" data-name="Tracciato 204" d="M1527.071,488.293c-.02-.094.043-.194.242-.291.489-.239,1.844-.686,1.844.3a.612.612,0,0,1-.564.612,1.688,1.688,0,0,1-.627-.1c-.236-.068-.842-.279-.894-.523" transform="translate(-1429.635 -456.574)" fill="#fff"></path><path id="Tracciato_205" data-name="Tracciato 205" d="M1525.78,486.392a2.134,2.134,0,0,1-.586-.107c-.282-.081-.948-.307-1.024-.662-.029-.136.007-.332.341-.5.048-.024,1.187-.573,1.784-.2a.727.727,0,0,1,.326.665.794.794,0,0,1-.73.8,1.094,1.094,0,0,1-.111.006m-1.245-.839a1.68,1.68,0,0,0,.76.376,1.543,1.543,0,0,0,.558.09.425.425,0,0,0,.4-.428c0-.256-.114-.328-.151-.351-.3-.185-1.012.017-1.426.219a.4.4,0,0,0-.139.094" transform="translate(-1426.915 -453.865)"></path><path id="Tracciato_206" data-name="Tracciato 206" d="M1616,457.125c-.02-.094.042-.194.242-.291.489-.239,1.844-.686,1.844.3a.612.612,0,0,1-.564.612,1.688,1.688,0,0,1-.627-.1c-.236-.068-.842-.279-.894-.523" transform="translate(-1512.891 -427.395)" fill="#fff"></path><path id="Tracciato_207" data-name="Tracciato 207" d="M1614.708,455.224a2.136,2.136,0,0,1-.586-.107c-.283-.081-.948-.307-1.024-.663-.029-.136.007-.332.342-.5.048-.024,1.187-.573,1.784-.2a.727.727,0,0,1,.325.665.794.794,0,0,1-.73.8,1.093,1.093,0,0,1-.111.006m-1.245-.839a1.678,1.678,0,0,0,.76.376,1.541,1.541,0,0,0,.558.09.425.425,0,0,0,.4-.428c0-.256-.114-.328-.151-.351-.3-.185-1.012.017-1.426.219a.394.394,0,0,0-.138.094" transform="translate(-1510.169 -424.685)"></path><path id="Tracciato_208" data-name="Tracciato 208" d="M981.214,436.564c-.023-.108.049-.221.276-.333.559-.274,2.109-.784,2.109.341a.7.7,0,0,1-.645.7,1.931,1.931,0,0,1-.718-.109c-.27-.077-.963-.32-1.023-.6" transform="translate(-918.605 -408.064)" fill="#fff"></path><path id="Tracciato_209" data-name="Tracciato 209" d="M980.128,434.744a2.415,2.415,0,0,1-.663-.122c-.319-.091-1.069-.345-1.153-.738-.031-.146.009-.358.376-.538.055-.027,1.344-.649,2.015-.231a.806.806,0,0,1,.36.738.882.882,0,0,1-.811.884,1.206,1.206,0,0,1-.124.006m-1.453-.936a1.733,1.733,0,0,0,.892.458,1.786,1.786,0,0,0,.648.1.518.518,0,0,0,.479-.516.456.456,0,0,0-.186-.424,1.162,1.162,0,0,0-.8-.042,3.849,3.849,0,0,0-.852.291c-.145.071-.173.121-.176.129" transform="translate(-915.885 -405.347)"></path><path id="Tracciato_210" data-name="Tracciato 210" d="M865.889,422.924c.024.113-.051.233-.29.35-.587.287-2.215.824-2.215-.358a.735.735,0,0,1,.678-.735,2.025,2.025,0,0,1,.754.115c.284.081,1.011.336,1.074.629" transform="translate(-808.297 -395.238)" fill="#fff"></path><path id="Tracciato_211" data-name="Tracciato 211" d="M861.474,421.117a1.157,1.157,0,0,1-.616-.15.838.838,0,0,1-.374-.767.918.918,0,0,1,.844-.919,2.189,2.189,0,0,1,.823.121c.333.095,1.117.36,1.2.768.032.15-.01.368-.39.555a4.014,4.014,0,0,1-1.492.393m-.016-1.473a.908.908,0,0,0-.092,0,.553.553,0,0,0-.511.551.487.487,0,0,0,.2.453c.389.243,1.279-.031,1.749-.261.175-.086.191-.143.191-.143h0a1.757,1.757,0,0,0-.944-.489,2.227,2.227,0,0,0-.592-.113" transform="translate(-805.582 -392.523)"></path><path id="Tracciato_212" data-name="Tracciato 212" d="M1605.708,374.643c.014.065-.029.133-.166.2-.335.164-1.263.47-1.263-.2a.419.419,0,0,1,.386-.419,1.157,1.157,0,0,1,.43.066c.162.046.577.191.613.358" transform="translate(-1501.92 -350.34)" fill="#fff"></path><path id="Tracciato_213" data-name="Tracciato 213" d="M1602.025,372.525a.742.742,0,0,1-.4-.1.554.554,0,0,1-.25-.505.6.6,0,0,1,.552-.6,1.311,1.311,0,0,1,.5.072c.253.072.686.233.743.5.02.093.012.269-.265.4a2.31,2.31,0,0,1-.883.232m-.012-.84-.044,0a.234.234,0,0,0-.22.235c0,.143.055.178.076.191a1.284,1.284,0,0,0,.92-.153l.033-.018a1.576,1.576,0,0,0-.45-.2,1.214,1.214,0,0,0-.316-.062" transform="translate(-1499.206 -347.623)"></path><path id="Tracciato_214" data-name="Tracciato 214" d="M1076.906,395.506c.055.035.072.113.024.255-.12.348-.554,1.21-1.024.739a.414.414,0,0,1-.023-.562,1.143,1.143,0,0,1,.346-.254c.145-.081.536-.269.678-.177" transform="translate(-1007.145 -370.249)" fill="#fff"></path><path id="Tracciato_215" data-name="Tracciato 215" d="M1073.461,394.131a.578.578,0,0,1-.414-.192.6.6,0,0,1-.036-.81,1.3,1.3,0,0,1,.4-.3c.227-.126.643-.317.868-.171h0c.079.051.2.181.1.47-.031.089-.313.875-.8.988a.509.509,0,0,1-.115.013m.575-1.153a1.573,1.573,0,0,0-.446.176,1,1,0,0,0-.292.209.229.229,0,0,0,.01.314c.1.1.161.085.184.079.186-.043.422-.422.534-.748,0-.012.007-.023.01-.032" transform="translate(-1004.416 -367.557)"></path><path id="Tracciato_216" data-name="Tracciato 216" d="M1354.2,369.694c-.02-.094.042-.194.242-.291.489-.239,1.844-.686,1.844.3a.611.611,0,0,1-.564.612,1.687,1.687,0,0,1-.627-.1c-.237-.067-.842-.279-.894-.523" transform="translate(-1267.791 -345.542)" fill="#fff"></path><path id="Tracciato_217" data-name="Tracciato 217" d="M1352.906,367.792a2.133,2.133,0,0,1-.586-.107c-.282-.081-.948-.307-1.024-.662-.029-.136.007-.332.341-.5.048-.024,1.188-.573,1.784-.2a.727.727,0,0,1,.326.665.794.794,0,0,1-.73.8,1.09,1.09,0,0,1-.111.006m-1.245-.839a1.679,1.679,0,0,0,.76.376,1.542,1.542,0,0,0,.558.09.425.425,0,0,0,.4-.428c0-.256-.114-.328-.152-.351-.3-.185-1.012.017-1.426.219a.393.393,0,0,0-.139.094" transform="translate(-1265.071 -342.832)"></path><path id="Tracciato_218" data-name="Tracciato 218" d="M1533.687,433.772c.038-.059.122-.078.275-.026.376.129,1.306.6.8,1.106a.447.447,0,0,1-.607.025,1.235,1.235,0,0,1-.274-.373c-.087-.157-.29-.579-.191-.732" transform="translate(-1435.808 -406.043)" fill="#fff"></path><path id="Tracciato_219" data-name="Tracciato 219" d="M1531.753,432.465a.649.649,0,0,1-.41-.149,1.385,1.385,0,0,1-.319-.427c-.135-.243-.338-.685-.185-.922.053-.082.187-.2.49-.1a2.753,2.753,0,0,1,.585.287,1,1,0,0,1,.472.566.578.578,0,0,1-.189.558.626.626,0,0,1-.444.187m-.6-1.264a1.6,1.6,0,0,0,.195.508,1.092,1.092,0,0,0,.23.32.261.261,0,0,0,.359-.012c.113-.113.1-.185.09-.213-.048-.206-.461-.465-.817-.587a.478.478,0,0,0-.057-.016" transform="translate(-1433.114 -403.338)"></path><path id="Tracciato_220" data-name="Tracciato 220" d="M1340.748,613.878c.014.065-.029.133-.166.2-.335.164-1.263.47-1.263-.2a.419.419,0,0,1,.386-.419,1.159,1.159,0,0,1,.43.066c.162.046.577.191.613.359" transform="translate(-1253.866 -574.311)" fill="#fff"></path><path id="Tracciato_221" data-name="Tracciato 221" d="M1337.064,611.759a.741.741,0,0,1-.4-.1.553.553,0,0,1-.25-.505.6.6,0,0,1,.553-.6,1.309,1.309,0,0,1,.5.072c.253.072.686.233.743.5h0c.02.093.012.269-.265.4a2.311,2.311,0,0,1-.883.233m-.012-.84-.044,0a.234.234,0,0,0-.22.235c0,.143.055.178.076.191a1.284,1.284,0,0,0,.921-.153l.033-.018a1.586,1.586,0,0,0-.45-.2,1.217,1.217,0,0,0-.316-.062" transform="translate(-1251.15 -571.593)"></path><path id="Tracciato_222" data-name="Tracciato 222" d="M1226.757,613.258c.081.053.107.167.035.377-.177.515-.819,1.789-1.515,1.093a.612.612,0,0,1-.034-.831,1.687,1.687,0,0,1,.511-.376c.215-.12.793-.4,1-.262" transform="translate(-1146.932 -574.096)" fill="#fff"></path><path id="Tracciato_223" data-name="Tracciato 223" d="M1222.97,612.431a.772.772,0,0,1-.552-.257.794.794,0,0,1-.046-1.079,1.851,1.851,0,0,1,.565-.421c.257-.143.887-.454,1.193-.256.117.076.23.24.109.592-.017.051-.434,1.245-1.12,1.4a.66.66,0,0,1-.149.017m.906-1.711a2.059,2.059,0,0,0-.76.277,1.542,1.542,0,0,0-.458.331.424.424,0,0,0,.021.583c.182.181.312.151.355.141.34-.079.7-.728.853-1.163a.4.4,0,0,0,.031-.165.141.141,0,0,0-.043-.005" transform="translate(-1144.204 -571.411)"></path><path id="Tracciato_224" data-name="Tracciato 224" d="M1068.622,635.082c-.02-.094.042-.194.242-.291.489-.239,1.844-.686,1.844.3a.612.612,0,0,1-.564.612,1.685,1.685,0,0,1-.627-.1c-.237-.067-.842-.279-.894-.523" transform="translate(-1000.437 -593.997)" fill="#fff"></path><path id="Tracciato_225" data-name="Tracciato 225" d="M1067.33,633.18a2.136,2.136,0,0,1-.586-.107c-.283-.081-.948-.307-1.024-.663-.029-.136.007-.332.341-.5.048-.024,1.187-.573,1.784-.2a.727.727,0,0,1,.326.665.794.794,0,0,1-.73.8,1.085,1.085,0,0,1-.111.006m-1.245-.839a1.68,1.68,0,0,0,.76.376,1.538,1.538,0,0,0,.558.09.424.424,0,0,0,.4-.427c0-.257-.114-.328-.151-.351-.3-.185-1.012.017-1.426.219a.4.4,0,0,0-.139.094" transform="translate(-997.716 -591.287)"></path><path id="Tracciato_226" data-name="Tracciato 226" d="M1362.286,630.9c-.02-.094.042-.194.241-.291.489-.239,1.844-.686,1.844.3a.612.612,0,0,1-.564.612,1.686,1.686,0,0,1-.627-.1c-.236-.068-.842-.279-.894-.523" transform="translate(-1275.364 -590.084)" fill="#fff"></path><path id="Tracciato_227" data-name="Tracciato 227" d="M1360.994,629a2.132,2.132,0,0,1-.586-.108c-.283-.081-.948-.307-1.024-.662-.029-.136.007-.332.342-.5.048-.024,1.187-.573,1.784-.2a.727.727,0,0,1,.325.665.794.794,0,0,1-.73.8,1.08,1.08,0,0,1-.111.006m-1.245-.839a1.681,1.681,0,0,0,.76.376,1.544,1.544,0,0,0,.558.09.425.425,0,0,0,.4-.428c0-.256-.114-.328-.151-.351-.3-.185-1.012.017-1.426.219a.4.4,0,0,0-.139.094" transform="translate(-1272.643 -587.374)"></path><path id="Tracciato_228" data-name="Tracciato 228" d="M1279.973,607.548c.038-.059.122-.078.275-.026.376.129,1.306.6.8,1.106a.447.447,0,0,1-.607.025,1.23,1.23,0,0,1-.274-.373c-.087-.157-.29-.579-.191-.732" transform="translate(-1198.281 -568.732)" fill="#fff"></path><path id="Tracciato_229" data-name="Tracciato 229" d="M1278.039,606.241a.649.649,0,0,1-.41-.149,1.388,1.388,0,0,1-.319-.427c-.135-.243-.339-.685-.185-.922h0c.053-.082.187-.2.49-.1a2.754,2.754,0,0,1,.585.287,1,1,0,0,1,.473.566.578.578,0,0,1-.189.558.625.625,0,0,1-.444.187m-.6-1.264a1.6,1.6,0,0,0,.195.508,1.092,1.092,0,0,0,.23.32.261.261,0,0,0,.359-.012c.113-.113.1-.185.09-.213-.048-.206-.461-.465-.817-.587a.479.479,0,0,0-.057-.016" transform="translate(-1195.588 -566.027)"></path><path id="Tracciato_230" data-name="Tracciato 230" d="M902.722,496.6c-.023-.108.049-.221.276-.333.559-.274,2.109-.784,2.109.341a.7.7,0,0,1-.645.7,1.93,1.93,0,0,1-.718-.109c-.27-.077-.963-.319-1.022-.6" transform="translate(-845.121 -464.275)" fill="#fff"></path><path id="Tracciato_231" data-name="Tracciato 231" d="M901.637,494.787a2.425,2.425,0,0,1-.663-.122c-.319-.091-1.069-.345-1.153-.738-.031-.146.009-.358.376-.538.055-.027,1.345-.649,2.015-.231a.806.806,0,0,1,.36.738.882.882,0,0,1-.811.884,1.233,1.233,0,0,1-.124.006m-1.454-.936a1.734,1.734,0,0,0,.892.458,1.785,1.785,0,0,0,.648.1.518.518,0,0,0,.479-.516.456.456,0,0,0-.186-.424,1.162,1.162,0,0,0-.8-.042,3.845,3.845,0,0,0-.852.291c-.145.071-.173.121-.177.129" transform="translate(-842.401 -461.558)"></path><path id="Tracciato_232" data-name="Tracciato 232" d="M1298.108,340.485c.081.052.107.167.035.377-.177.515-.819,1.789-1.514,1.093a.612.612,0,0,1-.034-.831,1.69,1.69,0,0,1,.511-.376c.215-.12.793-.4,1-.262" transform="translate(-1213.73 -318.727)" fill="#fff"></path><path id="Tracciato_233" data-name="Tracciato 233" d="M1294.321,339.658a.771.771,0,0,1-.552-.257.794.794,0,0,1-.046-1.079,1.846,1.846,0,0,1,.565-.421c.257-.143.887-.453,1.193-.256.117.075.23.24.109.592-.017.051-.434,1.245-1.12,1.4a.661.661,0,0,1-.149.017m.907-1.711a2.058,2.058,0,0,0-.76.277,1.544,1.544,0,0,0-.458.331.425.425,0,0,0,.021.584c.181.181.312.151.355.141.341-.079.7-.728.853-1.163a.4.4,0,0,0,.031-.165.141.141,0,0,0-.043-.005" transform="translate(-1211.002 -316.043)"></path><path id="Tracciato_234" data-name="Tracciato 234" d="M1476.057,391.667c-.02-.094.042-.194.242-.291.489-.239,1.844-.686,1.844.3a.612.612,0,0,1-.564.612,1.688,1.688,0,0,1-.627-.1c-.236-.068-.842-.279-.894-.523" transform="translate(-1381.876 -366.113)" fill="#fff"></path><path id="Tracciato_235" data-name="Tracciato 235" d="M1474.765,389.765a2.135,2.135,0,0,1-.586-.107c-.283-.081-.948-.307-1.024-.662-.029-.136.007-.332.342-.5.048-.024,1.187-.573,1.784-.2a.727.727,0,0,1,.326.665.8.8,0,0,1-.73.8,1.092,1.092,0,0,1-.111.006m-1.245-.839a1.682,1.682,0,0,0,.76.376,1.545,1.545,0,0,0,.558.09.425.425,0,0,0,.4-.428c0-.257-.114-.328-.151-.351-.3-.185-1.012.017-1.426.219a.4.4,0,0,0-.139.094" transform="translate(-1379.155 -363.403)"></path><path id="Tracciato_236" data-name="Tracciato 236" d="M1627.246,391.667c-.02-.094.043-.194.242-.291.489-.239,1.844-.686,1.844.3a.612.612,0,0,1-.564.612,1.688,1.688,0,0,1-.627-.1c-.236-.068-.842-.279-.894-.523" transform="translate(-1523.418 -366.113)" fill="#fff"></path><path id="Tracciato_237" data-name="Tracciato 237" d="M1625.954,389.765a2.133,2.133,0,0,1-.586-.107c-.283-.081-.948-.307-1.024-.662-.029-.136.007-.332.342-.5.048-.024,1.187-.573,1.784-.2a.727.727,0,0,1,.325.665.794.794,0,0,1-.73.8,1.1,1.1,0,0,1-.111.006m-1.245-.839a1.681,1.681,0,0,0,.76.376,1.543,1.543,0,0,0,.558.09.425.425,0,0,0,.4-.428c0-.257-.114-.328-.151-.351-.3-.185-1.012.017-1.426.219a.4.4,0,0,0-.139.094" transform="translate(-1520.698 -363.403)"></path><path id="Tracciato_238" data-name="Tracciato 238" d="M1397.921,445.165c.014.065-.029.133-.166.2-.335.164-1.263.47-1.263-.2a.419.419,0,0,1,.386-.419,1.155,1.155,0,0,1,.43.066c.162.046.577.191.613.358" transform="translate(-1307.391 -416.362)" fill="#fff"></path><path id="Tracciato_239" data-name="Tracciato 239" d="M1394.238,443.047a.739.739,0,0,1-.4-.1.553.553,0,0,1-.25-.505.6.6,0,0,1,.553-.6,1.309,1.309,0,0,1,.5.072c.253.072.686.233.743.5.02.093.012.269-.265.4a2.311,2.311,0,0,1-.883.233m-.012-.84-.044,0a.234.234,0,0,0-.22.235c0,.143.055.178.076.191a1.285,1.285,0,0,0,.921-.153l.033-.018a1.578,1.578,0,0,0-.45-.2,1.21,1.21,0,0,0-.316-.062" transform="translate(-1304.676 -413.646)"></path><path id="Tracciato_240" data-name="Tracciato 240" d="M1037.624,440.812c-.02-.094.042-.194.242-.291.489-.239,1.844-.686,1.844.3a.612.612,0,0,1-.564.612,1.686,1.686,0,0,1-.627-.1c-.236-.068-.842-.279-.894-.523" transform="translate(-971.417 -412.123)" fill="#fff"></path><path id="Tracciato_241" data-name="Tracciato 241" d="M1036.332,438.91a2.135,2.135,0,0,1-.586-.107c-.283-.081-.948-.307-1.024-.662-.029-.136.007-.332.341-.5.048-.024,1.187-.573,1.784-.2a.727.727,0,0,1,.326.665.794.794,0,0,1-.73.8,1.1,1.1,0,0,1-.111.006m-1.245-.839a1.681,1.681,0,0,0,.76.376,1.542,1.542,0,0,0,.558.09.425.425,0,0,0,.4-.428c0-.257-.114-.328-.151-.351-.3-.185-1.012.017-1.426.219a.4.4,0,0,0-.139.094" transform="translate(-968.695 -409.412)"></path><path id="Tracciato_242" data-name="Tracciato 242" d="M1112.714,441.972c.038-.059.122-.078.275-.025.376.129,1.306.6.8,1.106a.447.447,0,0,1-.607.025,1.229,1.229,0,0,1-.275-.373c-.087-.157-.29-.579-.191-.732" transform="translate(-1041.694 -413.72)" fill="#fff"></path><path id="Tracciato_243" data-name="Tracciato 243" d="M1110.78,440.665a.649.649,0,0,1-.41-.149,1.384,1.384,0,0,1-.319-.427c-.135-.243-.338-.685-.185-.922h0c.053-.082.188-.2.49-.1a2.747,2.747,0,0,1,.585.287,1,1,0,0,1,.473.566.578.578,0,0,1-.189.558.625.625,0,0,1-.444.187m-.6-1.264a1.592,1.592,0,0,0,.195.508,1.1,1.1,0,0,0,.229.32.262.262,0,0,0,.359-.012c.113-.113.1-.185.09-.213-.048-.206-.461-.465-.817-.587a.475.475,0,0,0-.056-.016" transform="translate(-1039.001 -411.015)"></path><path id="Tracciato_244" data-name="Tracciato 244" d="M1200.054,499.074c.081.052.107.167.035.377-.177.515-.819,1.789-1.514,1.093a.612.612,0,0,1-.034-.831,1.69,1.69,0,0,1,.511-.376c.215-.119.793-.4,1-.262" transform="translate(-1121.932 -467.198)" fill="#fff"></path><path id="Tracciato_245" data-name="Tracciato 245" d="M1196.266,498.247a.771.771,0,0,1-.552-.257.794.794,0,0,1-.047-1.079,1.849,1.849,0,0,1,.565-.421c.257-.143.887-.454,1.193-.256.117.076.23.24.109.592-.017.051-.434,1.245-1.12,1.4a.661.661,0,0,1-.149.017m.906-1.711a2.056,2.056,0,0,0-.76.277,1.541,1.541,0,0,0-.458.331.425.425,0,0,0,.021.584c.181.181.312.151.355.141.34-.079.7-.728.853-1.163a.4.4,0,0,0,.031-.165.144.144,0,0,0-.044-.005" transform="translate(-1119.204 -464.513)"></path><path id="Tracciato_246" data-name="Tracciato 246" d="M1712.491,426.871c-.02-.094.043-.194.242-.291.489-.239,1.844-.686,1.844.3a.612.612,0,0,1-.564.612,1.689,1.689,0,0,1-.627-.1c-.236-.068-.842-.279-.894-.523" transform="translate(-1603.225 -399.071)" fill="#fff"></path><path id="Tracciato_247" data-name="Tracciato 247" d="M1711.2,424.969a2.134,2.134,0,0,1-.586-.107c-.283-.081-.948-.307-1.024-.662h0c-.029-.136.007-.332.341-.5.048-.024,1.187-.573,1.784-.2a.727.727,0,0,1,.326.665.794.794,0,0,1-.73.8,1.082,1.082,0,0,1-.111.006m-1.245-.839a1.681,1.681,0,0,0,.76.376,1.541,1.541,0,0,0,.558.09.425.425,0,0,0,.4-.428c0-.257-.114-.328-.151-.351-.3-.185-1.012.017-1.426.219a.4.4,0,0,0-.139.094" transform="translate(-1600.504 -396.361)"></path><path id="Tracciato_248" data-name="Tracciato 248" d="M1391.342,497.9c-.02-.094.043-.194.242-.291.489-.239,1.844-.686,1.844.3a.612.612,0,0,1-.564.612,1.688,1.688,0,0,1-.627-.1c-.236-.067-.842-.279-.894-.523" transform="translate(-1302.566 -465.567)" fill="#fff"></path><path id="Tracciato_249" data-name="Tracciato 249" d="M1390.05,496a2.133,2.133,0,0,1-.586-.107c-.283-.081-.948-.307-1.024-.662-.029-.136.007-.332.342-.5.048-.024,1.187-.573,1.784-.2a.727.727,0,0,1,.326.665.794.794,0,0,1-.73.8,1.1,1.1,0,0,1-.111.006m-1.245-.839a1.68,1.68,0,0,0,.76.376,1.54,1.54,0,0,0,.558.09.425.425,0,0,0,.4-.428c0-.256-.114-.327-.151-.351-.3-.185-1.012.017-1.426.219a.4.4,0,0,0-.139.094" transform="translate(-1299.845 -462.858)"></path><path id="Tracciato_250" data-name="Tracciato 250" d="M1409.167,379.706c.014.065-.029.133-.166.2-.335.164-1.263.47-1.263-.2a.419.419,0,0,1,.386-.419,1.157,1.157,0,0,1,.43.066c.162.046.577.191.613.358" transform="translate(-1317.919 -355.08)" fill="#fff"></path><path id="Tracciato_251" data-name="Tracciato 251" d="M1405.484,377.588a.741.741,0,0,1-.4-.1.553.553,0,0,1-.25-.505.6.6,0,0,1,.553-.6,1.308,1.308,0,0,1,.5.072c.253.072.686.233.743.5.02.093.012.269-.265.4a2.311,2.311,0,0,1-.883.233m-.012-.84-.044,0a.234.234,0,0,0-.22.235c0,.143.055.178.076.191a1.284,1.284,0,0,0,.921-.153l.033-.018a1.582,1.582,0,0,0-.45-.2,1.215,1.215,0,0,0-.316-.062" transform="translate(-1315.204 -352.364)"></path><path id="Tracciato_252" data-name="Tracciato 252" d="M1157.657,374.758c-.02-.094.043-.194.242-.291.489-.239,1.844-.686,1.844.3a.612.612,0,0,1-.564.612,1.688,1.688,0,0,1-.627-.1c-.236-.068-.842-.279-.894-.523" transform="translate(-1083.791 -350.283)" fill="#fff"></path><path id="Tracciato_253" data-name="Tracciato 253" d="M1156.365,372.856a2.134,2.134,0,0,1-.586-.107c-.282-.081-.948-.307-1.024-.662-.029-.136.006-.332.341-.5.048-.024,1.187-.573,1.784-.2a.727.727,0,0,1,.325.665.794.794,0,0,1-.73.8,1.083,1.083,0,0,1-.111.006m-1.245-.839a1.682,1.682,0,0,0,.76.376,1.543,1.543,0,0,0,.558.09.425.425,0,0,0,.4-.428c0-.257-.114-.328-.151-.351-.3-.185-1.012.017-1.426.219a.4.4,0,0,0-.139.094" transform="translate(-1081.07 -347.572)"></path><path id="Tracciato_254" data-name="Tracciato 254" d="M1224.41,366.1c.038-.059.122-.078.275-.025.376.129,1.306.6.8,1.106a.447.447,0,0,1-.607.025,1.231,1.231,0,0,1-.274-.373c-.087-.157-.29-.579-.191-.732" transform="translate(-1146.264 -342.684)" fill="#fff"></path><path id="Tracciato_255" data-name="Tracciato 255" d="M1222.476,364.788a.649.649,0,0,1-.41-.149,1.388,1.388,0,0,1-.319-.427c-.135-.243-.339-.685-.185-.922h0c.053-.082.187-.2.49-.1a2.752,2.752,0,0,1,.585.287,1,1,0,0,1,.473.566.578.578,0,0,1-.188.558.626.626,0,0,1-.444.187m-.6-1.264a1.593,1.593,0,0,0,.195.508,1.092,1.092,0,0,0,.229.32.261.261,0,0,0,.359-.012c.113-.113.1-.185.09-.213-.048-.206-.461-.465-.817-.587a.486.486,0,0,0-.057-.016" transform="translate(-1143.57 -339.979)"></path><path id="Tracciato_256" data-name="Tracciato 256" d="M1139.843,462.379c.081.052.107.167.035.377-.177.515-.819,1.789-1.515,1.093a.612.612,0,0,1-.034-.831,1.689,1.689,0,0,1,.511-.376c.215-.12.793-.4,1-.262" transform="translate(-1065.563 -432.844)" fill="#fff"></path><path id="Tracciato_257" data-name="Tracciato 257" d="M1136.056,461.552a.772.772,0,0,1-.552-.257.794.794,0,0,1-.046-1.079,1.846,1.846,0,0,1,.565-.421c.257-.143.887-.454,1.193-.256.116.076.23.24.109.592-.017.051-.434,1.245-1.12,1.4a.658.658,0,0,1-.149.017m.906-1.711a2.054,2.054,0,0,0-.76.277,1.541,1.541,0,0,0-.458.331.424.424,0,0,0,.021.584c.181.181.312.151.355.141.34-.079.7-.728.853-1.163a.4.4,0,0,0,.031-.165.143.143,0,0,0-.043-.005" transform="translate(-1062.835 -430.159)"></path><path id="Tracciato_258" data-name="Tracciato 258" d="M1631.66,612.858c.081.052.107.167.035.377-.177.515-.818,1.789-1.514,1.093a.612.612,0,0,1-.034-.831,1.688,1.688,0,0,1,.511-.376c.215-.12.793-.4,1-.262" transform="translate(-1526 -573.722)" fill="#fff"></path><path id="Tracciato_259" data-name="Tracciato 259" d="M1627.873,612.031a.772.772,0,0,1-.552-.257.8.8,0,0,1-.046-1.079,1.848,1.848,0,0,1,.565-.421c.257-.143.887-.454,1.193-.256.117.076.23.24.109.592-.017.051-.434,1.245-1.12,1.4a.657.657,0,0,1-.149.017m.906-1.711a2.056,2.056,0,0,0-.76.278,1.543,1.543,0,0,0-.458.331.425.425,0,0,0,.021.584c.181.181.312.151.355.141.341-.079.7-.728.854-1.163a.394.394,0,0,0,.031-.165.139.139,0,0,0-.044-.006" transform="translate(-1523.272 -571.037)"></path><path id="Tracciato_260" data-name="Tracciato 260" d="M1250.534,401.273c-.02-.094.042-.194.242-.291.489-.239,1.844-.686,1.844.3a.612.612,0,0,1-.564.612,1.687,1.687,0,0,1-.627-.1c-.236-.067-.842-.279-.894-.523" transform="translate(-1170.742 -375.106)" fill="#fff"></path><path id="Tracciato_261" data-name="Tracciato 261" d="M1249.242,399.371a2.137,2.137,0,0,1-.586-.107c-.282-.081-.948-.307-1.024-.662-.029-.136.007-.332.341-.5.048-.024,1.187-.573,1.784-.2a.727.727,0,0,1,.326.665.794.794,0,0,1-.73.8,1.083,1.083,0,0,1-.111.006m-1.245-.839a1.682,1.682,0,0,0,.76.376,1.542,1.542,0,0,0,.558.09.425.425,0,0,0,.4-.428c0-.256-.114-.328-.151-.351-.3-.185-1.012.017-1.426.219a.4.4,0,0,0-.139.094" transform="translate(-1168.021 -372.396)"></path><path id="Tracciato_262" data-name="Tracciato 262" d="M1543.441,393.6c-.02-.094.042-.194.242-.291.489-.239,1.844-.686,1.844.3a.612.612,0,0,1-.564.612,1.689,1.689,0,0,1-.627-.1c-.236-.068-.842-.279-.894-.523" transform="translate(-1444.961 -367.927)" fill="#fff"></path><path id="Tracciato_263" data-name="Tracciato 263" d="M1542.149,391.7a2.133,2.133,0,0,1-.586-.107c-.283-.081-.948-.307-1.024-.662-.029-.136.007-.332.342-.5.048-.024,1.187-.573,1.784-.2a.727.727,0,0,1,.325.665.794.794,0,0,1-.73.8,1.09,1.09,0,0,1-.111.006m-1.245-.839a1.681,1.681,0,0,0,.76.376,1.54,1.54,0,0,0,.558.09.424.424,0,0,0,.4-.428c0-.256-.114-.328-.151-.351-.3-.185-1.012.017-1.426.219a.4.4,0,0,0-.139.094" transform="translate(-1442.24 -365.217)"></path><path id="Tracciato_264" data-name="Tracciato 264" d="M981.214,375.563c-.023-.108.049-.221.276-.333.559-.273,2.109-.784,2.109.341a.7.7,0,0,1-.645.7,1.928,1.928,0,0,1-.718-.11c-.27-.077-.963-.319-1.023-.6" transform="translate(-918.605 -350.956)" fill="#fff"></path><path id="Tracciato_265" data-name="Tracciato 265" d="M980.128,373.745a2.42,2.42,0,0,1-.663-.122c-.319-.091-1.069-.345-1.153-.738-.031-.146.009-.358.376-.538.055-.027,1.344-.649,2.015-.231a.806.806,0,0,1,.36.738.882.882,0,0,1-.811.884,1.231,1.231,0,0,1-.124.006m-1.453-.936a1.733,1.733,0,0,0,.892.458,1.781,1.781,0,0,0,.648.1.518.518,0,0,0,.479-.516.456.456,0,0,0-.186-.424,1.162,1.162,0,0,0-.8-.042,3.852,3.852,0,0,0-.852.291c-.145.071-.173.121-.177.129" transform="translate(-915.884 -348.239)"></path></g></svg>