<svg xmlns="http://www.w3.org/2000/svg" xmlns:xlink="http://www.w3.org/1999/xlink" width="1462.618" height="656.616" viewBox="0 0 1462.618 656.616"><defs><clipPath id="clip-path"><rect id="Rettangolo_11" data-name="Rettangolo 11" width="1462.618" height="608.455" fill="none"></rect></clipPath></defs><g id="Raggruppa_157" data-name="Raggruppa 157" transform="translate(-1078.501 -315.384)"><ellipse id="Ellisse_1" data-name="Ellisse 1" cx="605" cy="64.5" rx="605" ry="64.5" transform="translate(1197 843)" fill="#dc9902"></ellipse><g id="Raggruppa_102" data-name="Raggruppa 102" transform="translate(1078.501 315.384)"><g id="Raggruppa_9" data-name="Raggruppa 9" clip-path="url(#clip-path)"><path id="Tracciato_155" data-name="Tracciato 155" d="M1547.752,483.248c33.511,74.388,128.294,86.839,128.294,86.839l65.618,110.226-7.43,4.1a11.361,11.361,0,0,0,1.441,20.581,47.376,47.376,0,0,0,25.244,2.175,21.809,21.809,0,0,0,17.873-19.789c1.547-20,3.462-81.19-.537-117.025l-72.524-142.527Z" transform="translate(-524.013 -144.846)" fill="#a35900"></path><path id="Tracciato_156" data-name="Tracciato 156" d="M1748.1,710.087a52.526,52.526,0,0,1-18.434-3.337,17.117,17.117,0,0,1-2.21-31.016l2.219-1.223-61.19-102.787a219.255,219.255,0,0,1-50.36-15.536,180,180,0,0,1-43.931-27.248,134.226,134.226,0,0,1-35.69-46.962l-2.576-5.719,168.65-59.168,75.282,147.947.116,1.04c4.076,36.528,2.076,98.442.555,118.107a27.57,27.57,0,0,1-22.593,25.01,55.5,55.5,0,0,1-9.838.892M1551.734,482.912a124.1,124.1,0,0,0,29.937,37.279,168.535,168.535,0,0,0,41.13,25.48,203.166,203.166,0,0,0,49.989,15.075l2.768.363,70.09,117.738-12.64,6.969a5.571,5.571,0,0,0-2.9,5.368,5.45,5.45,0,0,0,3.567,4.779,41.681,41.681,0,0,0,22.216,1.9,16.056,16.056,0,0,0,13.153-14.568c1.482-19.16,3.434-79.022-.406-114.908l-69.762-137.1Z" transform="translate(-520.008 -141.212)"></path><path id="Tracciato_157" data-name="Tracciato 157" d="M2100.967,663.832a32.541,32.541,0,1,1-32.541-32.541,32.541,32.541,0,0,1,32.541,32.541" transform="translate(-689.277 -213.732)" fill="#a35900"></path><path id="Tracciato_158" data-name="Tracciato 158" d="M2065.479,699.182a38.3,38.3,0,1,1,38.3-38.3,38.34,38.34,0,0,1-38.3,38.3m0-65.081a26.785,26.785,0,1,0,26.785,26.785,26.815,26.815,0,0,0-26.785-26.785" transform="translate(-686.331 -210.786)"></path><path id="Tracciato_159" data-name="Tracciato 159" d="M2136.282,109.912l-.037-.056c-4.064-6.3-9.688-7.751-13.766-1.87-4.543,6.524-5.682,17.258-7.2,25.428-2.055,12.726-4.973,25.167-10.607,36.766a107.574,107.574,0,0,1-13.94,21.845c-14.579,17.8-34.453,30.775-55.764,39.316a66.574,66.574,0,0,0-8.669,4.018c-2.883,1.742-4.556,3.793-4.614,6.61.077,6.89,8.2,17.045,12.842,22.073,2.521,2.59,5.523,5.016,9.043,5.805,2.98.675,6.006.046,9.239-1.425a54.463,54.463,0,0,0,6.316-3.516c30.607-19.726,59.216-43.5,74.115-76.824a112.874,112.874,0,0,0,10.2-44.553c.01-11.362-1.193-24.08-7.161-33.617" transform="translate(-684.471 -35.302)" fill="#a35900"></path><path id="Tracciato_160" data-name="Tracciato 160" d="M2044.136,271.9a14.579,14.579,0,0,1-3.232-.359c-4.834-1.085-8.508-4.411-10.851-6.819l-.066-.07c-4.12-4.463-13.712-15.784-13.809-24.506v-.114c.079-3.9,2.224-7.149,6.374-9.656a65.52,65.52,0,0,1,8.743-4.094l.454-.187c22.372-8.966,41.149-22.19,54.3-38.243a103.858,103.858,0,0,0,13.471-21.105c6-12.362,8.657-25.612,10.3-35.776l.014-.083c.243-1.312.476-2.687.721-4.143,1.314-7.772,2.8-16.58,7.066-22.7,2.4-3.459,5.62-5.337,9.059-5.278,3.966.066,7.788,2.643,10.763,7.255l.064.1c6.933,11.08,7.725,25.6,7.717,35.554v.042a117.186,117.186,0,0,1-10.517,46c-7.14,15.97-17.59,30.569-31.943,44.625-11.5,11.261-25.736,22.308-43.524,33.772l-.037.024a56.827,56.827,0,0,1-6.75,3.749,20.085,20.085,0,0,1-8.315,2.017m-8.825-12.229c2.677,2.745,4.965,4.257,7.2,4.758,1.973.446,4.173.069,6.932-1.186a50.17,50.17,0,0,0,5.869-3.274c17.36-11.19,31.215-21.933,42.353-32.84,13.688-13.4,23.629-27.272,30.39-42.4a109.863,109.863,0,0,0,9.881-43.089c.006-9.046-.673-22.15-6.586-31.627l-.014-.021c-1.861-2.886-3.683-3.924-4.774-3.943h-.03c-1.18,0-2.238,1.166-2.919,2.149-3.334,4.789-4.679,12.741-5.865,19.758-.249,1.47-.483,2.859-.733,4.215-1.722,10.652-4.52,24.557-10.921,37.736a111.083,111.083,0,0,1-14.4,22.565c-13.922,16.993-33.7,30.957-57.206,40.379l-.4.165a61.132,61.132,0,0,0-7.747,3.589c-2.736,1.652-2.849,2.883-2.865,3.51.1,4.739,6,13.217,11.842,19.552" transform="translate(-682.605 -33.436)"></path><path id="Tracciato_161" data-name="Tracciato 161" d="M1367.374,109.918c-47.925-4.154-98.45.141-143.571.2-91.525.112-235.387-3.576-327.138-.624-92.014,2.961-197.83,32.054-220.849,121.02C661,287.794,693.782,361.292,751.238,392.426c59.9,32.457,134.844,21.6,201.312,21.725,83.031.156,218.177,1.975,301.665,2.589,121.818.895,285.026-17.8,285.026-154.1,0-47.326-26.5-95.792-70.666-123.074-29.894-18.465-64.8-26.5-101.2-29.651" transform="translate(-227.604 -36.602)" fill="#fcd575"></path><path id="Tracciato_162" data-name="Tracciato 162" d="M1259.238,419.578q-3.977,0-8.016-.03c-31.218-.23-69.426-.625-109.878-1.044-68.723-.711-139.786-1.447-191.755-1.544-13.216-.026-26.492.38-40.553.807-56.152,1.707-114.215,3.473-163.49-23.227-28.662-15.532-52.563-41.745-67.3-73.809a160,160,0,0,1-13.638-47.382,126.612,126.612,0,0,1,2.689-47.227,131.642,131.642,0,0,1,32.689-58.558c14.342-15.019,32.857-27.8,55.032-37.992,47.042-21.618,101.29-27.583,138.515-28.782,60.027-1.931,143.7-1.01,217.528-.2,40.141.441,78.053.859,109.788.82,14.685-.019,29.7-.48,45.6-.97,32.4-1,65.9-2.029,98.477.794,42.557,3.688,76.487,13.661,103.728,30.489a156.954,156.954,0,0,1,53.879,56.081c12.769,22.542,19.519,47.4,19.519,71.891,0,38.336-12.635,70.317-37.554,95.053-13.513,13.413-30.879,24.891-51.619,34.115-18.378,8.173-39.9,14.794-63.963,19.677-36.546,7.417-79.037,11.037-129.674,11.037M948.475,405.448h1.136c52.017.1,123.105.833,191.853,1.545,40.443.419,78.643.814,109.843,1.043,53.381.391,97.648-3.133,135.316-10.777,48.965-9.936,85.893-26.987,109.76-50.68a112.155,112.155,0,0,0,25.005-37.122c6.07-14.794,9.146-31.536,9.146-49.761,0-22.5-6.233-45.4-18.023-66.217a145.427,145.427,0,0,0-49.912-51.96c-25.674-15.859-57.95-25.285-98.672-28.813-31.9-2.765-65.06-1.744-97.128-.757-15.985.492-31.083.956-45.939.975-31.8.04-69.752-.379-109.929-.82-73.708-.811-157.253-1.73-217.032.193-36.165,1.164-88.782,6.921-134.079,27.735-43.952,20.2-71.333,50.133-81.382,88.974a115.163,115.163,0,0,0-2.407,42.946,148.473,148.473,0,0,0,12.671,43.97c13.7,29.818,35.84,54.143,62.327,68.5,46.545,25.221,103.03,23.5,157.655,21.841,13.152-.4,26.741-.813,39.79-.813" transform="translate(-224.655 -33.655)"></path><path id="Tracciato_163" data-name="Tracciato 163" d="M1412.394,277.534c-31.4-66.982-92.782-93.747-160.319-105.228-134.057-22.79-270.129-5.368-404.935-1.8-101.423,2.681-209.19-18.154-309.836-5.694-35.241,4.363-46.834,8.99-78.891-9.545-26.28-15.193-63.6-46.7-90.52-60.762-37.056-19.349-77.239-34.695-119.025-35.927-35.458-1.046-73.268,8.909-98.7,32.955h0l0,.01a93.07,93.07,0,0,0-19.049,25.338l5.145,1.448L83.921,219.155c-22.677,1.665-58.683,6.194-70.453,23.665-12.846,22.075,21.1,42.171,38.791,49.11,26.471,10.584,56.341,12.086,85.434,13.571l6.532,6.186-17.341-4.471a29.085,29.085,0,0,0-.437,8.449,21.608,21.608,0,0,0,10.961,15.9c3.772,2.135,27.9,3.1,31.706,3.689l98.93,14.562c20.5,3.248,40.043,6.262,56.112,8.259L398.7,397.787C432.213,472.177,527,484.626,527,484.626l65.618,110.226-7.43,4.1a11.361,11.361,0,0,0,1.441,20.581,47.378,47.378,0,0,0,25.244,2.174,21.807,21.807,0,0,0,17.873-19.789c1.547-20,3.463-81.189-.537-117.024l-12.471-24.51,393.159-33.162,123.395-21.564c36.386,67.408,124.4,78.971,124.4,78.971l65.619,110.226-7.431,4.1a11.362,11.362,0,0,0,1.441,20.581,47.377,47.377,0,0,0,25.244,2.174,21.806,21.806,0,0,0,17.873-19.789c1.547-20,1.539-78.8,22.048-108.455,41.34-59.777,63.834-143.569,29.911-215.927" transform="translate(-3.6 -19.806)" fill="#a35900"></path><path id="Tracciato_164" data-name="Tracciato 164" d="M639.841,571.457q-20.7,4.14-41.383,8.4-31.426,6.482-62.783,13.3c17.388,14.476,32.058,1.778,60.464,14.023l74.122,127.978-7.43,4.1a11.361,11.361,0,0,0,1.441,20.581A47.377,47.377,0,0,0,689.516,762a21.808,21.808,0,0,0,17.873-19.789c2.214-28.63,5.184-94.478-9.521-137.435Z" transform="translate(-181.36 -193.475)" fill="#a35900"></path><path id="Tracciato_165" data-name="Tracciato 165" d="M674.174,765.455a52.529,52.529,0,0,1-18.433-3.336,17.117,17.117,0,0,1-2.212-31.016l2.283-1.258-70.2-121.21c-11.639-4.682-20.524-4.824-29.131-4.963-10.466-.169-20.35-.329-31.009-9.2l-9.06-7.542,11.52-2.505c20.424-4.443,41.568-8.921,62.844-13.309,13.173-2.717,27.108-5.545,41.417-8.407l2.12-.423,61.781,35.479.7,2.048c6.571,19.2,10.411,44.688,11.412,75.769a600.775,600.775,0,0,1-1.6,63.974,27.57,27.57,0,0,1-22.593,25.01,55.491,55.491,0,0,1-9.838.891M548.226,591.818c2.614.248,5.389.293,8.438.342,9.2.149,20.641.334,35.231,6.623l1.748.754L671.666,734.25l-12.579,6.935a5.572,5.572,0,0,0-2.9,5.367,5.451,5.451,0,0,0,3.568,4.779,41.681,41.681,0,0,0,22.216,1.9,16.057,16.057,0,0,0,13.153-14.567c2.019-26.109,5.159-90.709-8.55-133.091l-54.25-31.156c-13.543,2.713-26.729,5.391-39.228,7.969-15.1,3.113-30.122,6.272-44.872,9.43" transform="translate(-174.837 -190.369)"></path><path id="Tracciato_166" data-name="Tracciato 166" d="M181.2,185.453a50.141,50.141,0,1,1-53.842-46.144A50.141,50.141,0,0,1,181.2,185.453" transform="translate(-27.444 -47.114)" fill="#fff"></path><path id="Tracciato_167" data-name="Tracciato 167" d="M128.859,241.6a54.6,54.6,0,1,1,4.274-.165q-2.144.165-4.274.165m.159-100.289q-1.785,0-3.583.138a45.613,45.613,0,1,0,3.583-.138" transform="translate(-25.186 -44.855)"></path><path id="Tracciato_168" data-name="Tracciato 168" d="M330.337,125.693a4.973,4.973,0,0,1-3.557-1.49,45.5,45.5,0,0,0-52.473-8.113,4.989,4.989,0,1,1-4.685-8.809c20.735-11.027,47.763-6.853,64.27,9.925a4.988,4.988,0,0,1-3.555,8.487" transform="translate(-90.388 -34.246)"></path><path id="Tracciato_169" data-name="Tracciato 169" d="M188.195,116.815a5.74,5.74,0,0,1-4.1-1.719A47.782,47.782,0,0,0,129,106.578,5.756,5.756,0,0,1,123.6,96.414c22.163-11.787,51.054-7.325,68.7,10.608a5.756,5.756,0,0,1-4.1,9.793" transform="translate(-40.812 -30.424)"></path><path id="Tracciato_170" data-name="Tracciato 170" d="M314.276,437.78a3.839,3.839,0,0,1-3.488-5.432,22.014,22.014,0,0,0-.707-19.832,3.837,3.837,0,1,1,6.649-3.832,29.805,29.805,0,0,1,1.039,26.851,3.838,3.838,0,0,1-3.493,2.245" transform="translate(-104.808 -137.715)"></path><path id="Tracciato_171" data-name="Tracciato 171" d="M165.529,212.656a19.64,19.64,0,1,1-21.089-18.074,19.639,19.639,0,0,1,21.089,18.074" transform="translate(-42.763 -65.858)"></path><path id="Tracciato_172" data-name="Tracciato 172" d="M205.145,391.923c-.067,0-.134,0-.2,0-14.076-.538-22.5-.619-30.648-.7-9.2-.088-17.889-.171-33.771-.87l-.053,0q-4.349-.235-8.728-.455c-29.335-1.5-59.669-3.047-86.874-13.923-3.647-1.43-36.122-14.692-43.452-35.747a24.325,24.325,0,0,1,2.107-20.779l.181-.289c13.428-19.933,51.839-24.55,79.563-26.289l.125-.006c49.208-1.9,92.534,4.242,142.448,14.049a5.18,5.18,0,1,1-2,10.166c-49.18-9.662-91.81-15.718-139.99-13.864-10.527.661-26.133,1.933-40.317,5.315C27.692,312.3,17.215,317.781,12.395,324.8A13.857,13.857,0,0,0,11.2,336.817c2.879,8.267,15.835,21.031,37.482,29.521,25.638,10.25,55.1,11.754,83.588,13.21q4.382.223,8.736.455c15.685.69,24.284.773,33.387.86,8.22.079,16.72.16,30.944.7a5.18,5.18,0,0,1-.194,10.357" transform="translate(0 -99.035)"></path><path id="Tracciato_173" data-name="Tracciato 173" d="M62.985,307.482l-.423-1.646L55.5,299.7l-2.525.412C28.343,304.13,12.8,311.384,5.451,322.289l-.191.3a23.588,23.588,0,0,0-2.041,20.149c7.028,20.188,38.022,32.847,41.5,34.211,3.26,1.3,6.712,2.518,10.261,3.61l4.914,1.513,1.8-4.816c11.266-30.115,1.7-68.174,1.291-69.78" transform="translate(-0.624 -101.468)"></path><path id="Tracciato_174" data-name="Tracciato 174" d="M1390.23,625.033a51.954,51.954,0,0,1-18.234-3.3,16.541,16.541,0,0,1-2.134-29.972l2.74-1.511-61.631-103.527a218.231,218.231,0,0,1-50.485-15.539,179.4,179.4,0,0,1-43.79-27.159,133.644,133.644,0,0,1-35.54-46.761l9.447-4.255a123.329,123.329,0,0,0,32.7,43.03,168.8,168.8,0,0,0,41.131,25.559,204.874,204.874,0,0,0,50.421,15.241l2.487.329,1.286,2.156,68.358,114.827-12.12,6.681a6.084,6.084,0,0,0-3.193,5.914,5.963,5.963,0,0,0,3.941,5.276,42.252,42.252,0,0,0,22.519,1.931,16.632,16.632,0,0,0,13.625-15.09c.212-2.732.4-6.262.61-10.351,1.351-25.838,3.865-73.933,22.342-100.651,21.578-31.2,36.218-66.192,42.337-101.191a199.454,199.454,0,0,0,2.135-55.383,169.567,169.567,0,0,0-14.99-54.207,162.951,162.951,0,0,0-27.909-41.762,164.825,164.825,0,0,0-36.66-29.413c-24.547-14.615-54.617-24.8-91.927-31.146-99.186-16.862-201.331-11.487-300.113-6.29-34.047,1.791-69.253,3.644-103.817,4.557-42.13,1.114-86.012-1.851-128.448-4.719-60.128-4.063-122.3-8.265-180.889-1.012-4.126.511-7.87,1.018-11.492,1.508-27.176,3.68-40.817,5.527-70.629-11.708-12.218-7.063-26.329-17.265-41.268-28.065-17.084-12.35-34.749-25.12-49.056-32.591C401.52,85.757,382.9,77.77,365.051,72.022c-21.063-6.783-40.64-10.356-59.85-10.922-23.62-.7-46.345,3.542-65.714,12.256a106.337,106.337,0,0,0-27.345,17.506,88.428,88.428,0,0,0-19.932,25.721l-9.224-4.717c10.624-20.774,28.692-37.358,52.251-47.957,20.791-9.354,45.093-13.906,70.27-13.164,20.2.6,40.716,4.33,62.721,11.416,18.412,5.93,37.563,14.139,58.549,25.1,14.972,7.818,32.947,20.813,50.33,33.379,14.72,10.641,28.623,20.692,40.384,27.491,26.747,15.462,37.668,13.983,64.054,10.411,3.65-.494,7.425-1.005,11.609-1.523,59.57-7.375,122.247-3.139,182.861.957,42.2,2.851,85.833,5.8,127.476,4.7,34.428-.91,69.565-2.759,103.546-4.547,99.347-5.227,202.075-10.632,302.394,6.423,38.592,6.56,69.827,17.177,95.491,32.457a175.153,175.153,0,0,1,38.958,31.271,173.309,173.309,0,0,1,29.693,44.409,179.893,179.893,0,0,1,15.911,57.509,209.78,209.78,0,0,1-2.231,58.263c-6.376,36.463-21.6,72.876-44.021,105.3-16.806,24.3-19.22,70.487-20.518,95.3-.217,4.157-.4,7.747-.626,10.609a26.994,26.994,0,0,1-22.121,24.488,54.9,54.9,0,0,1-9.734.882" transform="translate(-61.952 -17.154)"></path><path id="Tracciato_175" data-name="Tracciato 175" d="M377.124,490.281c-19.519-2.426-43.679-6.273-69.258-10.346-30.189-4.807-61.405-9.777-85.712-12.467l-.23-.03c-.89-.138-4.025-.362-7.056-.58-15.64-1.123-23.2-1.929-26.42-3.712a27.055,27.055,0,0,1-13.7-19.941,34.269,34.269,0,0,1,.464-9.965l10.609,1.7a24.641,24.641,0,0,0-.416,6.89l.011.091a16.23,16.23,0,0,0,8.137,11.769c2.742,1.061,16.283,2.033,22.086,2.45,4.2.3,6.509.472,7.8.66,24.547,2.72,55.847,7.7,86.118,12.524,25.485,4.058,49.557,7.89,68.894,10.294Z" transform="translate(-59.096 -146.679)"></path><path id="Tracciato_176" data-name="Tracciato 176" d="M594.519,543.088c33.511,74.388,128.294,86.839,128.294,86.839l65.619,110.226-7.43,4.1a11.361,11.361,0,0,0,1.441,20.581A47.376,47.376,0,0,0,807.686,767a21.808,21.808,0,0,0,17.873-19.789c1.547-20,3.462-81.19-.537-117.025L752.5,487.664Z" transform="translate(-201.283 -165.105)" fill="#a35900"></path><path id="Tracciato_177" data-name="Tracciato 177" d="M794.862,769.927a52.522,52.522,0,0,1-18.434-3.337,17.117,17.117,0,0,1-2.211-31.016l2.22-1.224-61.19-102.786a219.252,219.252,0,0,1-50.36-15.536,180,180,0,0,1-43.931-27.248,134.219,134.219,0,0,1-35.691-46.962l-2.576-5.719,168.65-59.167,75.282,147.947.116,1.04c4.076,36.526,2.076,98.441.555,118.106a27.57,27.57,0,0,1-22.593,25.01,55.508,55.508,0,0,1-9.838.892M598.5,542.752a124.046,124.046,0,0,0,29.794,37.156,168.22,168.22,0,0,0,40.975,25.469,204.311,204.311,0,0,0,50.292,15.209l2.763.367,1.429,2.4,68.662,115.339-12.641,6.969a5.572,5.572,0,0,0-2.9,5.368,5.45,5.45,0,0,0,3.567,4.779,41.681,41.681,0,0,0,22.216,1.9,16.056,16.056,0,0,0,13.153-14.568c1.482-19.161,3.434-79.024-.406-114.908l-69.762-137.1Z" transform="translate(-197.278 -161.472)"></path><path id="Tracciato_178" data-name="Tracciato 178" d="M396.568,580.029c-6.35-28.309-8.866-56.509-9.668-84.651-1.234-.343-2.469-.679-3.7-1.027-19.38-5.471-46.857.167-65.788-6.689,1.621,14.846,3.779,29.569,6.714,44.113,15.465,73.589,49.612,93.59,79.179,71.206a212.976,212.976,0,0,1-6.735-22.952" transform="translate(-107.464 -165.105)"></path><path id="Tracciato_179" data-name="Tracciato 179" d="M423.673,1.659c-37.234-13.745-15.209,62.029-13.3,76.612,4.03,19.62,7.849,39.982,10.271,59.71,13.026,92.336-7.388,184.05,13.45,276.943C463.063,537.988,567.056,541.3,612.616,443.58c31.922-69.055,11.473-153.409-22.5-231.968-22.219-51.19-56.277-101.986-96.429-148.533a469.578,469.578,0,0,0-32.639-34.4C449.955,18,432.6,4.438,423.7,1.67Z" transform="translate(-136.162 0)"></path><path id="Tracciato_180" data-name="Tracciato 180" d="M326.55,41.2c7.466-.953,14.973-1.576,22.491-1.913q11.43-.513,22.878-.161,4.333.131,8.66.382-5.363-5.472-11.019-10.823C358.47,18,341.112,4.438,332.216,1.67l-.028-.011C309.1-6.866,308.8,19.046,312.357,43.435Q319.416,42.1,326.55,41.2" transform="translate(-105.188 0)"></path><path id="Tracciato_181" data-name="Tracciato 181" d="M321.461,198.675a50.141,50.141,0,1,1-53.842-46.144,50.142,50.142,0,0,1,53.842,46.144" transform="translate(-74.933 -51.591)" fill="#fff"></path><path id="Tracciato_182" data-name="Tracciato 182" d="M269.465,254.54a54,54,0,1,1,4.182-.161c-1.4.108-2.8.161-4.182.161m.071-100.286q-1.783,0-3.588.138a46.282,46.282,0,1,0,3.588-.138" transform="translate(-72.968 -49.626)"></path><path id="Tracciato_183" data-name="Tracciato 183" d="M314.167,207.794a24.051,24.051,0,1,1-25.826-22.134,24.051,24.051,0,0,1,25.826,22.134" transform="translate(-90.104 -62.833)"></path><path id="Tracciato_184" data-name="Tracciato 184" d="M1504.588,231.117a64.459,64.459,0,0,1-33.533-9.855c-5.49-3.336-10.424-6.94-15.2-10.426-1.411-1.031-2.819-2.059-4.232-3.072-5.148-3.689-10.475-7.571-16.289-11.868-7.112-5.256-14.6-10.4-21.069-10.478h-.153c-6.092,0-13.309,4.576-20.208,9.53-3.2,2.3-6.35,4.641-9.689,7.122-8.192,6.09-16.663,12.387-25.9,17.992a65.3,65.3,0,0,1-33.862,9.888,57.806,57.806,0,0,1-25.895-6.1c-8.4-4.184-14.961-9.753-20.958-15.1q-4.1-3.65-8.18-7.318-4.337-3.887-8.681-7.765c-4.556-4.057-10.581-9.386-16.788-14.634a29.509,29.509,0,0,0-9.664-5.8c-5.639-1.853-11.7-.539-18.013,3.906-7.942,5.593-15.591,11.651-23.69,18.064-3.261,2.582-6.633,5.252-10.005,7.872a84,84,0,0,1-24.028,13.541,57.987,57.987,0,0,1-31.916,2.025c-16.193-3.575-28.522-13.58-38.427-21.619-2-1.621-3.884-3.152-5.713-4.565q-2.877-2.222-5.735-4.471c-3.967-3.107-7.714-6.041-11.531-8.851-3.374-2.482-7.326-5.172-11.055-6.3-7.218-2.177-14.245,1.892-18.87,5.688-7.964,6.539-15.585,13.469-23.653,20.807-2.793,2.54-5.68,5.166-8.556,7.749l-.5.452c-5.616,5.046-11.981,10.766-20.2,15.112a61.945,61.945,0,0,1-26.934,7.179c-.569.017-1.136.025-1.7.025-20.921,0-36.73-11.566-47.287-19.288-5.587-4.086-11.379-8.21-16.979-12.2l-1.156-.823q-.923-.657-1.845-1.319c-4.348-3.113-8.453-6.053-12.256-7.8-5.9-2.714-12.4-2.116-18.312,1.686a102.811,102.811,0,0,0-10.374,8.156q-1.543,1.317-3.091,2.623a21.105,21.105,0,1,1-27.143-32.326q1.423-1.195,2.836-2.407A137.808,137.808,0,0,1,833.093,154.6c17.927-11.527,39.905-13.217,58.791-4.525,7.458,3.433,13.685,7.892,19.18,11.826q.877.628,1.753,1.253l1.154.822c5.709,4.065,11.613,8.267,17.42,12.515,9.091,6.65,16.046,11.346,22.8,11.14a19.521,19.521,0,0,0,8.466-2.305c3.613-1.91,7.549-5.446,11.715-9.191l.512-.46c2.777-2.494,5.616-5.076,8.361-7.572,8.1-7.368,16.478-14.987,25.269-22.2a70.355,70.355,0,0,1,25.765-13.731,56.744,56.744,0,0,1,32.083.255c9.924,2.994,17.975,8.366,23.879,12.711,4.328,3.185,8.5,6.454,12.539,9.615q2.753,2.157,5.515,4.3c2.23,1.722,4.4,3.486,6.506,5.193,7.448,6.044,14.483,11.754,20.928,13.176,4.01.886,10.016.813,20.946-7.68,3.219-2.5,6.514-5.11,9.7-7.633,8.2-6.493,16.679-13.207,25.59-19.483,17.315-12.193,37.023-15.565,55.494-9.5a70.625,70.625,0,0,1,23.742,13.665c6.572,5.557,12.86,11.118,17.6,15.342q4.4,3.919,8.785,7.859,4.042,3.622,8.091,7.237c4.025,3.588,7.946,6.962,11.688,8.825,7.081,3.526,14.27.81,19.053-2.091,7.541-4.573,14.86-10.014,22.609-15.775,3.328-2.475,6.771-5.034,10.251-7.533,12.041-8.648,26.764-17.455,44.814-17.455.234,0,.466,0,.7,0,20.624.261,36.888,12.282,45.625,18.74,5.646,4.174,10.81,7.937,15.788,11.5,1.516,1.087,3.027,2.19,4.54,3.3,4.247,3.1,8.259,6.033,12.218,8.439,6.266,3.809,12.138,4.677,17.449,2.582,6.321-2.494,12.777-7.686,19.612-13.182,1.456-1.171,2.961-2.382,4.482-3.579a21.105,21.105,0,0,1,26.114,33.164c-1.351,1.064-2.707,2.154-4.143,3.309-8.573,6.893-18.289,14.708-30.575,19.554a57.888,57.888,0,0,1-21.327,4.08" transform="translate(-273.485 -44.009)" fill="red"></path><path id="Tracciato_185" data-name="Tracciato 185" d="M1501.642,233.926a70.65,70.65,0,0,1-36.523-10.692c-5.7-3.463-10.733-7.141-15.6-10.7l-.069-.052c-1.373-1-2.744-2-4.121-2.991-5.172-3.707-10.522-7.606-16.356-11.917-4.7-3.473-12.563-9.286-17.721-9.351h-.08c-5.085,0-13.329,5.921-16.849,8.449-3.145,2.258-6.265,4.577-9.568,7.032l-.045.034c-8.3,6.173-16.882,12.551-26.352,18.294a71.345,71.345,0,0,1-36.847,10.723,63.3,63.3,0,0,1-28.462-6.708c-9.038-4.5-15.933-10.349-22.222-15.953q-4.059-3.617-8.107-7.253l-.247-.222q-4.249-3.809-8.5-7.607c-4.534-4.037-10.527-9.337-16.676-14.537a24.01,24.01,0,0,0-7.745-4.723c-3.871-1.273-8.091-.244-12.9,3.144-7.81,5.5-15.4,11.509-23.431,17.87-3.277,2.595-6.657,5.272-10.047,7.905a89.6,89.6,0,0,1-25.676,14.435,63.658,63.658,0,0,1-35.041,2.207c-17.523-3.869-30.437-14.349-40.814-22.771-1.965-1.594-3.82-3.1-5.6-4.479q-2.891-2.234-5.765-4.494c-3.94-3.085-7.649-5.99-11.395-8.746-2.8-2.064-6.4-4.545-9.306-5.423-4.789-1.445-10.014,1.719-13.555,4.626-7.856,6.45-15.422,13.331-23.433,20.617l-.172.156c-2.744,2.495-5.581,5.075-8.41,7.616l-.5.452c-5.864,5.269-12.51,11.24-21.36,15.919a67.729,67.729,0,0,1-29.452,7.844c-.624.019-1.253.028-1.869.028-22.8,0-39.578-12.274-50.681-20.4-5.575-4.077-11.344-8.184-16.924-12.157l-1.156-.823q-.93-.662-1.859-1.329c-4.117-2.948-8.006-5.733-11.311-7.254-4.107-1.89-8.531-1.441-12.792,1.3a99,99,0,0,0-9.751,7.693c-1.052.9-2.086,1.779-3.126,2.652a26.861,26.861,0,0,1-34.547-41.142c.919-.771,1.833-1.551,2.746-2.331l.055-.046a142.413,142.413,0,0,1,15.568-12.014c19.588-12.6,43.628-14.431,64.31-4.912,7.954,3.662,14.418,8.29,20.122,12.373q.876.628,1.744,1.247l1.154.822c5.712,4.066,11.619,8.271,17.48,12.557,7.765,5.68,14.112,10.036,18.986,10.036.082,0,.163,0,.245,0a13.735,13.735,0,0,0,5.952-1.64c2.986-1.578,6.664-4.883,10.558-8.383l.513-.461c2.763-2.482,5.593-5.055,8.331-7.545,8.156-7.418,16.586-15.085,25.492-22.4a76.084,76.084,0,0,1,27.876-14.827,62.412,62.412,0,0,1,35.289.289c10.766,3.248,19.351,8.967,25.628,13.586,4.389,3.23,8.592,6.521,12.657,9.7,1.845,1.446,3.671,2.875,5.5,4.293,2.289,1.768,4.488,3.553,6.614,5.278,6.6,5.358,13.427,10.9,18.543,12.025,1.635.362,5.975,1.32,16.173-6.6,3.222-2.5,6.494-5.094,9.658-7.6,8.269-6.548,16.81-13.31,25.849-19.676,18.839-13.267,40.361-16.91,60.605-10.258a76.24,76.24,0,0,1,25.66,14.737c6.627,5.6,12.948,11.194,17.715,15.439q4.409,3.926,8.8,7.871l.444.4q3.814,3.418,7.634,6.829c3.722,3.317,7.319,6.423,10.425,7.97,3.8,1.893,8.345,1.267,13.5-1.861,7.311-4.434,14.524-9.8,22.159-15.473,3.338-2.482,6.79-5.048,10.328-7.589,12.931-9.287,28.865-18.782,48.946-18.531,22.48.284,39.715,13.023,48.973,19.867,5.618,4.152,10.76,7.9,15.721,11.455,1.519,1.088,3.033,2.195,4.55,3.3l.031.022c4.145,3.028,8.06,5.888,11.813,8.168,4.713,2.863,8.751,3.565,12.347,2.146,5.508-2.173,11.634-7.1,18.118-12.313,1.466-1.179,2.981-2.4,4.528-3.616a26.862,26.862,0,0,1,33.235,42.209c-1.31,1.031-2.637,2.1-4.042,3.228l-.054.044c-8.892,7.151-18.971,15.255-32.07,20.423a63.608,63.608,0,0,1-23.439,4.483m-90.472-57.212h.217c8.193.1,16.56,5.79,24.427,11.6,5.788,4.279,11.093,8.144,16.22,11.819,1.4,1.006,2.8,2.028,4.2,3.051l.069.051c4.675,3.415,9.509,6.946,14.79,10.156,9.847,5.983,20.124,9.017,30.544,9.017a52.149,52.149,0,0,0,19.214-3.679c11.473-4.526,20.827-12.048,29.079-18.685l.055-.044c1.429-1.149,2.778-2.234,4.135-3.3a15.349,15.349,0,1,0-18.992-24.119c-1.5,1.181-2.992,2.381-4.435,3.541-7.186,5.779-13.973,11.237-21.108,14.052-4.863,1.919-12.725,2.955-22.55-3.017-4.17-2.533-8.276-5.534-12.624-8.71-1.518-1.109-3.005-2.2-4.5-3.264-5.008-3.589-10.195-7.368-15.857-11.555-8.216-6.073-23.508-17.376-42.276-17.613-.212,0-.42,0-.63,0-16.437,0-30.18,8.277-41.455,16.374-3.461,2.486-6.874,5.023-10.175,7.478-7.86,5.843-15.284,11.362-23.058,16.077-8.507,5.161-17.246,5.986-24.6,2.322-4.379-2.181-8.626-5.823-12.953-9.68q-3.835-3.417-7.657-6.85l-.445-.4q-4.381-3.929-8.772-7.846c-4.716-4.2-10.966-9.727-17.492-15.246a65,65,0,0,0-21.822-12.592c-16.7-5.487-34.593-2.385-50.383,8.734-8.775,6.18-17.187,12.84-25.321,19.282-3.195,2.53-6.488,5.138-9.752,7.674-10,7.774-17.936,10.474-25.719,8.754s-15.321-7.841-23.311-14.325c-2.076-1.685-4.221-3.425-6.4-5.109q-2.782-2.15-5.545-4.323c-4.017-3.146-8.151-6.383-12.4-9.511-5.533-4.07-13.048-9.1-22.13-11.836a51.072,51.072,0,0,0-28.877-.22,64.665,64.665,0,0,0-23.657,12.634c-8.68,7.127-17,14.694-25.047,22.013-2.754,2.5-5.6,5.091-8.387,7.6l-.512.46c-4.438,3.988-8.63,7.755-12.872,10a25.3,25.3,0,0,1-10.984,2.97c-.208.006-.417.009-.624.009-8.339,0-15.966-5.1-25.752-12.258-5.8-4.242-11.676-8.425-17.359-12.471l-1.154-.822q-.885-.629-1.767-1.263c-5.287-3.785-11.277-8.075-18.234-11.277a55.343,55.343,0,0,0-53.271,4.138,133.274,133.274,0,0,0-14.32,11.088l-.055.047q-1.407,1.2-2.816,2.39a15.349,15.349,0,0,0,19.741,23.509q1.525-1.28,3.039-2.579a106.729,106.729,0,0,1,11.015-8.633c7.512-4.831,16.2-5.587,23.832-2.074,4.3,1.98,8.623,5.075,13.2,8.351q.918.658,1.833,1.311l1.156.823c5.609,3.993,11.409,8.122,17.039,12.24,10.491,7.673,24.852,18.179,43.89,18.178.5,0,1.015-.007,1.527-.023a56.151,56.151,0,0,0,24.414-6.514c7.593-4.014,13.677-9.481,19.045-14.3l.5-.453c2.8-2.518,5.627-5.086,8.358-7.569l.172-.157c8.121-7.386,15.792-14.362,23.873-21,8.185-6.72,16.548-9.054,24.185-6.751,4.567,1.378,9.035,4.4,12.8,7.172,3.884,2.858,7.66,5.815,11.658,8.946,1.91,1.5,3.809,2.982,5.716,4.456s3.8,3.012,5.821,4.651c9.435,7.657,21.176,17.186,36.041,20.467a52.31,52.31,0,0,0,28.79-1.843,78.381,78.381,0,0,0,22.381-12.647c3.349-2.6,6.708-5.262,9.956-7.834,8.172-6.471,15.884-12.577,23.957-18.264,9.818-6.913,17.994-6.354,23.124-4.668a35.06,35.06,0,0,1,11.585,6.87c6.249,5.284,12.314,10.647,16.9,14.73q4.276,3.807,8.534,7.632l.247.222q4.038,3.619,8.083,7.231c5.706,5.086,11.926,10.375,19.694,14.243a51.887,51.887,0,0,0,23.329,5.5,59.852,59.852,0,0,0,30.877-9.054c9.007-5.463,17.365-11.676,25.448-17.685l.052-.038c3.342-2.485,6.5-4.832,9.72-7.145,7.674-5.511,15.84-10.611,23.565-10.611" transform="translate(-270.538 -41.061)"></path><path id="Tracciato_186" data-name="Tracciato 186" d="M1523.118,305.678c-34.8.735-65.127-26.809-100.5-24.159-41.519,3-71.208,35.173-115.344,17.156-26.372-10.268-49.669-32.836-79.313-32.27-11.291.157-22.3,3.555-32.807,7.608-21.395,8.325-43.05,19.72-66.489,16.844-14.341-1.5-27.885-7.469-41.115-13.014-28.56-12.481-48.942-17.169-77.848-2.181-22.316,11.092-44.412,27.792-70.42,27.94-23.981.323-46.479-11.874-69.445-18.252-10.1-3.052-20.605-5.686-30.56-8.682-9.5-2.89-20.137-6.483-26.583-12.636-13.009-12.884,3.439-30.925,17.049-36.774,35.388-15.253,69.109,14.955,104.388,15.581,29.374.95,52.679-20.465,78.387-31.544,42.424-18.77,67.773,6.4,105.838,17.517,18.993,5.268,35.6,1.551,53.363-5.887,29.175-12.48,52.522-25.887,84.871-13.359,25.936,9.859,49.014,31.625,77.385,33.17,31.765,1.564,60.271-20.96,92.089-21.257,28.485-.64,53.732,16.221,80.824,22.739,6.717,1.775,13.552,3.2,20.27,4.544,12.489,2.842,33.451,5.454,39.94,15.724,2.991,4.942,1.723,11.15-.764,16.119-7.472,15.15-25.564,24.869-43.145,25.071Z" transform="translate(-273.543 -69.252)" fill="#0fd827"></path><path id="Tracciato_187" data-name="Tracciato 187" d="M1518.8,308.484c-17.392,0-33.5-6.376-49.1-12.549-16.78-6.64-32.634-12.912-49.605-11.641-14.822,1.072-28.482,6.229-41.692,11.215-14.934,5.637-30.2,11.4-47.206,11.4a75.783,75.783,0,0,1-29.011-5.854c-9.465-3.691-18.513-8.875-27.263-13.889-16.436-9.418-31.961-18.315-49.805-17.972-11.084.154-21.811,3.738-30.846,7.223-3.459,1.346-7.034,2.819-10.491,4.243-18.518,7.628-37.665,15.516-58.718,12.951-14.354-1.513-27.615-7.088-40.441-12.479l-2.332-.98c-28.463-12.438-46.631-15.961-72.893-2.345l-.088.045c-5.106,2.538-10.136,5.34-15.462,8.308-17.739,9.885-36.083,20.105-57.467,20.233-17.471.23-33.939-5.692-49.86-11.42-6.963-2.5-14.162-5.094-21.177-7.042l-.124-.036c-5.056-1.528-10.325-2.98-15.421-4.383-5-1.377-10.163-2.8-15.133-4.3-10.124-3.078-21.526-6.946-28.9-13.983l-.077-.075c-5.3-5.247-7.394-11.736-6.061-18.765,2.262-11.928,14.232-22.806,24.889-27.386,23.462-10.113,45.728-2.195,67.26,5.463,13.623,4.844,26.49,9.42,39.5,9.652l.084,0c18.571.6,34.682-8.626,51.73-18.4,7.795-4.467,15.855-9.085,24.161-12.668,33.012-14.6,56.418-4.44,81.2,6.313,9.035,3.92,18.376,7.974,28.521,10.939,15.409,4.266,29.771,2.628,49.551-5.652,3.017-1.29,6.009-2.608,8.9-3.883,25.252-11.118,49.1-21.618,80.287-9.543,9.934,3.777,19.456,9.226,28.664,14.5,15.628,8.944,30.389,17.392,46.955,18.295,15.29.751,29.944-4.574,45.455-10.215,14.725-5.354,29.952-10.891,46.232-11.051,19.077-.417,36.5,6.421,53.371,13.035,9.886,3.877,19.225,7.538,28.887,9.863l.124.031c6.756,1.785,13.831,3.241,19.932,4.465l.146.031c1.878.427,3.99.857,6.228,1.312,13.592,2.763,30.508,6.2,37.3,16.95l.059.095c3.586,5.925,3.388,13.825-.542,21.676-4.1,8.312-11.049,15.435-20.084,20.569a59.341,59.341,0,0,1-28.089,7.68l-.068,0c-.5.011-.994.016-1.489.016m-94.284-35.866c17.551,0,33.728,6.4,49.422,12.614,15.66,6.2,30.434,12.051,46.086,11.728l.149,0c16.146-.185,31.793-9.175,38.048-21.861,1.015-2.028,3.108-7.037,1.031-10.545-4.211-6.563-19.625-9.7-29.833-11.772-2.277-.463-4.428-.9-6.417-1.352-6.231-1.25-13.454-2.739-20.474-4.591-10.412-2.511-20.54-6.482-30.335-10.322-16.552-6.49-32.187-12.621-48.952-12.243h-.075c-14.322.134-27.979,5.1-42.44,10.359-15.9,5.782-32.34,11.76-49.985,10.892-19.321-1.052-35.973-10.583-52.077-19.8-9.229-5.282-17.946-10.271-27.07-13.739-26.779-10.37-46.525-1.677-71.524,9.33-2.929,1.29-5.958,2.623-9.038,3.941l-.04.017c-15.607,6.534-34.6,12.372-57.126,6.124l-.075-.021c-10.853-3.169-20.545-7.374-29.917-11.441-11.759-5.1-22.866-9.922-34.446-11.778-12.638-2.025-24.564-.3-37.532,5.44l-.051.023c-7.717,3.326-15.152,7.587-23.025,12.1-17.121,9.811-34.809,19.946-55.733,19.947-.683,0-1.367-.011-2.057-.032-14.878-.274-29.228-5.379-43.108-10.315-20.332-7.231-39.537-14.06-58.851-5.735-7.614,3.273-16.707,11.449-18.13,18.957a8.794,8.794,0,0,0,2.815,8.4c5.554,5.271,15.425,8.574,24.246,11.256,4.825,1.453,9.925,2.858,14.858,4.217,5.141,1.417,10.457,2.882,15.627,4.443,7.407,2.06,14.791,4.716,21.933,7.285,15.652,5.63,30.454,10.948,45.835,10.741h.045c18.436-.1,35.472-9.6,51.948-18.777,5.193-2.893,10.562-5.885,15.9-8.538,14.808-7.671,28.173-10.791,42.061-9.82,14.173.991,27.915,6.274,40.656,11.84l2.224.934c12.068,5.073,24.548,10.319,37.228,11.648l.1.012c18.078,2.216,35.821-5.093,52.984-12.163,3.508-1.445,7.136-2.939,10.717-4.333,9.418-3.633,21.87-7.819,34.815-8,21-.4,38.648,9.712,55.719,19.494,8.784,5.033,17.081,9.787,25.763,13.167l.087.035a63.914,63.914,0,0,0,34.833,4.258c11.13-1.641,21.757-5.653,33.008-9.9,13.979-5.278,28.436-10.734,44.913-11.926q2.652-.2,5.264-.2" transform="translate(-270.594 -66.288)"></path><path id="Tracciato_188" data-name="Tracciato 188" d="M1424.676,261.6c-50.3-4.342-103.331.148-150.69.206-96.063.118-247.059-3.738-343.359-.652-96.576,3.095-207.639,33.506-231.8,126.5-15.556,59.877,18.856,136.7,79.16,169.248,62.868,33.926,141.53,22.578,211.294,22.708,87.148.163,228.995,2.064,316.623,2.705,127.858.936,299.159-18.6,299.159-161.074,0-49.469-27.814-100.13-74.17-128.647-31.376-19.3-68.01-27.7-106.218-30.994" transform="translate(-235.335 -87.929)" fill="#fcd575"></path><path id="Tracciato_189" data-name="Tracciato 189" d="M1311.321,585.157q-4.172,0-8.409-.031c-32.768-.239-72.876-.653-115.339-1.091-72.126-.744-146.709-1.513-201.253-1.615-13.861-.027-27.813.4-42.573.843-58.9,1.783-119.8,3.629-171.443-24.242-30.031-16.206-55.075-43.562-70.521-77.028A166.47,166.47,0,0,1,687.49,432.54a131.589,131.589,0,0,1,2.816-49.278,137.21,137.21,0,0,1,34.247-61.1c15.028-15.674,34.433-29.014,57.673-39.65,49.33-22.575,106.224-28.806,145.267-30.057,63-2.018,150.817-1.056,228.3-.207,42.132.462,81.926.9,115.236.857,15.419-.019,31.181-.5,47.869-1.014,34-1.042,69.153-2.12,103.322.829,21.153,1.826,39.7,4.993,56.706,9.681,19.555,5.391,36.575,12.635,52.033,22.144a164.1,164.1,0,0,1,56.456,58.523c13.381,23.527,20.454,49.47,20.454,75.027,0,39.9-13.166,73.2-39.132,98.975-14.144,14.04-32.341,26.056-54.086,35.713-19.277,8.56-41.86,15.494-67.121,20.61-38.373,7.771-83.006,11.563-136.209,11.563M985.144,570.908h1.2c54.592.1,129.2.871,201.35,1.615,42.454.438,82.553.851,115.3,1.091,56.13.41,102.659-3.287,142.249-11.3,51.5-10.429,90.32-28.331,115.382-53.21a117.4,117.4,0,0,0,26.164-38.828c6.348-15.46,9.566-32.947,9.566-51.977,0-23.564-6.553-47.54-18.949-69.335a152.548,152.548,0,0,0-52.481-54.41c-14.52-8.932-30.568-15.753-49.061-20.852-16.32-4.5-34.191-7.545-54.636-9.31-33.5-2.892-68.312-1.824-101.979-.792-16.775.515-32.62,1-48.208,1.02-33.383.04-73.209-.4-115.377-.858-77.366-.847-165.055-1.808-227.805.2-37.986,1.217-93.257,7.24-140.845,29.019-46.21,21.149-75,52.5-85.568,93.176a120.148,120.148,0,0,0-2.533,44.98,155.006,155.006,0,0,0,13.32,46.033c14.409,31.219,37.683,56.69,65.536,71.721,48.924,26.4,108.251,24.6,165.628,22.867,13.8-.418,28.056-.85,41.746-.85" transform="translate(-232.385 -84.982)"></path><path id="Tracciato_190" data-name="Tracciato 190" d="M1850.18,492.142c.251,1.175-.53,2.411-3.01,3.625-6.089,2.978-22.962,8.542-22.962-3.715a7.62,7.62,0,0,1,7.024-7.618,21.013,21.013,0,0,1,7.813,1.193c2.945.84,10.485,3.479,11.135,6.516" transform="translate(-617.611 -163.992)" fill="#fff"></path><path id="Tracciato_191" data-name="Tracciato 191" d="M1831.565,500.582a11.988,11.988,0,0,1-6.385-1.558c-1.767-1.1-3.873-3.378-3.873-7.955a9.512,9.512,0,0,1,8.747-9.527,22.662,22.662,0,0,1,8.536,1.256c3.453.986,11.579,3.734,12.484,7.96.333,1.557-.1,3.819-4.043,5.75-.444.217-8.436,4.074-15.465,4.074m-.169-15.27a9.3,9.3,0,0,0-.952.047,5.731,5.731,0,0,0-5.3,5.71c0,2.294.676,3.831,2.067,4.7,4.033,2.516,13.262-.325,18.133-2.708,1.812-.886,1.978-1.482,1.98-1.487l0-.013c-.245-1.148-4.325-3.514-9.785-5.073a23.086,23.086,0,0,0-6.14-1.176" transform="translate(-616.629 -163.01)"></path><path id="Tracciato_192" data-name="Tracciato 192" d="M1607.845,444.1c.143.671-.3,1.375-1.717,2.067-3.472,1.7-13.094,4.872-13.094-2.119a4.345,4.345,0,0,1,4.006-4.345,11.993,11.993,0,0,1,4.456.681c1.679.479,5.979,1.984,6.35,3.716" transform="translate(-539.344 -148.858)" fill="#fff"></path><path id="Tracciato_193" data-name="Tracciato 193" d="M1596.83,449.322a7.68,7.68,0,0,1-4.1-1.017,5.737,5.737,0,0,1-2.6-5.236,6.236,6.236,0,0,1,5.729-6.253,13.575,13.575,0,0,1,5.178.743c2.624.749,7.113,2.415,7.7,5.16.206.962.122,2.787-2.75,4.192-.652.319-5.086,2.411-9.158,2.411m-.124-8.712a4.486,4.486,0,0,0-.456.023,2.428,2.428,0,0,0-2.282,2.437c0,1.486.575,1.845.791,1.98,1.709,1.068,6.284.009,9.542-1.585.137-.067.251-.128.345-.184a16.393,16.393,0,0,0-4.662-2.031,12.564,12.564,0,0,0-3.279-.639" transform="translate(-538.361 -147.875)"></path><path id="Tracciato_194" data-name="Tracciato 194" d="M1074.559,470.6c.568.368.748,1.171.244,2.641-1.237,3.609-5.739,12.54-10.618,7.66a4.287,4.287,0,0,1-.237-5.827,11.842,11.842,0,0,1,3.585-2.636c1.507-.837,5.558-2.788,7.026-1.838" transform="translate(-359.867 -159.243)" fill="#fff"></path><path id="Tracciato_195" data-name="Tracciato 195" d="M1066.138,483.275a6,6,0,0,1-4.3-1.986,6.181,6.181,0,0,1-.368-8.4,13.428,13.428,0,0,1,4.14-3.1c2.359-1.311,6.663-3.284,9-1.772.821.532,2.046,1.873,1.017,4.874-.318.925-3.246,9.074-8.3,10.244a5.292,5.292,0,0,1-1.193.138m5.965-11.957a16.352,16.352,0,0,0-4.625,1.828,10.4,10.4,0,0,0-3.029,2.17,2.372,2.372,0,0,0,.106,3.26c1.026,1.027,1.669.879,1.91.824,1.931-.447,4.377-4.371,5.535-7.75.043-.126.077-.236.1-.331" transform="translate(-358.88 -158.27)"></path><path id="Tracciato_196" data-name="Tracciato 196" d="M1234.2,441.389c-.209-.978.441-2.007,2.506-3.017,5.068-2.48,19.112-7.11,19.112,3.092a6.341,6.341,0,0,1-5.846,6.341,17.491,17.491,0,0,1-6.5-.993c-2.451-.7-8.727-2.9-9.268-5.424" transform="translate(-417.842 -147.325)" fill="#fff"></path><path id="Tracciato_197" data-name="Tracciato 197" d="M1248.03,448.792a22.122,22.122,0,0,1-6.074-1.114c-2.93-.836-9.829-3.179-10.618-6.868-.3-1.408.068-3.443,3.539-5.141.5-.245,12.308-5.942,18.5-2.078,1.54.96,3.375,2.937,3.375,6.894a8.235,8.235,0,0,1-7.569,8.249,11.285,11.285,0,0,1-1.152.058m-12.9-8.7c.466.926,3.82,2.736,7.882,3.895a15.971,15.971,0,0,0,5.782.929,4.4,4.4,0,0,0,4.123-4.434c0-2.658-1.181-3.4-1.569-3.638-3.074-1.918-10.494.173-14.781,2.27a4.115,4.115,0,0,0-1.437.978" transform="translate(-416.859 -146.345)"></path><path id="Tracciato_198" data-name="Tracciato 198" d="M1719.356,391.316c.4-.613,1.263-.808,2.851-.264,3.9,1.336,13.537,6.2,8.27,11.463a4.631,4.631,0,0,1-6.292.255,12.777,12.777,0,0,1-2.845-3.87c-.9-1.626-3.01-6-1.984-7.584" transform="translate(-582.019 -132.288)" fill="#fff"></path><path id="Tracciato_199" data-name="Tracciato 199" d="M1726.253,404.829A6.726,6.726,0,0,1,1722,403.28a14.369,14.369,0,0,1-3.311-4.426c-1.4-2.516-3.508-7.1-1.918-9.559h0c.55-.849,1.941-2.113,5.083-1.035a28.483,28.483,0,0,1,6.059,2.977c2.773,1.83,4.422,3.806,4.9,5.872a5.992,5.992,0,0,1-1.955,5.784,6.486,6.486,0,0,1-4.606,1.936m-6.229-13.106a16.549,16.549,0,0,0,2.019,5.267,11.314,11.314,0,0,0,2.379,3.314,2.71,2.71,0,0,0,3.724-.125c1.169-1.169.995-1.921.929-2.2-.495-2.135-4.779-4.821-8.466-6.085a4.885,4.885,0,0,0-.586-.167" transform="translate(-581.045 -131.31)"></path><path id="Tracciato_200" data-name="Tracciato 200" d="M1310.1,445.97c-.24-1.119.5-2.3,2.866-3.451,5.8-2.836,21.859-8.132,21.859,3.537a7.253,7.253,0,0,1-6.687,7.252,20.011,20.011,0,0,1-7.438-1.135c-2.8-.8-9.982-3.312-10.6-6.2" transform="translate(-443.539 -148.572)" fill="#fff"></path><path id="Tracciato_201" data-name="Tracciato 201" d="M1326.066,454.3a25.119,25.119,0,0,1-6.874-1.263c-3.3-.943-11.078-3.575-11.95-7.648-.324-1.515.089-3.711,3.9-5.575.566-.276,13.938-6.729,20.89-2.39,1.7,1.062,3.731,3.251,3.731,7.651a9.147,9.147,0,0,1-8.41,9.162,12.786,12.786,0,0,1-1.286.064M1311,444.6c.259,1.072,4.251,3.32,9.248,4.746a18.51,18.51,0,0,0,6.717,1.072,5.365,5.365,0,0,0,4.963-5.344c0-2.149-.63-3.587-1.925-4.4-1.689-1.054-4.572-1.2-8.339-.431a39.907,39.907,0,0,0-8.834,3.013c-1.5.735-1.789,1.25-1.83,1.339" transform="translate(-442.555 -147.589)"></path><path id="Tracciato_202" data-name="Tracciato 202" d="M1496.02,439.823c.841.544,1.107,1.731.362,3.905-1.83,5.336-8.487,18.542-15.7,11.328a6.341,6.341,0,0,1-.35-8.618,17.482,17.482,0,0,1,5.3-3.9c2.228-1.239,8.219-4.123,10.389-2.719" transform="translate(-500.672 -148.781)" fill="#fff"></path><path id="Tracciato_203" data-name="Tracciato 203" d="M1484.057,458.108a8,8,0,0,1-5.719-2.666,8.235,8.235,0,0,1-.481-11.186,19.144,19.144,0,0,1,5.856-4.362c2.662-1.48,9.2-4.7,12.364-2.652,1.209.783,2.387,2.483,1.134,6.138-.181.526-4.5,12.9-11.611,14.55a6.836,6.836,0,0,1-1.542.178m9.4-17.737c-1.388,0-4.617,1.064-7.876,2.877a15.99,15.99,0,0,0-4.746,3.432,4.4,4.4,0,0,0,.219,6.049c1.881,1.88,3.237,1.566,3.682,1.463,3.53-.818,7.3-7.542,8.847-12.057a4.106,4.106,0,0,0,.325-1.707,1.467,1.467,0,0,0-.451-.057" transform="translate(-499.686 -147.81)"></path><path id="Tracciato_204" data-name="Tracciato 204" d="M1527.1,493.934c-.209-.978.441-2.007,2.506-3.017,5.068-2.48,19.112-7.11,19.112,3.092a6.342,6.342,0,0,1-5.846,6.341,17.492,17.492,0,0,1-6.5-.993c-2.451-.7-8.727-2.9-9.268-5.424" transform="translate(-517.01 -165.114)" fill="#fff"></path><path id="Tracciato_205" data-name="Tracciato 205" d="M1540.937,501.337a22.113,22.113,0,0,1-6.075-1.114c-2.929-.836-9.828-3.179-10.617-6.867-.3-1.409.068-3.444,3.539-5.142.5-.244,12.307-5.942,18.5-2.078,1.54.961,3.375,2.937,3.375,6.894a8.234,8.234,0,0,1-7.569,8.249,11.286,11.286,0,0,1-1.151.058m-12.9-8.7c.465.926,3.82,2.736,7.882,3.895a15.992,15.992,0,0,0,5.782.929,4.4,4.4,0,0,0,4.123-4.433c0-2.659-1.181-3.4-1.57-3.638-3.074-1.919-10.494.173-14.78,2.269a4.1,4.1,0,0,0-1.437.978" transform="translate(-516.026 -164.135)"></path><path id="Tracciato_206" data-name="Tracciato 206" d="M1616.034,462.766c-.209-.978.441-2.007,2.505-3.017,5.069-2.48,19.112-7.11,19.112,3.092a6.341,6.341,0,0,1-5.846,6.341,17.49,17.49,0,0,1-6.5-.993c-2.451-.7-8.727-2.9-9.268-5.424" transform="translate(-547.118 -154.562)" fill="#fff"></path><path id="Tracciato_207" data-name="Tracciato 207" d="M1629.865,470.169a22.129,22.129,0,0,1-6.074-1.114c-2.93-.836-9.829-3.179-10.618-6.868-.3-1.409.069-3.444,3.539-5.141.5-.245,12.308-5.942,18.5-2.078,1.54.96,3.375,2.937,3.375,6.893a8.235,8.235,0,0,1-7.569,8.25,11.3,11.3,0,0,1-1.152.058m-12.9-8.7c.466.926,3.821,2.736,7.882,3.895a15.982,15.982,0,0,0,5.782.929,4.4,4.4,0,0,0,4.122-4.433c0-2.659-1.181-3.4-1.569-3.639-3.074-1.917-10.494.173-14.781,2.27a4.114,4.114,0,0,0-1.437.978" transform="translate(-546.134 -153.582)"></path><path id="Tracciato_208" data-name="Tracciato 208" d="M981.252,443.016c-.24-1.119.5-2.3,2.866-3.451,5.8-2.836,21.859-8.132,21.859,3.537a7.253,7.253,0,0,1-6.686,7.252,20.011,20.011,0,0,1-7.439-1.135c-2.8-.8-9.982-3.312-10.6-6.2" transform="translate(-332.202 -147.572)" fill="#fff"></path><path id="Tracciato_209" data-name="Tracciato 209" d="M997.216,451.344a25.061,25.061,0,0,1-6.874-1.263c-3.3-.943-11.079-3.574-11.95-7.647-.323-1.515.089-3.711,3.9-5.575.566-.277,13.938-6.729,20.89-2.391,1.7,1.062,3.731,3.252,3.731,7.651a9.146,9.146,0,0,1-8.409,9.161,12.591,12.591,0,0,1-1.286.064m-15.068-9.7c.259,1.071,4.25,3.32,9.247,4.746a18.5,18.5,0,0,0,6.717,1.072,5.366,5.366,0,0,0,4.963-5.344c0-2.149-.63-3.587-1.925-4.4-1.689-1.054-4.572-1.2-8.339-.431a39.9,39.9,0,0,0-8.834,3.013c-1.5.735-1.789,1.25-1.83,1.339" transform="translate(-331.218 -146.589)"></path><path id="Tracciato_210" data-name="Tracciato 210" d="M889.356,429.941c.251,1.175-.53,2.411-3.01,3.625-6.089,2.978-22.962,8.542-22.962-3.715a7.62,7.62,0,0,1,7.024-7.618,21.013,21.013,0,0,1,7.814,1.193c2.945.84,10.485,3.479,11.135,6.516" transform="translate(-292.311 -142.933)" fill="#fff"></path><path id="Tracciato_211" data-name="Tracciato 211" d="M870.742,438.381a11.987,11.987,0,0,1-6.385-1.558c-1.767-1.1-3.873-3.378-3.873-7.955a9.512,9.512,0,0,1,8.746-9.527,22.69,22.69,0,0,1,8.536,1.257c3.453.985,11.58,3.733,12.485,7.96.333,1.557-.1,3.818-4.043,5.749-.444.218-8.437,4.074-15.466,4.074m-.169-15.27a9.478,9.478,0,0,0-.952.047,5.732,5.732,0,0,0-5.3,5.711c0,2.293.676,3.83,2.067,4.7,4.033,2.516,13.263-.325,18.133-2.707,1.813-.887,1.979-1.482,1.98-1.488l0-.013c-.245-1.148-4.324-3.514-9.785-5.073a23.085,23.085,0,0,0-6.14-1.176" transform="translate(-291.329 -141.951)"></path><path id="Tracciato_212" data-name="Tracciato 212" d="M1619.091,378.645c.144.671-.3,1.375-1.717,2.067-3.472,1.7-13.094,4.872-13.094-2.119a4.345,4.345,0,0,1,4.005-4.345,11.993,11.993,0,0,1,4.457.681c1.679.479,5.979,1.984,6.35,3.716" transform="translate(-543.151 -126.696)" fill="#fff"></path><path id="Tracciato_213" data-name="Tracciato 213" d="M1608.077,383.864a7.686,7.686,0,0,1-4.1-1.017,5.739,5.739,0,0,1-2.6-5.237,6.235,6.235,0,0,1,5.729-6.253,13.575,13.575,0,0,1,5.178.743c2.623.749,7.112,2.415,7.7,5.161.205.962.122,2.787-2.751,4.192-.651.319-5.086,2.41-9.157,2.41m-.124-8.711a4.489,4.489,0,0,0-.455.022,2.427,2.427,0,0,0-2.282,2.436c0,1.486.574,1.845.79,1.98,1.71,1.067,6.284.009,9.543-1.585.136-.068.25-.129.344-.185a16.353,16.353,0,0,0-4.661-2.031,12.569,12.569,0,0,0-3.28-.639" transform="translate(-542.169 -125.714)"></path><path id="Tracciato_214" data-name="Tracciato 214" d="M1087.421,395.737c.568.368.749,1.171.245,2.641-1.238,3.609-5.739,12.54-10.619,7.66a4.288,4.288,0,0,1-.237-5.827,11.842,11.842,0,0,1,3.585-2.636c1.507-.837,5.559-2.788,7.026-1.838" transform="translate(-364.221 -133.896)" fill="#fff"></path><path id="Tracciato_215" data-name="Tracciato 215" d="M1079,408.408a6,6,0,0,1-4.3-1.986,6.181,6.181,0,0,1-.368-8.4,13.428,13.428,0,0,1,4.141-3.1c2.357-1.311,6.663-3.285,9-1.772h0c.821.532,2.044,1.872,1.016,4.873-.318.925-3.247,9.074-8.3,10.244a5.279,5.279,0,0,1-1.193.138m5.966-11.957a16.317,16.317,0,0,0-4.625,1.828,10.379,10.379,0,0,0-3.029,2.17,2.371,2.371,0,0,0,.106,3.26c1.027,1.027,1.669.88,1.91.823,1.931-.447,4.377-4.371,5.536-7.75.042-.125.077-.235.1-.331" transform="translate(-363.235 -132.922)"></path><path id="Tracciato_216" data-name="Tracciato 216" d="M1354.231,375.335c-.21-.978.441-2.007,2.505-3.017,5.068-2.48,19.112-7.11,19.112,3.092a6.341,6.341,0,0,1-5.846,6.341,17.49,17.49,0,0,1-6.5-.993c-2.451-.7-8.727-2.9-9.268-5.424" transform="translate(-458.481 -124.961)" fill="#fff"></path><path id="Tracciato_217" data-name="Tracciato 217" d="M1368.063,382.737a22.114,22.114,0,0,1-6.075-1.114c-2.929-.836-9.828-3.179-10.617-6.867-.3-1.409.068-3.444,3.539-5.142.5-.244,12.309-5.942,18.5-2.078,1.54.961,3.375,2.937,3.375,6.894a8.234,8.234,0,0,1-7.569,8.249,11.285,11.285,0,0,1-1.152.058m-12.9-8.7c.466.926,3.82,2.736,7.882,3.895a15.987,15.987,0,0,0,5.782.929,4.4,4.4,0,0,0,4.123-4.434c0-2.658-1.181-3.4-1.569-3.637-3.074-1.919-10.495.172-14.781,2.269a4.1,4.1,0,0,0-1.437.978" transform="translate(-457.497 -123.981)"></path><path id="Tracciato_218" data-name="Tracciato 218" d="M1533.936,434.3c.4-.613,1.263-.808,2.851-.264,3.9,1.336,13.537,6.2,8.27,11.463a4.631,4.631,0,0,1-6.292.255,12.775,12.775,0,0,1-2.845-3.87c-.9-1.626-3.01-6-1.984-7.584" transform="translate(-519.242 -146.841)" fill="#fff"></path><path id="Tracciato_219" data-name="Tracciato 219" d="M1540.833,447.811a6.724,6.724,0,0,1-4.253-1.549,14.372,14.372,0,0,1-3.311-4.425c-1.4-2.517-3.508-7.1-1.918-9.56.55-.85,1.943-2.113,5.084-1.036a28.5,28.5,0,0,1,6.059,2.977c2.772,1.83,4.421,3.805,4.9,5.872a5.993,5.993,0,0,1-1.955,5.784,6.487,6.487,0,0,1-4.606,1.936M1534.6,434.7a16.548,16.548,0,0,0,2.019,5.267,11.333,11.333,0,0,0,2.38,3.314,2.709,2.709,0,0,0,3.723-.125c1.17-1.169.995-1.921.929-2.2-.494-2.135-4.779-4.821-8.465-6.085a5.029,5.029,0,0,0-.586-.167" transform="translate(-518.268 -145.862)"></path><path id="Tracciato_220" data-name="Tracciato 220" d="M1354.131,617.88c.143.671-.3,1.375-1.717,2.067-3.472,1.7-13.094,4.872-13.094-2.119a4.345,4.345,0,0,1,4.005-4.345,12,12,0,0,1,4.457.681c1.679.479,5.979,1.984,6.35,3.716" transform="translate(-453.445 -207.692)" fill="#fff"></path><path id="Tracciato_221" data-name="Tracciato 221" d="M1343.116,623.1a7.682,7.682,0,0,1-4.1-1.017,5.738,5.738,0,0,1-2.6-5.236,6.236,6.236,0,0,1,5.729-6.253,13.577,13.577,0,0,1,5.178.743c2.624.749,7.112,2.415,7.7,5.16h0c.206.962.122,2.787-2.75,4.191-.651.319-5.086,2.411-9.157,2.411m-.124-8.712a4.508,4.508,0,0,0-.456.022,2.428,2.428,0,0,0-2.282,2.437c0,1.486.575,1.845.791,1.98,1.709,1.068,6.284.009,9.542-1.585.136-.067.25-.129.345-.185a16.4,16.4,0,0,0-4.662-2.031,12.562,12.562,0,0,0-3.279-.639" transform="translate(-452.463 -206.71)"></path><path id="Tracciato_222" data-name="Tracciato 222" d="M1242.306,613.6c.84.544,1.107,1.731.361,3.905-1.83,5.336-8.486,18.542-15.7,11.328a6.341,6.341,0,0,1-.35-8.618,17.494,17.494,0,0,1,5.3-3.9c2.228-1.239,8.219-4.123,10.389-2.719" transform="translate(-414.774 -207.615)" fill="#fff"></path><path id="Tracciato_223" data-name="Tracciato 223" d="M1230.341,631.884a8,8,0,0,1-5.718-2.666,8.235,8.235,0,0,1-.481-11.186,19.14,19.14,0,0,1,5.856-4.362c2.662-1.48,9.2-4.7,12.364-2.652,1.208.783,2.386,2.484,1.133,6.138-.18.526-4.5,12.9-11.611,14.55a6.835,6.835,0,0,1-1.543.178m9.4-17.737c-1.388,0-4.617,1.064-7.877,2.877a15.989,15.989,0,0,0-4.745,3.432,4.4,4.4,0,0,0,.22,6.049c1.88,1.881,3.237,1.566,3.682,1.463,3.53-.817,7.3-7.542,8.846-12.057a4.111,4.111,0,0,0,.325-1.707,1.465,1.465,0,0,0-.45-.057" transform="translate(-413.787 -206.644)"></path><path id="Tracciato_224" data-name="Tracciato 224" d="M1068.656,640.723c-.21-.978.441-2.007,2.505-3.017,5.068-2.48,19.112-7.11,19.112,3.092a6.342,6.342,0,0,1-5.846,6.341,17.491,17.491,0,0,1-6.5-.993c-2.451-.7-8.727-2.9-9.268-5.424" transform="translate(-361.796 -214.812)" fill="#fff"></path><path id="Tracciato_225" data-name="Tracciato 225" d="M1082.487,648.126a22.125,22.125,0,0,1-6.073-1.114c-2.929-.837-9.829-3.18-10.618-6.868-.3-1.409.069-3.444,3.539-5.142.5-.244,12.308-5.942,18.5-2.078,1.54.961,3.375,2.937,3.375,6.894a8.235,8.235,0,0,1-7.57,8.25,11.3,11.3,0,0,1-1.152.058m-12.9-8.7c.466.926,3.821,2.735,7.882,3.895a15.969,15.969,0,0,0,5.782.929,4.4,4.4,0,0,0,4.122-4.432c0-2.659-1.181-3.4-1.569-3.639-3.074-1.919-10.494.173-14.781,2.27a4.1,4.1,0,0,0-1.437.978" transform="translate(-360.812 -213.832)"></path><path id="Tracciato_226" data-name="Tracciato 226" d="M1362.32,636.543c-.21-.978.441-2.007,2.5-3.017,5.068-2.48,19.112-7.111,19.112,3.092a6.341,6.341,0,0,1-5.846,6.341,17.494,17.494,0,0,1-6.5-.993c-2.451-.7-8.727-2.9-9.267-5.424" transform="translate(-461.22 -213.397)" fill="#fff"></path><path id="Tracciato_227" data-name="Tracciato 227" d="M1376.151,643.945a22.126,22.126,0,0,1-6.074-1.114c-2.93-.836-9.828-3.179-10.618-6.867-.3-1.409.068-3.444,3.539-5.142.5-.245,12.307-5.942,18.5-2.078,1.54.96,3.375,2.937,3.375,6.893a8.235,8.235,0,0,1-7.569,8.25,11.291,11.291,0,0,1-1.152.058m-12.9-8.7c.466.926,3.821,2.736,7.882,3.895a16,16,0,0,0,5.782.929,4.4,4.4,0,0,0,4.122-4.433c0-2.659-1.181-3.4-1.569-3.639-3.074-1.918-10.494.173-14.781,2.27a4.118,4.118,0,0,0-1.437.978" transform="translate(-460.236 -212.416)"></path><path id="Tracciato_228" data-name="Tracciato 228" d="M1280.222,608.075c.4-.613,1.263-.808,2.851-.264,3.9,1.336,13.537,6.2,8.27,11.463a4.631,4.631,0,0,1-6.292.255,12.778,12.778,0,0,1-2.845-3.87c-.9-1.626-3.01-6-1.984-7.584" transform="translate(-433.344 -205.675)" fill="#fff"></path><path id="Tracciato_229" data-name="Tracciato 229" d="M1287.12,621.587a6.727,6.727,0,0,1-4.254-1.549,14.374,14.374,0,0,1-3.311-4.426c-1.4-2.516-3.508-7.1-1.918-9.559h0c.55-.849,1.94-2.113,5.083-1.035a28.479,28.479,0,0,1,6.059,2.977c2.773,1.83,4.422,3.806,4.9,5.872a5.992,5.992,0,0,1-1.955,5.784,6.486,6.486,0,0,1-4.606,1.936m-6.229-13.106a16.551,16.551,0,0,0,2.019,5.267,11.315,11.315,0,0,0,2.379,3.315,2.709,2.709,0,0,0,3.724-.125c1.169-1.169.995-1.921.929-2.2-.495-2.135-4.779-4.821-8.466-6.085a4.9,4.9,0,0,0-.586-.167" transform="translate(-432.37 -204.697)"></path><path id="Tracciato_230" data-name="Tracciato 230" d="M902.76,503.057c-.239-1.119.5-2.3,2.866-3.451,5.8-2.836,21.859-8.132,21.859,3.537A7.253,7.253,0,0,1,920.8,510.4a20.012,20.012,0,0,1-7.438-1.135c-2.8-.8-9.982-3.312-10.6-6.2" transform="translate(-305.628 -167.899)" fill="#fff"></path><path id="Tracciato_231" data-name="Tracciato 231" d="M918.725,511.387a25.127,25.127,0,0,1-6.874-1.263c-3.3-.943-11.078-3.575-11.95-7.647-.324-1.515.089-3.711,3.9-5.575.566-.276,13.939-6.729,20.891-2.39,1.7,1.062,3.731,3.251,3.731,7.651a9.147,9.147,0,0,1-8.41,9.162,12.765,12.765,0,0,1-1.286.064m-15.068-9.7c.258,1.071,4.25,3.32,9.247,4.746a18.5,18.5,0,0,0,6.717,1.072,5.366,5.366,0,0,0,4.963-5.344c0-2.149-.63-3.587-1.925-4.395-1.689-1.054-4.572-1.2-8.339-.431a39.88,39.88,0,0,0-8.834,3.013c-1.5.735-1.789,1.25-1.83,1.339" transform="translate(-304.644 -166.917)"></path><path id="Tracciato_232" data-name="Tracciato 232" d="M1313.656,340.826c.84.544,1.107,1.731.361,3.905-1.83,5.336-8.486,18.542-15.7,11.328a6.342,6.342,0,0,1-.351-8.618,17.505,17.505,0,0,1,5.3-3.9c2.228-1.239,8.219-4.123,10.388-2.718" transform="translate(-438.931 -115.264)" fill="#fff"></path><path id="Tracciato_233" data-name="Tracciato 233" d="M1301.692,359.11a8,8,0,0,1-5.719-2.666,8.235,8.235,0,0,1-.481-11.186,19.128,19.128,0,0,1,5.856-4.362c2.663-1.48,9.2-4.7,12.364-2.652,1.209.782,2.387,2.483,1.134,6.138-.181.526-4.5,12.9-11.612,14.55a6.835,6.835,0,0,1-1.542.177m9.4-17.736c-1.388,0-4.617,1.064-7.877,2.877a16,16,0,0,0-4.746,3.432,4.4,4.4,0,0,0,.22,6.049c1.88,1.881,3.237,1.566,3.682,1.463,3.53-.818,7.3-7.542,8.847-12.057a4.116,4.116,0,0,0,.325-1.707,1.465,1.465,0,0,0-.45-.057" transform="translate(-437.944 -114.293)"></path><path id="Tracciato_234" data-name="Tracciato 234" d="M1476.091,397.308c-.21-.978.441-2.007,2.505-3.017,5.068-2.48,19.112-7.11,19.112,3.092a6.342,6.342,0,0,1-5.846,6.341,17.491,17.491,0,0,1-6.5-.993c-2.451-.7-8.727-2.9-9.268-5.424" transform="translate(-499.739 -132.4)" fill="#fff"></path><path id="Tracciato_235" data-name="Tracciato 235" d="M1489.922,404.71a22.128,22.128,0,0,1-6.074-1.114c-2.929-.836-9.829-3.179-10.618-6.868-.3-1.409.069-3.444,3.539-5.141.5-.245,12.307-5.942,18.5-2.078,1.54.96,3.375,2.937,3.375,6.893a8.235,8.235,0,0,1-7.569,8.25,11.3,11.3,0,0,1-1.152.058m-12.9-8.7c.466.926,3.821,2.736,7.882,3.895a16,16,0,0,0,5.782.929,4.4,4.4,0,0,0,4.122-4.433c0-2.659-1.181-3.4-1.569-3.639-3.074-1.917-10.494.173-14.781,2.27a4.118,4.118,0,0,0-1.437.978" transform="translate(-498.754 -131.42)"></path><path id="Tracciato_236" data-name="Tracciato 236" d="M1627.28,397.308c-.209-.978.441-2.007,2.506-3.017,5.068-2.48,19.112-7.11,19.112,3.092a6.342,6.342,0,0,1-5.846,6.341,17.491,17.491,0,0,1-6.5-.993c-2.451-.7-8.727-2.9-9.268-5.424" transform="translate(-550.926 -132.4)" fill="#fff"></path><path id="Tracciato_237" data-name="Tracciato 237" d="M1641.111,404.71a22.128,22.128,0,0,1-6.074-1.114c-2.929-.836-9.829-3.179-10.618-6.868-.3-1.409.069-3.444,3.539-5.141.5-.245,12.308-5.942,18.5-2.078,1.54.96,3.375,2.937,3.375,6.893a8.235,8.235,0,0,1-7.569,8.25,11.285,11.285,0,0,1-1.152.058m-12.9-8.7c.466.926,3.821,2.736,7.882,3.895a16,16,0,0,0,5.782.929,4.4,4.4,0,0,0,4.122-4.433c0-2.659-1.181-3.4-1.569-3.639-3.074-1.917-10.494.173-14.781,2.27a4.118,4.118,0,0,0-1.437.978" transform="translate(-549.942 -131.42)"></path><path id="Tracciato_238" data-name="Tracciato 238" d="M1411.3,449.167c.144.671-.3,1.375-1.717,2.067-3.472,1.7-13.094,4.872-13.094-2.119a4.345,4.345,0,0,1,4.006-4.345,11.993,11.993,0,0,1,4.456.681c1.679.479,5.979,1.984,6.35,3.716" transform="translate(-472.802 -150.572)" fill="#fff"></path><path id="Tracciato_239" data-name="Tracciato 239" d="M1400.29,454.386a7.673,7.673,0,0,1-4.1-1.017,5.735,5.735,0,0,1-2.6-5.236,6.236,6.236,0,0,1,5.729-6.253,13.569,13.569,0,0,1,5.178.744c2.623.748,7.112,2.414,7.7,5.16.206.962.122,2.787-2.75,4.191-.651.319-5.086,2.411-9.158,2.411m-.123-8.712a4.5,4.5,0,0,0-.456.022,2.429,2.429,0,0,0-2.283,2.437c0,1.486.575,1.845.791,1.98,1.711,1.068,6.285.008,9.542-1.585.137-.067.251-.128.345-.184a16.379,16.379,0,0,0-4.662-2.031,12.534,12.534,0,0,0-3.278-.64" transform="translate(-471.82 -149.59)"></path><path id="Tracciato_240" data-name="Tracciato 240" d="M1037.658,446.453c-.209-.978.441-2.007,2.505-3.017,5.069-2.48,19.112-7.11,19.112,3.092a6.341,6.341,0,0,1-5.846,6.341,17.491,17.491,0,0,1-6.5-.993c-2.451-.7-8.727-2.9-9.268-5.424" transform="translate(-351.301 -149.039)" fill="#fff"></path><path id="Tracciato_241" data-name="Tracciato 241" d="M1051.489,453.856a22.129,22.129,0,0,1-6.073-1.114c-2.93-.836-9.829-3.18-10.618-6.868-.3-1.408.068-3.443,3.539-5.141.5-.245,12.307-5.942,18.5-2.079,1.54.961,3.375,2.937,3.375,6.894a8.235,8.235,0,0,1-7.569,8.25,11.278,11.278,0,0,1-1.152.058m-12.9-8.7c.466.926,3.82,2.735,7.882,3.895a15.98,15.98,0,0,0,5.782.929,4.4,4.4,0,0,0,4.123-4.432c0-2.659-1.181-3.4-1.569-3.639-3.074-1.918-10.494.173-14.781,2.27a4.114,4.114,0,0,0-1.437.978" transform="translate(-350.317 -148.059)"></path><path id="Tracciato_242" data-name="Tracciato 242" d="M1112.963,442.5c.4-.613,1.263-.808,2.851-.264,3.9,1.336,13.537,6.2,8.27,11.463a4.631,4.631,0,0,1-6.292.255,12.776,12.776,0,0,1-2.845-3.87c-.9-1.626-3.01-6-1.984-7.584" transform="translate(-376.716 -149.617)" fill="#fff"></path><path id="Tracciato_243" data-name="Tracciato 243" d="M1119.86,456.011a6.721,6.721,0,0,1-4.253-1.549,14.355,14.355,0,0,1-3.31-4.425c-1.4-2.515-3.508-7.1-1.918-9.559h0c.55-.85,1.943-2.113,5.083-1.035a28.508,28.508,0,0,1,6.059,2.977c2.772,1.83,4.421,3.805,4.9,5.872a5.992,5.992,0,0,1-1.955,5.784,6.486,6.486,0,0,1-4.606,1.935m-6.229-13.106a16.539,16.539,0,0,0,2.019,5.267,11.309,11.309,0,0,0,2.38,3.314,2.709,2.709,0,0,0,3.723-.125c1.169-1.169.995-1.921.929-2.2-.494-2.135-4.779-4.821-8.465-6.086a4.9,4.9,0,0,0-.586-.166" transform="translate(-375.742 -148.639)"></path><path id="Tracciato_244" data-name="Tracciato 244" d="M1215.6,499.415c.84.544,1.107,1.731.361,3.905-1.83,5.336-8.486,18.542-15.7,11.328a6.342,6.342,0,0,1-.35-8.618,17.494,17.494,0,0,1,5.3-3.9c2.228-1.239,8.219-4.123,10.389-2.719" transform="translate(-405.733 -168.956)" fill="#fff"></path><path id="Tracciato_245" data-name="Tracciato 245" d="M1203.638,517.7a8,8,0,0,1-5.719-2.666,8.236,8.236,0,0,1-.482-11.186,19.161,19.161,0,0,1,5.856-4.362c2.663-1.48,9.2-4.7,12.364-2.652,1.209.783,2.387,2.484,1.134,6.138-.181.526-4.5,12.9-11.611,14.55a6.838,6.838,0,0,1-1.543.178m9.4-17.737c-1.388,0-4.617,1.064-7.876,2.877a15.987,15.987,0,0,0-4.746,3.432,4.4,4.4,0,0,0,.22,6.05c1.879,1.879,3.236,1.566,3.683,1.462,3.529-.817,7.3-7.542,8.847-12.057a4.105,4.105,0,0,0,.324-1.707,1.466,1.466,0,0,0-.451-.057" transform="translate(-404.746 -167.985)"></path><path id="Tracciato_246" data-name="Tracciato 246" d="M1712.525,432.512c-.209-.978.441-2.007,2.506-3.017,5.068-2.48,19.112-7.11,19.112,3.092a6.342,6.342,0,0,1-5.846,6.341,17.492,17.492,0,0,1-6.5-.993c-2.451-.7-8.728-2.9-9.268-5.424" transform="translate(-579.786 -144.319)" fill="#fff"></path><path id="Tracciato_247" data-name="Tracciato 247" d="M1726.356,439.915a22.109,22.109,0,0,1-6.074-1.115c-2.929-.836-9.829-3.178-10.618-6.867h0c-.3-1.408.069-3.443,3.539-5.141.5-.244,12.308-5.942,18.5-2.078,1.54.961,3.375,2.937,3.375,6.894a8.235,8.235,0,0,1-7.57,8.25,11.285,11.285,0,0,1-1.151.058m-12.9-8.7c.466.926,3.82,2.735,7.882,3.895a15.99,15.99,0,0,0,5.782.929,4.4,4.4,0,0,0,4.122-4.432c0-2.659-1.181-3.4-1.569-3.639-3.074-1.918-10.494.173-14.781,2.27a4.105,4.105,0,0,0-1.437.978" transform="translate(-578.803 -143.339)"></path><path id="Tracciato_248" data-name="Tracciato 248" d="M1391.376,503.54c-.209-.978.441-2.007,2.506-3.017,5.068-2.48,19.112-7.11,19.112,3.092a6.342,6.342,0,0,1-5.846,6.341,17.491,17.491,0,0,1-6.5-.993c-2.451-.7-8.728-2.9-9.268-5.424" transform="translate(-471.057 -168.367)" fill="#fff"></path><path id="Tracciato_249" data-name="Tracciato 249" d="M1405.206,510.943a22.133,22.133,0,0,1-6.073-1.114c-2.929-.836-9.828-3.179-10.617-6.867-.3-1.409.068-3.444,3.538-5.142.5-.245,12.307-5.942,18.5-2.078,1.54.96,3.375,2.937,3.375,6.894a8.235,8.235,0,0,1-7.569,8.249,11.3,11.3,0,0,1-1.153.058m-12.9-8.7c.465.926,3.82,2.736,7.882,3.894a15.979,15.979,0,0,0,5.782.929,4.4,4.4,0,0,0,4.123-4.434c0-2.658-1.181-3.4-1.569-3.637-3.074-1.919-10.495.172-14.781,2.269a4.107,4.107,0,0,0-1.437.978" transform="translate(-470.073 -167.387)"></path><path id="Tracciato_250" data-name="Tracciato 250" d="M1422.55,383.708c.144.671-.3,1.375-1.717,2.067-3.472,1.7-13.094,4.872-13.094-2.119a4.345,4.345,0,0,1,4.005-4.345,12,12,0,0,1,4.457.681c1.679.479,5.979,1.984,6.35,3.716" transform="translate(-476.609 -128.41)" fill="#fff"></path><path id="Tracciato_251" data-name="Tracciato 251" d="M1411.536,388.927a7.673,7.673,0,0,1-4.1-1.017,5.736,5.736,0,0,1-2.6-5.236,6.236,6.236,0,0,1,5.729-6.253,13.568,13.568,0,0,1,5.178.744c2.624.748,7.112,2.414,7.7,5.16.206.962.122,2.787-2.75,4.191-.651.319-5.086,2.411-9.158,2.411m-.124-8.712a4.49,4.49,0,0,0-.454.022,2.428,2.428,0,0,0-2.283,2.437c0,1.486.575,1.845.791,1.98,1.711,1.068,6.285.008,9.542-1.585.137-.067.251-.128.345-.184a16.377,16.377,0,0,0-4.662-2.031,12.581,12.581,0,0,0-3.279-.64" transform="translate(-475.628 -127.428)"></path><path id="Tracciato_252" data-name="Tracciato 252" d="M1157.691,380.4c-.21-.978.441-2.007,2.506-3.017,5.068-2.48,19.112-7.11,19.112,3.092a6.341,6.341,0,0,1-5.846,6.341,17.491,17.491,0,0,1-6.5-.993c-2.451-.7-8.727-2.9-9.268-5.424" transform="translate(-391.94 -126.676)" fill="#fff"></path><path id="Tracciato_253" data-name="Tracciato 253" d="M1171.522,387.8a22.138,22.138,0,0,1-6.074-1.114c-2.93-.836-9.828-3.18-10.618-6.867-.3-1.408.068-3.444,3.539-5.142.5-.245,12.308-5.942,18.5-2.078,1.54.96,3.375,2.937,3.375,6.894a8.234,8.234,0,0,1-7.569,8.249,11.245,11.245,0,0,1-1.151.058m-12.9-8.7c.466.926,3.82,2.736,7.882,3.895a16,16,0,0,0,5.782.929,4.4,4.4,0,0,0,4.122-4.433c0-2.659-1.181-3.4-1.569-3.639-3.074-1.918-10.494.173-14.781,2.27a4.117,4.117,0,0,0-1.437.978" transform="translate(-390.956 -125.695)"></path><path id="Tracciato_254" data-name="Tracciato 254" d="M1224.659,366.622c.4-.613,1.263-.808,2.851-.264,3.9,1.336,13.537,6.2,8.27,11.463a4.631,4.631,0,0,1-6.292.255,12.777,12.777,0,0,1-2.845-3.87c-.9-1.626-3.01-6-1.984-7.584" transform="translate(-414.532 -123.928)" fill="#fff"></path><path id="Tracciato_255" data-name="Tracciato 255" d="M1231.557,380.134a6.728,6.728,0,0,1-4.254-1.548,14.379,14.379,0,0,1-3.31-4.426c-1.4-2.516-3.508-7.1-1.918-9.559h0c.55-.849,1.941-2.115,5.083-1.036a28.51,28.51,0,0,1,6.059,2.977c2.773,1.83,4.421,3.806,4.9,5.872a6,6,0,0,1-1.954,5.784,6.49,6.49,0,0,1-4.606,1.935m-6.229-13.106a16.551,16.551,0,0,0,2.019,5.267,11.316,11.316,0,0,0,2.379,3.315,2.71,2.71,0,0,0,3.724-.125c1.169-1.169.995-1.922.929-2.2-.494-2.135-4.779-4.821-8.466-6.086a4.99,4.99,0,0,0-.586-.166" transform="translate(-413.558 -122.949)"></path><path id="Tracciato_256" data-name="Tracciato 256" d="M1155.392,462.72c.84.544,1.107,1.731.361,3.905-1.83,5.336-8.486,18.542-15.7,11.328a6.342,6.342,0,0,1-.351-8.618,17.5,17.5,0,0,1,5.3-3.9c2.228-1.239,8.219-4.123,10.389-2.719" transform="translate(-385.348 -156.533)" fill="#fff"></path><path id="Tracciato_257" data-name="Tracciato 257" d="M1143.427,481a8,8,0,0,1-5.718-2.666,8.235,8.235,0,0,1-.481-11.186,19.136,19.136,0,0,1,5.856-4.362c2.663-1.48,9.2-4.7,12.364-2.652,1.208.783,2.386,2.484,1.133,6.138-.18.526-4.5,12.9-11.611,14.55a6.839,6.839,0,0,1-1.543.177m9.4-17.736c-1.388,0-4.617,1.064-7.876,2.877a15.985,15.985,0,0,0-4.746,3.432,4.4,4.4,0,0,0,.219,6.049c1.88,1.881,3.236,1.566,3.682,1.463,3.53-.818,7.3-7.542,8.846-12.057a4.112,4.112,0,0,0,.325-1.707,1.465,1.465,0,0,0-.45-.057" transform="translate(-384.361 -155.562)"></path><path id="Tracciato_258" data-name="Tracciato 258" d="M1647.209,613.2c.84.544,1.107,1.731.361,3.905-1.83,5.336-8.486,18.542-15.7,11.328a6.342,6.342,0,0,1-.351-8.618,17.5,17.5,0,0,1,5.3-3.9c2.228-1.239,8.219-4.123,10.389-2.718" transform="translate(-551.859 -207.479)" fill="#fff"></path><path id="Tracciato_259" data-name="Tracciato 259" d="M1635.245,631.484a8,8,0,0,1-5.719-2.666,8.235,8.235,0,0,1-.481-11.186,19.143,19.143,0,0,1,5.856-4.362c2.662-1.48,9.2-4.7,12.364-2.652,1.209.783,2.387,2.484,1.133,6.138-.18.526-4.5,12.9-11.611,14.55a6.828,6.828,0,0,1-1.543.178m9.4-17.737c-1.388,0-4.617,1.064-7.876,2.877a15.993,15.993,0,0,0-4.746,3.432,4.4,4.4,0,0,0,.22,6.05c1.88,1.88,3.237,1.566,3.682,1.462,3.53-.818,7.3-7.542,8.847-12.057a4.113,4.113,0,0,0,.325-1.707,1.472,1.472,0,0,0-.451-.057" transform="translate(-550.873 -206.508)"></path><path id="Tracciato_260" data-name="Tracciato 260" d="M1250.568,406.914c-.21-.978.441-2.007,2.505-3.017,5.068-2.48,19.112-7.11,19.112,3.092a6.342,6.342,0,0,1-5.846,6.341,17.49,17.49,0,0,1-6.5-.993c-2.451-.7-8.727-2.9-9.268-5.424" transform="translate(-423.385 -135.653)" fill="#fff"></path><path id="Tracciato_261" data-name="Tracciato 261" d="M1264.4,414.317a22.127,22.127,0,0,1-6.074-1.114c-2.93-.836-9.829-3.179-10.618-6.868-.3-1.409.069-3.444,3.539-5.141.5-.245,12.307-5.942,18.5-2.079,1.54.961,3.375,2.937,3.375,6.894a8.235,8.235,0,0,1-7.569,8.25,11.318,11.318,0,0,1-1.152.058m-12.9-8.7c.466.926,3.821,2.736,7.882,3.895a15.988,15.988,0,0,0,5.782.929,4.4,4.4,0,0,0,4.122-4.433c0-2.659-1.181-3.4-1.569-3.639-3.074-1.918-10.494.173-14.781,2.27a4.1,4.1,0,0,0-1.437.978" transform="translate(-422.401 -134.673)"></path><path id="Tracciato_262" data-name="Tracciato 262" d="M1543.475,399.246c-.209-.978.441-2.007,2.505-3.017,5.068-2.48,19.112-7.11,19.112,3.092a6.341,6.341,0,0,1-5.846,6.341,17.491,17.491,0,0,1-6.5-.993c-2.451-.7-8.727-2.9-9.268-5.424" transform="translate(-522.552 -133.056)" fill="#fff"></path><path id="Tracciato_263" data-name="Tracciato 263" d="M1557.306,406.649a22.128,22.128,0,0,1-6.073-1.114c-2.929-.836-9.829-3.179-10.618-6.868-.3-1.409.069-3.444,3.539-5.141.5-.245,12.307-5.942,18.5-2.079,1.54.961,3.375,2.937,3.375,6.894a8.234,8.234,0,0,1-7.57,8.25,11.288,11.288,0,0,1-1.152.058m-12.9-8.7c.466.926,3.821,2.736,7.882,3.895a15.967,15.967,0,0,0,5.782.929,4.4,4.4,0,0,0,4.123-4.432c0-2.659-1.181-3.4-1.569-3.639-3.074-1.918-10.494.173-14.781,2.27a4.108,4.108,0,0,0-1.437.978" transform="translate(-521.568 -132.076)"></path><path id="Tracciato_264" data-name="Tracciato 264" d="M981.252,382.015c-.24-1.119.5-2.3,2.866-3.451,5.8-2.836,21.859-8.132,21.859,3.537a7.253,7.253,0,0,1-6.686,7.252,20,20,0,0,1-7.439-1.136c-2.8-.8-9.982-3.312-10.6-6.2" transform="translate(-332.202 -126.919)" fill="#fff"></path><path id="Tracciato_265" data-name="Tracciato 265" d="M997.215,390.345a25.084,25.084,0,0,1-6.873-1.264c-3.3-.942-11.078-3.574-11.95-7.647-.324-1.515.089-3.711,3.9-5.575.566-.277,13.938-6.729,20.89-2.39,1.7,1.062,3.731,3.251,3.731,7.651a9.147,9.147,0,0,1-8.409,9.162,12.788,12.788,0,0,1-1.287.064m-15.068-9.7c.259,1.072,4.25,3.32,9.248,4.746a18.475,18.475,0,0,0,6.717,1.072,5.366,5.366,0,0,0,4.963-5.344c0-2.149-.63-3.587-1.925-4.4-1.689-1.054-4.572-1.2-8.339-.431a39.907,39.907,0,0,0-8.834,3.013c-1.5.735-1.789,1.25-1.83,1.339" transform="translate(-331.218 -125.936)"></path></g></g></g></svg>