<svg xmlns="http://www.w3.org/2000/svg" xmlns:xlink="http://www.w3.org/1999/xlink" id="Componente_3_10" data-name="Componente 3 &#x2013; 10" width="88" height="90" viewBox="0 0 88 90"><defs><clipPath id="clip-path"><rect id="Rettangolo_179" data-name="Rettangolo 179" width="37.641" height="29.138" fill="#fff"></rect></clipPath></defs><rect id="Rettangolo_8" data-name="Rettangolo 8" width="78" height="80" transform="translate(10 10)"></rect><g id="Rettangolo_17" data-name="Rettangolo 17" fill="#a35900" stroke="#000" stroke-linejoin="round" stroke-width="7"><rect width="78" height="80" stroke="none"></rect><rect x="3.5" y="3.5" width="71" height="73" fill="none"></rect></g><g id="Raggruppa_192" data-name="Raggruppa 192" transform="translate(20.179 25.431)"><g id="Raggruppa_191" data-name="Raggruppa 191" clip-path="url(#clip-path)"><path id="Tracciato_2136" data-name="Tracciato 2136" d="M31.885,2.44A30.659,30.659,0,0,0,24.12,0a22.77,22.77,0,0,0-.995,2.065,28.512,28.512,0,0,0-8.606,0A22.084,22.084,0,0,0,13.512,0,30.557,30.557,0,0,0,5.74,2.446,32.569,32.569,0,0,0,.159,24.255a31.047,31.047,0,0,0,9.524,4.881,23.688,23.688,0,0,0,2.04-3.36,20.061,20.061,0,0,1-3.212-1.563c.269-.2.533-.408.788-.623a21.949,21.949,0,0,0,19.043,0c.258.215.521.423.788.623a20.005,20.005,0,0,1-3.218,1.566,23.582,23.582,0,0,0,2.04,3.359,30.985,30.985,0,0,0,9.53-4.884,32.537,32.537,0,0,0-5.6-21.814M12.567,19.864a3.654,3.654,0,0,1-3.384-3.849,3.635,3.635,0,0,1,3.384-3.852,3.611,3.611,0,0,1,3.384,3.852,3.63,3.63,0,0,1-3.384,3.849m12.506,0a3.654,3.654,0,0,1-3.384-3.849,3.635,3.635,0,0,1,3.384-3.852,3.611,3.611,0,0,1,3.384,3.852,3.632,3.632,0,0,1-3.384,3.849" transform="translate(0)" fill="#fff"></path></g></g></svg>