<svg xmlns="http://www.w3.org/2000/svg" width="210" height="41" viewBox="0 0 210 41">
  <g id="Raggruppa_151" data-name="Raggruppa 151" transform="translate(-103 -299)">
    <path id="Tracciato_1886" data-name="Tracciato 1886" d="M146.1,21.681q-.354,0-.71-.01l-.058,0a29.546,29.546,0,0,1-9.84-2.156l-.147-.059-.144-.066c-.995-.459-2.058-.883-3.555-1.418l-.213-.081a48.8,48.8,0,0,1-4.564-2.178c-1-.524-1.951-1.019-2.9-1.437a26.446,26.446,0,0,0-6.427-1.992c-4.87-.624-9.521,1.658-14.9,4.3-1.6.787-3.263,1.6-4.962,2.346l-.118.052-.578.225A35.422,35.422,0,0,1,90.85,21.15l-.193.035A27.624,27.624,0,0,1,86,21.674a21.8,21.8,0,0,1-5.061-.446,46.62,46.62,0,0,1-6.1-1.626l-.357-.126-.316-.158c-.048-.019-.16-.06-.244-.091a13.594,13.594,0,0,1-1.5-.631c-3.065-1.532-6.394-3.162-9.976-4.7a26.237,26.237,0,0,0-5.51-1.515c-.206-.021-.467-.038-.74-.055-.346-.022-.726-.045-1.141-.086a19.638,19.638,0,0,0-2.691.268,6.234,6.234,0,0,1-1.045.314,43.46,43.46,0,0,0-9.2,3.721q-.656.324-1.317.648a8.788,8.788,0,0,1-1.536.676l-.592.395-.773.258a8.224,8.224,0,0,1-1.026.268c-.206.089-.422.186-.645.286a22.649,22.649,0,0,1-3.666,1.371,6.289,6.289,0,0,1-1.213.388,27.777,27.777,0,0,1-14.359-.325l-.111-.034a72.311,72.311,0,0,1-9.369-3.93c-1.333-.637-2.593-1.239-3.872-1.8A6.088,6.088,0,1,1,8.535,3.594c1.459.64,2.866,1.312,4.228,1.963a62.566,62.566,0,0,0,7.755,3.3,15.362,15.362,0,0,0,7.535.239,6.249,6.249,0,0,1,1.38-.414,11.722,11.722,0,0,0,1.823-.716c.463-.207.987-.442,1.549-.667l.166-.066.17-.057c.2-.067.389-.121.563-.164a8.265,8.265,0,0,1,1.264-.546l.184-.06.09-.044q.75-.365,1.491-.733A55.283,55.283,0,0,1,47.978,1.1,6.254,6.254,0,0,1,49.488.65,32.221,32.221,0,0,1,55.36.061h.379l.376.047c.219.027.521.046.842.066.469.029,1,.063,1.593.137l.123.015.122.02a38.33,38.33,0,0,1,8.306,2.3l.093.039c3.881,1.663,7.412,3.39,10.651,5.009.048.019.16.06.244.091.268.1.641.233,1.075.428A38.131,38.131,0,0,0,83.5,9.324l.115.025A11.2,11.2,0,0,0,86,9.5a17.252,17.252,0,0,0,2.545-.305,25.329,25.329,0,0,0,4.006-1.327l.35-.137C94.326,7.1,95.761,6.4,97.278,5.652,103.538,2.58,110.633-.9,119.163.214l.071.01a38.044,38.044,0,0,1,9.527,2.855l.08.034c1.33.585,2.518,1.206,3.667,1.806,1.169.61,2.274,1.188,3.352,1.627,1.179.423,2.7.991,4.287,1.714A17.364,17.364,0,0,0,145.772,9.5c4.071.109,8.222-1.891,12.616-4.006,1.293-.622,2.63-1.266,3.992-1.869l.037-.016A63.9,63.9,0,0,1,170.2.831a6.088,6.088,0,0,1,3.387,11.7,51.914,51.914,0,0,0-6.292,2.242c-1.178.522-2.365,1.093-3.621,1.7-5.089,2.45-10.835,5.215-17.57,5.215" transform="translate(126.011 305.159)" fill="#fcd575" stroke="#000" stroke-width="3"/>
    <g id="Ellisse_18" data-name="Ellisse 18" transform="translate(171 327)" fill="#fcd575" stroke="#000" stroke-width="3">
      <circle cx="6.5" cy="6.5" r="6.5" stroke="none"/>
      <circle cx="6.5" cy="6.5" r="5" fill="none"/>
    </g>
    <g id="Ellisse_19" data-name="Ellisse 19" transform="translate(103 299)" fill="#fcd575" stroke="#000" stroke-width="3">
      <circle cx="4.5" cy="4.5" r="4.5" stroke="none"/>
      <circle cx="4.5" cy="4.5" r="3" fill="none"/>
    </g>
    <g id="Ellisse_17" data-name="Ellisse 17" transform="translate(296 325)" fill="#fcd575" stroke="#000" stroke-width="2">
      <circle cx="4.5" cy="4.5" r="4.5" stroke="none"/>
      <circle cx="4.5" cy="4.5" r="3.5" fill="none"/>
    </g>
    <g id="Ellisse_16" data-name="Ellisse 16" transform="translate(305 322)" fill="#fcd575" stroke="#000" stroke-width="2">
      <circle cx="4" cy="4" r="4" stroke="none"/>
      <circle cx="4" cy="4" r="3" fill="none"/>
    </g>
  </g>
</svg>
