<svg xmlns="http://www.w3.org/2000/svg" xmlns:xlink="http://www.w3.org/1999/xlink" width="101.55" height="105.936" viewBox="0 0 101.55 105.936"><defs><clipPath id="clip-path"><rect id="Rettangolo_20" data-name="Rettangolo 20" width="95.766" height="51.307" fill="none"></rect></clipPath></defs><g id="Raggruppa_81" data-name="Raggruppa 81" transform="translate(101.55 33.66) rotate(131)"><g id="Raggruppa_35" data-name="Raggruppa 35" clip-path="url(#clip-path)"><path id="Tracciato_436" data-name="Tracciato 436" d="M304.674,279.919a2.708,2.708,0,1,1-2.708-2.708,2.709,2.709,0,0,1,2.708,2.708" transform="translate(-250.681 -232.214)" fill="#fcd575"></path><path id="Tracciato_437" data-name="Tracciato 437" d="M297.358,278.914a3.6,3.6,0,1,1,3.6-3.6,3.605,3.605,0,0,1-3.6,3.6m0-5.417a1.816,1.816,0,1,0,1.816,1.816,1.818,1.818,0,0,0-1.816-1.816" transform="translate(-246.074 -227.607)"></path><path id="Tracciato_438" data-name="Tracciato 438" d="M79.672,15.13a4.63,4.63,0,1,1-4.63-4.63,4.63,4.63,0,0,1,4.63,4.63" transform="translate(-58.983 -8.796)" fill="#fcd575"></path><path id="Tracciato_439" data-name="Tracciato 439" d="M66.247,12.668a6.334,6.334,0,1,1,6.334-6.334,6.341,6.341,0,0,1-6.334,6.334m0-9.26a2.925,2.925,0,1,0,2.925,2.925,2.929,2.929,0,0,0-2.925-2.925" transform="translate(-50.188)"></path><path id="Tracciato_440" data-name="Tracciato 440" d="M12.5,62.192l64.176,2.9V49.523l26.049,20.662-26.049,16.3V74.922L12.5,80.467Z" transform="translate(-10.471 -41.485)" fill="#fcd575"></path><path id="Tracciato_441" data-name="Tracciato 441" d="M64.176,68.475V55.464L0,61.009V38.4l64.176,2.9V23.654l31.59,25.057ZM68.234,51.04V61.149l20.508-12.83L68.234,32.052v13.5l-64.176-2.9v13.94Z" transform="translate(0 -19.814)"></path></g></g></svg>