<svg xmlns="http://www.w3.org/2000/svg" xmlns:xlink="http://www.w3.org/1999/xlink" id="Raggruppa_36" data-name="Raggruppa 36" width="149.323" height="80" viewBox="0 0 149.323 80"><defs><clipPath id="clip-path"><rect id="Rettangolo_20" data-name="Rettangolo 20" width="149.323" height="80" fill="none"></rect></clipPath></defs><g id="Raggruppa_35" data-name="Raggruppa 35" clip-path="url(#clip-path)"><path id="Tracciato_436" data-name="Tracciato 436" d="M307.7,281.434a4.223,4.223,0,1,1-4.223-4.223,4.223,4.223,0,0,1,4.223,4.223" transform="translate(-223.516 -207.049)" fill="#fcd575"></path><path id="Tracciato_437" data-name="Tracciato 437" d="M299.372,282.941a5.615,5.615,0,1,1,5.616-5.615,5.622,5.622,0,0,1-5.616,5.615m0-8.446a2.831,2.831,0,1,0,2.831,2.831,2.834,2.834,0,0,0-2.831-2.831" transform="translate(-219.408 -202.941)"></path><path id="Tracciato_438" data-name="Tracciato 438" d="M84.85,17.719A7.219,7.219,0,1,1,77.631,10.5a7.219,7.219,0,0,1,7.219,7.219" transform="translate(-52.591 -7.842)" fill="#fcd575"></path><path id="Tracciato_439" data-name="Tracciato 439" d="M69.789,19.753a9.877,9.877,0,1,1,9.876-9.877,9.888,9.888,0,0,1-9.876,9.877m0-14.438a4.561,4.561,0,1,0,4.561,4.561,4.566,4.566,0,0,0-4.561-4.561" transform="translate(-44.749)"></path><path id="Tracciato_440" data-name="Tracciato 440" d="M12.5,69.276,112.566,73.8V49.523L153.183,81.74l-40.617,25.411V89.127L12.5,97.772Z" transform="translate(-9.337 -36.989)" fill="#fcd575"></path><path id="Tracciato_441" data-name="Tracciato 441" d="M100.066,93.54V73.254L0,81.9V46.644l100.066,4.528V23.654l49.257,39.069Zm6.327-27.184V82.118L138.37,62.112,106.393,36.749V57.792L6.327,53.265V75Z" transform="translate(0 -17.667)"></path></g></svg>