<svg xmlns="http://www.w3.org/2000/svg" xmlns:xlink="http://www.w3.org/1999/xlink" id="Componente_3_11" data-name="Componente 3 &#x2013; 11" width="88" height="90" viewBox="0 0 88 90"><defs><clipPath id="clip-path"><rect id="Rettangolo_181" data-name="Rettangolo 181" width="36" height="36" transform="translate(-0.484 -0.484)" fill="none"></rect></clipPath></defs><rect id="Rettangolo_8" data-name="Rettangolo 8" width="78" height="80" transform="translate(10 10)"></rect><g id="Rettangolo_17" data-name="Rettangolo 17" fill="#a35900" stroke="#000" stroke-linejoin="round" stroke-width="7"><rect width="78" height="80" stroke="none"></rect><rect x="3.5" y="3.5" width="71" height="73" fill="none"></rect></g><g id="Raggruppa_194" data-name="Raggruppa 194" transform="translate(21.485 22.484)"><g id="Raggruppa_193" data-name="Raggruppa 193" transform="translate(0 0)" clip-path="url(#clip-path)"><path id="Tracciato_2137" data-name="Tracciato 2137" d="M71.116,62.021a9.094,9.094,0,1,0,9.094,9.094,9.1,9.1,0,0,0-9.094-9.094m0,14.719a5.624,5.624,0,1,1,5.624-5.624,5.631,5.631,0,0,1-5.624,5.624" transform="translate(-53.6 -53.6)" fill="#fff"></path><path id="Tracciato_2138" data-name="Tracciato 2138" d="M24.951,0H10.081A10.092,10.092,0,0,0,0,10.08V24.951a10.092,10.092,0,0,0,10.081,10.08h14.87a10.092,10.092,0,0,0,10.081-10.08V10.08A10.092,10.092,0,0,0,24.951,0m6.611,24.951a6.618,6.618,0,0,1-6.611,6.611H10.081A6.618,6.618,0,0,1,3.47,24.951V10.08a6.618,6.618,0,0,1,6.611-6.61h14.87a6.618,6.618,0,0,1,6.611,6.61Z" transform="translate(0 0)" fill="#fff"></path><path id="Tracciato_2139" data-name="Tracciato 2139" d="M181.74,42.65a2.38,2.38,0,1,0,2.38,2.38,2.383,2.383,0,0,0-2.38-2.38" transform="translate(-155.006 -36.859)" fill="#fff"></path></g></g></svg>