<svg xmlns="http://www.w3.org/2000/svg" xmlns:xlink="http://www.w3.org/1999/xlink" width="867" height="1029.142" viewBox="0 0 867 1029.142"><defs><clipPath id="clip-path"><rect id="Rettangolo_143" data-name="Rettangolo 143" width="808.143" height="840.382" fill="none"></rect></clipPath></defs><g id="Raggruppa_89" data-name="Raggruppa 89" transform="translate(-952 -5570.743)"><circle id="Ellisse_6" data-name="Ellisse 6" cx="404" cy="404" r="404" transform="translate(1011 5791.885)" fill="#d19100"></circle><g id="Raggruppa_64" data-name="Raggruppa 64" transform="translate(952 5707.009)"><g id="Raggruppa_63" data-name="Raggruppa 63" transform="translate(0 -0.005)" clip-path="url(#clip-path)"><path id="Tracciato_1847" data-name="Tracciato 1847" d="M811.613,502.186c0,219.979-178.328,398.306-398.306,398.306S15,722.165,15,502.186,193.328,103.88,413.306,103.88,811.613,282.208,811.613,502.186" transform="translate(-9.235 -63.954)" fill="#fcd575"></path><path id="Tracciato_1848" data-name="Tracciato 1848" d="M407.15,898.179A402.255,402.255,0,0,1,250.614,125.485a402.253,402.253,0,0,1,313.072,741.09,399.637,399.637,0,0,1-156.536,31.6m0-796.613a393.217,393.217,0,1,0,153.542,31,391.989,391.989,0,0,0-153.542-31" transform="translate(-3.078 -57.798)"></path><path id="Tracciato_1849" data-name="Tracciato 1849" d="M811.613,413.3c0,219.979-178.328,398.306-398.306,398.306S15,633.28,15,413.3,193.328,14.995,413.306,14.995,811.613,193.323,811.613,413.3" transform="translate(-9.235 -9.23)" fill="#d19100"></path><path id="Tracciato_1850" data-name="Tracciato 1850" d="M404.071,808.137A404.176,404.176,0,0,1,246.787,31.751a404.174,404.174,0,0,1,314.569,744.63,401.548,401.548,0,0,1-157.284,31.756m0-796.613A392.646,392.646,0,0,0,251.278,765.762,392.645,392.645,0,0,0,556.864,42.37,390.076,390.076,0,0,0,404.071,11.525" transform="translate(0 0.005)"></path><rect id="Rettangolo_88" data-name="Rettangolo 88" width="7.686" height="401.516" transform="translate(400.228 403.744)"></rect><rect id="Rettangolo_89" data-name="Rettangolo 89" width="7.686" height="401.516" transform="matrix(0.993, -0.114, 0.114, 0.993, 400.253, 404.182)"></rect><rect id="Rettangolo_90" data-name="Rettangolo 90" width="7.687" height="401.516" transform="translate(400.328 404.615) rotate(-13.091)"></rect><rect id="Rettangolo_91" data-name="Rettangolo 91" width="7.687" height="401.515" transform="translate(400.451 405.036) rotate(-19.636)"></rect><rect id="Rettangolo_92" data-name="Rettangolo 92" width="7.687" height="401.516" transform="translate(400.622 405.44) rotate(-26.182)"></rect><rect id="Rettangolo_93" data-name="Rettangolo 93" width="7.686" height="401.516" transform="matrix(0.841, -0.541, 0.541, 0.841, 400.838, 405.822)"></rect><rect id="Rettangolo_94" data-name="Rettangolo 94" width="7.686" height="401.516" transform="translate(401.096 406.177) rotate(-39.273)"></rect><rect id="Rettangolo_95" data-name="Rettangolo 95" width="7.686" height="401.516" transform="matrix(0.697, -0.717, 0.717, 0.697, 401.393, 406.5)"></rect><rect id="Rettangolo_96" data-name="Rettangolo 96" width="7.687" height="401.516" transform="matrix(0.611, -0.792, 0.792, 0.611, 401.724, 406.788)"></rect><rect id="Rettangolo_97" data-name="Rettangolo 97" width="7.687" height="401.516" transform="translate(402.087 407.035) rotate(-58.909)"></rect><rect id="Rettangolo_98" data-name="Rettangolo 98" width="7.686" height="401.516" transform="matrix(0.415, -0.91, 0.91, 0.415, 402.475, 407.24)"></rect><rect id="Rettangolo_99" data-name="Rettangolo 99" width="7.687" height="401.516" transform="translate(402.883 407.399) rotate(-72)"></rect><rect id="Rettangolo_100" data-name="Rettangolo 100" width="7.686" height="401.516" transform="translate(403.308 407.511) rotate(-78.545)"></rect><rect id="Rettangolo_101" data-name="Rettangolo 101" width="7.687" height="401.516" transform="translate(403.742 407.573) rotate(-85.091)"></rect><rect id="Rettangolo_102" data-name="Rettangolo 102" width="401.516" height="7.687" transform="translate(403.962 399.902) rotate(-1.636)"></rect><rect id="Rettangolo_103" data-name="Rettangolo 103" width="401.516" height="7.687" transform="translate(403.525 399.946) rotate(-8.184)"></rect><rect id="Rettangolo_104" data-name="Rettangolo 104" width="401.516" height="7.687" transform="translate(403.093 400.023) rotate(-14.726)"></rect><rect id="Rettangolo_105" data-name="Rettangolo 105" width="401.516" height="7.687" transform="translate(402.677 400.162) rotate(-21.273)"></rect><rect id="Rettangolo_106" data-name="Rettangolo 106" width="401.516" height="7.686" transform="matrix(0.884, -0.467, 0.467, 0.884, 402.276, 400.341)"></rect><rect id="Rettangolo_107" data-name="Rettangolo 107" width="401.516" height="7.686" transform="translate(401.904 400.574) rotate(-34.364)"></rect><rect id="Rettangolo_108" data-name="Rettangolo 108" width="401.516" height="7.687" transform="matrix(0.756, -0.655, 0.655, 0.756, 401.558, 400.844)"></rect><rect id="Rettangolo_109" data-name="Rettangolo 109" width="401.516" height="7.687" transform="matrix(0.676, -0.737, 0.737, 0.676, 401.238, 401.143)"></rect><rect id="Rettangolo_110" data-name="Rettangolo 110" width="401.516" height="7.687" transform="translate(400.963 401.486) rotate(-54.001)"></rect><rect id="Rettangolo_111" data-name="Rettangolo 111" width="401.516" height="7.687" transform="translate(400.723 401.853) rotate(-60.545)"></rect><rect id="Rettangolo_112" data-name="Rettangolo 112" width="401.516" height="7.686" transform="matrix(0.389, -0.921, 0.921, 0.389, 400.524, 402.245)"></rect><rect id="Rettangolo_113" data-name="Rettangolo 113" width="401.516" height="7.686" transform="translate(400.381 402.66) rotate(-73.635)"></rect><rect id="Rettangolo_114" data-name="Rettangolo 114" width="401.516" height="7.687" transform="matrix(0.171, -0.985, 0.985, 0.171, 400.279, 403.087)"></rect><rect id="Rettangolo_115" data-name="Rettangolo 115" width="401.516" height="7.686" transform="matrix(0.057, -0.998, 0.998, 0.057, 400.232, 403.524)"></rect><rect id="Rettangolo_116" data-name="Rettangolo 116" width="7.686" height="401.516" transform="matrix(0.998, -0.057, 0.057, 0.998, 377.312, 3.102)"></rect><rect id="Rettangolo_117" data-name="Rettangolo 117" width="7.687" height="401.516" transform="translate(331.817 8.764) rotate(-9.818)"></rect><rect id="Rettangolo_118" data-name="Rettangolo 118" width="7.686" height="401.516" transform="translate(287.264 19.575) rotate(-16.364)"></rect><rect id="Rettangolo_119" data-name="Rettangolo 119" width="7.687" height="401.516" transform="translate(244.233 35.394) rotate(-22.909)"></rect><rect id="Rettangolo_120" data-name="Rettangolo 120" width="7.687" height="401.516" transform="translate(203.286 56.016) rotate(-29.455)"></rect><rect id="Rettangolo_121" data-name="Rettangolo 121" width="7.686" height="401.516" transform="translate(164.957 81.17) rotate(-36)"></rect><rect id="Rettangolo_122" data-name="Rettangolo 122" width="7.687" height="401.516" transform="translate(129.745 110.53) rotate(-42.545)"></rect><rect id="Rettangolo_123" data-name="Rettangolo 123" width="7.687" height="401.516" transform="matrix(0.655, -0.756, 0.756, 0.655, 98.109, 143.712)"></rect><rect id="Rettangolo_124" data-name="Rettangolo 124" width="7.686" height="401.516" transform="matrix(0.564, -0.825, 0.825, 0.564, 70.462, 180.284)"></rect><rect id="Rettangolo_125" data-name="Rettangolo 125" width="7.686" height="401.516" transform="matrix(0.467, -0.884, 0.884, 0.467, 47.164, 219.769)"></rect><rect id="Rettangolo_126" data-name="Rettangolo 126" width="7.687" height="401.516" transform="matrix(0.363, -0.932, 0.932, 0.363, 28.519, 261.652)"></rect><rect id="Rettangolo_127" data-name="Rettangolo 127" width="7.687" height="401.516" transform="matrix(0.254, -0.967, 0.967, 0.254, 14.769, 305.388)"></rect><rect id="Rettangolo_128" data-name="Rettangolo 128" width="7.687" height="401.516" transform="translate(6.096 350.406) rotate(-81.818)"></rect><rect id="Rettangolo_129" data-name="Rettangolo 129" width="7.687" height="401.516" transform="translate(2.61 396.12) rotate(-88.364)"></rect><rect id="Rettangolo_130" data-name="Rettangolo 130" width="401.516" height="7.687" transform="translate(3.699 434.269) rotate(-4.908)"></rect><rect id="Rettangolo_131" data-name="Rettangolo 131" width="401.516" height="7.686" transform="matrix(0.98, -0.199, 0.199, 0.98, 9.79, 479.716)"></rect><rect id="Rettangolo_132" data-name="Rettangolo 132" width="401.516" height="7.687" transform="translate(21.019 524.161) rotate(-17.999)"></rect><rect id="Rettangolo_133" data-name="Rettangolo 133" width="401.516" height="7.686" transform="translate(37.241 567.04) rotate(-24.544)"></rect><rect id="Rettangolo_134" data-name="Rettangolo 134" width="401.516" height="7.687" transform="matrix(0.856, -0.516, 0.516, 0.856, 58.249, 607.795)"></rect><rect id="Rettangolo_135" data-name="Rettangolo 135" width="401.516" height="7.687" transform="matrix(0.792, -0.611, 0.611, 0.792, 83.763, 645.886)"></rect><rect id="Rettangolo_136" data-name="Rettangolo 136" width="401.516" height="7.687" transform="translate(113.453 680.819) rotate(-44.182)"></rect><rect id="Rettangolo_137" data-name="Rettangolo 137" width="401.516" height="7.686" transform="matrix(0.633, -0.774, 0.774, 0.633, 146.934, 712.143)"></rect><rect id="Rettangolo_138" data-name="Rettangolo 138" width="401.516" height="7.687" transform="translate(183.761 739.442) rotate(-57.272)"></rect><rect id="Rettangolo_139" data-name="Rettangolo 139" width="401.516" height="7.687" transform="translate(223.469 762.37) rotate(-63.819)"></rect><rect id="Rettangolo_140" data-name="Rettangolo 140" width="401.515" height="7.687" transform="translate(265.523 780.618) rotate(-70.364)"></rect><rect id="Rettangolo_141" data-name="Rettangolo 141" width="401.516" height="7.687" transform="translate(309.385 793.954) rotate(-76.909)"></rect><rect id="Rettangolo_142" data-name="Rettangolo 142" width="401.516" height="7.686" transform="translate(354.481 802.204) rotate(-83.454)"></rect><path id="Tracciato_1851" data-name="Tracciato 1851" d="M844.224,500.087c0,190.059-154.073,344.132-344.132,344.132S155.96,690.145,155.96,500.087,310.033,155.955,500.092,155.955,844.224,310.028,844.224,500.087" transform="translate(-96.021 -96.016)" fill="#fcd575"></path><path id="Tracciato_1852" data-name="Tracciato 1852" d="M490.857,840.749a348.822,348.822,0,1,1,136.2-27.5,347.713,347.713,0,0,1-136.2,27.5m0-688.263a337.291,337.291,0,1,0,131.706,26.588,336.238,336.238,0,0,0-131.706-26.588" transform="translate(-86.786 -86.781)"></path><path id="Tracciato_1853" data-name="Tracciato 1853" d="M485.38,695.419c4,.04,7.833.09,11.293.371,29.875,2.421,59.583,6.058,89.088,11.351a464.293,464.293,0,0,1,48.486,11.27q7.385,2.154,14.679,4.6a172.253,172.253,0,1,0-229.178-162.6q0,6.655.5,13.187-8.019.035-16.227.343c-22.952,1.44-65.8,5.393-79.095,25.126-13.441,23.1,22.073,44.125,40.589,51.387,27.685,11.069,48.858,14.44,79.285,15.994-2.089-.106-2.537,10.61-2.269,12.057a15.8,15.8,0,0,0,6.57,9.813c9.3,6.943,23.616,6.973,36.283,7.1" transform="translate(-198.22 -238.99)" fill="#d19100"></path><path id="Tracciato_1854" data-name="Tracciato 1854" d="M639.761,719.863l-1.868-.621c-5.1-1.7-9.834-3.179-14.473-4.533a461.008,461.008,0,0,0-47.884-11.129c-28.08-5.037-57.041-8.727-88.541-11.28-3.165-.257-6.653-.31-10.886-.352l-.613-.006c-13.314-.132-28.4-.282-39.06-8.24-4.858-3.628-7.815-8.13-8.788-13.381a37.912,37.912,0,0,1,.081-7.294c.016-.167.032-.33.049-.49-25.626-1.673-46.8-5.243-73.619-15.965-3.829-1.5-37.943-15.434-45.664-37.61a25.785,25.785,0,0,1,2.232-22.029l.2-.322c14.136-20.983,54.434-25.835,83.515-27.659l.138-.007c3.387-.131,6.847-.225,10.342-.283-.1-2.5-.155-5-.155-7.486A178,178,0,1,1,727.21,655.217a178.439,178.439,0,0,1-85.591,64ZM476.227,680.419c4.463.045,8.159.1,11.7.389,31.874,2.583,61.2,6.32,89.64,11.423a472.465,472.465,0,0,1,49.082,11.41c4.2,1.225,8.466,2.55,12.992,4.036A166.569,166.569,0,1,0,416.3,551.176c0,4.244.162,8.535.481,12.752l.468,6.173-6.191.027c-5.4.023-10.768.136-15.959.336-11,.691-27.311,2.02-42.125,5.553-16.487,3.932-27.377,9.61-32.375,16.88a14.17,14.17,0,0,0-1.214,12.275c4.26,12.236,23.213,24.482,39.02,30.681,28.08,11.226,48.889,14.143,77.471,15.6h0l-.588,11.515a4.837,4.837,0,0,0,4.529-2.413c-.547,1.349-.895,6.251-.8,7.834a10.242,10.242,0,0,0,4.317,6.072c7.638,5.7,20.728,5.834,32.276,5.949Z" transform="translate(-189.009 -229.755)"></path><path id="Tracciato_1855" data-name="Tracciato 1855" d="M558.642,628.772A52.465,52.465,0,1,1,502.3,580.489a52.465,52.465,0,0,1,56.337,48.283" transform="translate(-279.433 -357.294)" fill="#fcd575"></path><path id="Tracciato_1856" data-name="Tracciato 1856" d="M499.828,682.834a56.561,56.561,0,1,1,4.377-.169c-1.467.113-2.929.168-4.377.169m.118-104.935q-1.89,0-3.794.146a48.43,48.43,0,0,0,3.682,96.718q1.864,0,3.752-.145a48.431,48.431,0,0,0-3.64-96.72" transform="translate(-272.97 -350.827)"></path><path id="Tracciato_1857" data-name="Tracciato 1857" d="M855.316,537.7a4.979,4.979,0,0,1-3.562-1.493,47.836,47.836,0,0,0-55.169-8.529,5,5,0,0,1-4.692-8.822c21.609-11.493,49.78-7.142,66.985,10.344a5,5,0,0,1-3.562,8.5" transform="translate(-485.917 -315.513)"></path><path id="Tracciato_1858" data-name="Tracciato 1858" d="M596.166,519.915a5.747,5.747,0,0,1-4.11-1.722,50.254,50.254,0,0,0-57.944-8.959,5.765,5.765,0,1,1-5.414-10.18c23.091-12.28,53.194-7.632,71.577,11.053a5.765,5.765,0,0,1-4.109,9.808" transform="translate(-323.623 -303.051)"></path><path id="Tracciato_1859" data-name="Tracciato 1859" d="M870.563,1094.79a3.846,3.846,0,0,1-3.494-5.44,23.211,23.211,0,0,0-.747-20.908,3.843,3.843,0,1,1,6.659-3.839,31.013,31.013,0,0,1,1.08,27.939,3.845,3.845,0,0,1-3.5,2.248" transform="translate(-533.057 -654.263)"></path><path id="Tracciato_1860" data-name="Tracciato 1860" d="M576.385,699.005a20.55,20.55,0,1,1-22.066-18.912,20.55,20.55,0,0,1,22.066,18.912" transform="translate(-329.598 -418.677)"></path><path id="Tracciato_1861" data-name="Tracciato 1861" d="M522.866,960.652c-.067,0-.134,0-.2,0-14.732-.563-23.549-.648-32.075-.73-9.624-.092-18.714-.179-35.327-.91l-.053,0q-4.55-.247-9.132-.476c-30.676-1.566-62.4-3.186-90.827-14.552-3.808-1.493-37.7-15.331-45.333-37.264a24.9,24.9,0,0,1,2.186-21.55l.181-.289c13.993-20.772,54.113-25.589,83.073-27.406l.125-.006c51.465-1.986,96.785,4.438,149,14.7a5.188,5.188,0,0,1-2,10.182c-51.476-10.113-96.1-16.451-146.534-14.512-11.024.693-27.368,2.024-42.228,5.569-16.644,3.969-27.655,9.733-32.73,17.133a14.721,14.721,0,0,0-1.27,12.771c4.32,12.409,23.428,24.783,39.354,31.029,26.86,10.738,57.706,12.313,87.536,13.837q4.584.234,9.14.477c16.418.722,25.415.808,34.942.9,8.6.082,17.493.168,32.373.737a5.188,5.188,0,0,1-.195,10.373" transform="translate(-189.884 -527.694)"></path><path id="Tracciato_1862" data-name="Tracciato 1862" d="M375.187,877.576l-.442-1.721-7.388-6.421-2.643.432c-25.775,4.2-42.04,11.794-49.728,23.2l-.2.319a24.679,24.679,0,0,0-2.135,21.084c7.354,21.123,39.784,34.369,43.422,35.8,3.412,1.364,7.024,2.635,10.737,3.778l5.141,1.583,1.885-5.039c11.788-31.511,1.783-71.334,1.351-73.014" transform="translate(-191.606 -535.286)"></path><path id="Tracciato_1863" data-name="Tracciato 1863" d="M834.6,1169.42c-20.419-2.538-45.7-6.563-72.458-10.823-31.591-5.03-64.259-10.231-89.7-13.047l-.231-.03c-.942-.145-4.226-.381-7.4-.61-16.325-1.172-24.21-2.01-27.542-3.852a28.062,28.062,0,0,1-14.218-20.688,35.64,35.64,0,0,1,.484-10.358l10.625,1.7a25.985,25.985,0,0,0-.436,7.279l.012.092a17.232,17.232,0,0,0,8.653,12.506c2.829,1.122,17.085,2.146,23.192,2.584,4.268.307,6.8.493,8.148.689,25.679,2.845,58.431,8.061,90.1,13.1,26.668,4.247,51.857,8.257,72.093,10.772Z" transform="translate(-383.472 -683.405)"></path><path id="Tracciato_1864" data-name="Tracciato 1864" d="M962.311,1304.567c-6.645-29.621-9.277-59.128-10.116-88.574-1.291-.359-2.584-.71-3.873-1.074-20.278-5.725-49.028.175-68.838-7,1.7,15.534,3.954,30.939,7.025,46.157,16.182,77,51.911,97.927,82.849,74.506a223.068,223.068,0,0,1-7.047-24.016" transform="translate(-541.477 -743.685)"></path><path id="Tracciato_1865" data-name="Tracciato 1865" d="M1054.623,331.47c-38.959-14.382-15.914,64.9-13.918,80.163,4.217,20.53,8.212,41.836,10.747,62.478,13.629,96.615-7.73,192.58,14.073,289.778,30.313,128.767,139.127,132.231,186.8,29.983,33.4-72.255,12-160.519-23.546-242.719-23.248-53.562-58.885-106.712-100.9-155.417a491.5,491.5,0,0,0-34.152-35.99c-11.6-11.181-29.768-25.368-39.076-28.265Z" transform="translate(-635.456 -203.007)"></path><path id="Tracciato_1866" data-name="Tracciato 1866" d="M882.621,333.495c7.812-1,15.667-1.648,23.534-2q11.96-.537,23.938-.169,4.534.137,9.062.4Q933.542,326,927.625,320.4c-11.6-11.182-29.767-25.369-39.075-28.266l-.029-.011c-24.164-8.92-24.475,18.192-20.75,43.712q7.386-1.4,14.85-2.34" transform="translate(-533.19 -178.782)"></path><path id="Tracciato_1867" data-name="Tracciato 1867" d="M811.23,652.582A52.465,52.465,0,1,1,754.893,604.3a52.465,52.465,0,0,1,56.337,48.283" transform="translate(-434.945 -371.953)" fill="#fcd575"></path><path id="Tracciato_1868" data-name="Tracciato 1868" d="M751.439,706.3a57.079,57.079,0,1,1,57-61.462h0a57.142,57.142,0,0,1-52.527,61.29q-2.244.172-4.472.172m.125-104.935q-1.842,0-3.707.143a47.829,47.829,0,1,0,3.707-.143" transform="translate(-427.555 -364.566)"></path><path id="Tracciato_1869" data-name="Tracciato 1869" d="M837.405,687.176a25.166,25.166,0,1,1-27.023-23.16,25.166,25.166,0,0,1,27.023,23.16" transform="translate(-484.627 -408.77)"></path></g></g><circle id="Ellisse_9" data-name="Ellisse 9" cx="364" cy="364" r="364" transform="translate(1042 5713.482)" fill="#d19100" opacity="0.369"></circle><g id="Raggruppa_72" data-name="Raggruppa 72" transform="translate(1010.857 5570.748)"><g id="Raggruppa_63-2" data-name="Raggruppa 63" transform="translate(0 -0.005)" clip-path="url(#clip-path)"><path id="Tracciato_1847-2" data-name="Tracciato 1847" d="M811.613,502.186c0,219.979-178.328,398.306-398.306,398.306S15,722.165,15,502.186,193.328,103.88,413.306,103.88,811.613,282.208,811.613,502.186" transform="translate(-9.235 -63.954)" fill="#fcd575"></path><path id="Tracciato_1848-2" data-name="Tracciato 1848" d="M407.15,898.179A402.255,402.255,0,0,1,250.614,125.485a402.253,402.253,0,0,1,313.072,741.09,399.637,399.637,0,0,1-156.536,31.6m0-796.613a393.217,393.217,0,1,0,153.542,31,391.989,391.989,0,0,0-153.542-31" transform="translate(-3.078 -57.798)"></path><path id="Tracciato_1849-2" data-name="Tracciato 1849" d="M811.613,413.3c0,219.979-178.328,398.306-398.306,398.306S15,633.28,15,413.3,193.328,14.995,413.306,14.995,811.613,193.323,811.613,413.3" transform="translate(-9.235 -9.23)" fill="#d19100"></path><path id="Tracciato_1850-2" data-name="Tracciato 1850" d="M404.071,808.137A404.176,404.176,0,0,1,246.787,31.751a404.174,404.174,0,0,1,314.569,744.63,401.548,401.548,0,0,1-157.284,31.756m0-796.613A392.646,392.646,0,0,0,251.278,765.762,392.645,392.645,0,0,0,556.864,42.37,390.076,390.076,0,0,0,404.071,11.525" transform="translate(0 0.005)"></path><rect id="Rettangolo_88-2" data-name="Rettangolo 88" width="7.686" height="401.516" transform="translate(400.228 403.744)"></rect><rect id="Rettangolo_89-2" data-name="Rettangolo 89" width="7.686" height="401.516" transform="matrix(0.993, -0.114, 0.114, 0.993, 400.253, 404.182)"></rect><rect id="Rettangolo_90-2" data-name="Rettangolo 90" width="7.687" height="401.516" transform="translate(400.328 404.615) rotate(-13.091)"></rect><rect id="Rettangolo_91-2" data-name="Rettangolo 91" width="7.687" height="401.515" transform="translate(400.451 405.036) rotate(-19.636)"></rect><rect id="Rettangolo_92-2" data-name="Rettangolo 92" width="7.687" height="401.516" transform="translate(400.622 405.44) rotate(-26.182)"></rect><rect id="Rettangolo_93-2" data-name="Rettangolo 93" width="7.686" height="401.516" transform="matrix(0.841, -0.541, 0.541, 0.841, 400.838, 405.822)"></rect><rect id="Rettangolo_94-2" data-name="Rettangolo 94" width="7.686" height="401.516" transform="translate(401.096 406.177) rotate(-39.273)"></rect><rect id="Rettangolo_95-2" data-name="Rettangolo 95" width="7.686" height="401.516" transform="matrix(0.697, -0.717, 0.717, 0.697, 401.393, 406.5)"></rect><rect id="Rettangolo_96-2" data-name="Rettangolo 96" width="7.687" height="401.516" transform="matrix(0.611, -0.792, 0.792, 0.611, 401.724, 406.788)"></rect><rect id="Rettangolo_97-2" data-name="Rettangolo 97" width="7.687" height="401.516" transform="translate(402.087 407.035) rotate(-58.909)"></rect><rect id="Rettangolo_98-2" data-name="Rettangolo 98" width="7.686" height="401.516" transform="matrix(0.415, -0.91, 0.91, 0.415, 402.475, 407.24)"></rect><rect id="Rettangolo_99-2" data-name="Rettangolo 99" width="7.687" height="401.516" transform="translate(402.883 407.399) rotate(-72)"></rect><rect id="Rettangolo_100-2" data-name="Rettangolo 100" width="7.686" height="401.516" transform="translate(403.308 407.511) rotate(-78.545)"></rect><rect id="Rettangolo_101-2" data-name="Rettangolo 101" width="7.687" height="401.516" transform="translate(403.742 407.573) rotate(-85.091)"></rect><rect id="Rettangolo_102-2" data-name="Rettangolo 102" width="401.516" height="7.687" transform="translate(403.962 399.902) rotate(-1.636)"></rect><rect id="Rettangolo_103-2" data-name="Rettangolo 103" width="401.516" height="7.687" transform="translate(403.525 399.946) rotate(-8.184)"></rect><rect id="Rettangolo_104-2" data-name="Rettangolo 104" width="401.516" height="7.687" transform="translate(403.093 400.023) rotate(-14.726)"></rect><rect id="Rettangolo_105-2" data-name="Rettangolo 105" width="401.516" height="7.687" transform="translate(402.677 400.162) rotate(-21.273)"></rect><rect id="Rettangolo_106-2" data-name="Rettangolo 106" width="401.516" height="7.686" transform="matrix(0.884, -0.467, 0.467, 0.884, 402.276, 400.341)"></rect><rect id="Rettangolo_107-2" data-name="Rettangolo 107" width="401.516" height="7.686" transform="translate(401.904 400.574) rotate(-34.364)"></rect><rect id="Rettangolo_108-2" data-name="Rettangolo 108" width="401.516" height="7.687" transform="matrix(0.756, -0.655, 0.655, 0.756, 401.558, 400.844)"></rect><rect id="Rettangolo_109-2" data-name="Rettangolo 109" width="401.516" height="7.687" transform="matrix(0.676, -0.737, 0.737, 0.676, 401.238, 401.143)"></rect><rect id="Rettangolo_110-2" data-name="Rettangolo 110" width="401.516" height="7.687" transform="translate(400.963 401.486) rotate(-54.001)"></rect><rect id="Rettangolo_111-2" data-name="Rettangolo 111" width="401.516" height="7.687" transform="translate(400.723 401.853) rotate(-60.545)"></rect><rect id="Rettangolo_112-2" data-name="Rettangolo 112" width="401.516" height="7.686" transform="matrix(0.389, -0.921, 0.921, 0.389, 400.524, 402.245)"></rect><rect id="Rettangolo_113-2" data-name="Rettangolo 113" width="401.516" height="7.686" transform="translate(400.381 402.66) rotate(-73.635)"></rect><rect id="Rettangolo_114-2" data-name="Rettangolo 114" width="401.516" height="7.687" transform="matrix(0.171, -0.985, 0.985, 0.171, 400.279, 403.087)"></rect><rect id="Rettangolo_115-2" data-name="Rettangolo 115" width="401.516" height="7.686" transform="matrix(0.057, -0.998, 0.998, 0.057, 400.232, 403.524)"></rect><rect id="Rettangolo_116-2" data-name="Rettangolo 116" width="7.686" height="401.516" transform="matrix(0.998, -0.057, 0.057, 0.998, 377.312, 3.102)"></rect><rect id="Rettangolo_117-2" data-name="Rettangolo 117" width="7.687" height="401.516" transform="translate(331.817 8.764) rotate(-9.818)"></rect><rect id="Rettangolo_118-2" data-name="Rettangolo 118" width="7.686" height="401.516" transform="translate(287.264 19.575) rotate(-16.364)"></rect><rect id="Rettangolo_119-2" data-name="Rettangolo 119" width="7.687" height="401.516" transform="translate(244.233 35.394) rotate(-22.909)"></rect><rect id="Rettangolo_120-2" data-name="Rettangolo 120" width="7.687" height="401.516" transform="translate(203.286 56.016) rotate(-29.455)"></rect><rect id="Rettangolo_121-2" data-name="Rettangolo 121" width="7.686" height="401.516" transform="translate(164.957 81.17) rotate(-36)"></rect><rect id="Rettangolo_122-2" data-name="Rettangolo 122" width="7.687" height="401.516" transform="translate(129.745 110.53) rotate(-42.545)"></rect><rect id="Rettangolo_123-2" data-name="Rettangolo 123" width="7.687" height="401.516" transform="matrix(0.655, -0.756, 0.756, 0.655, 98.109, 143.712)"></rect><rect id="Rettangolo_124-2" data-name="Rettangolo 124" width="7.686" height="401.516" transform="matrix(0.564, -0.825, 0.825, 0.564, 70.462, 180.284)"></rect><rect id="Rettangolo_125-2" data-name="Rettangolo 125" width="7.686" height="401.516" transform="matrix(0.467, -0.884, 0.884, 0.467, 47.164, 219.769)"></rect><rect id="Rettangolo_126-2" data-name="Rettangolo 126" width="7.687" height="401.516" transform="matrix(0.363, -0.932, 0.932, 0.363, 28.519, 261.652)"></rect><rect id="Rettangolo_127-2" data-name="Rettangolo 127" width="7.687" height="401.516" transform="matrix(0.254, -0.967, 0.967, 0.254, 14.769, 305.388)"></rect><rect id="Rettangolo_128-2" data-name="Rettangolo 128" width="7.687" height="401.516" transform="translate(6.096 350.406) rotate(-81.818)"></rect><rect id="Rettangolo_129-2" data-name="Rettangolo 129" width="7.687" height="401.516" transform="translate(2.61 396.12) rotate(-88.364)"></rect><rect id="Rettangolo_130-2" data-name="Rettangolo 130" width="401.516" height="7.687" transform="translate(3.699 434.269) rotate(-4.908)"></rect><rect id="Rettangolo_131-2" data-name="Rettangolo 131" width="401.516" height="7.686" transform="matrix(0.98, -0.199, 0.199, 0.98, 9.79, 479.716)"></rect><rect id="Rettangolo_132-2" data-name="Rettangolo 132" width="401.516" height="7.687" transform="translate(21.019 524.161) rotate(-17.999)"></rect><rect id="Rettangolo_133-2" data-name="Rettangolo 133" width="401.516" height="7.686" transform="translate(37.241 567.04) rotate(-24.544)"></rect><rect id="Rettangolo_134-2" data-name="Rettangolo 134" width="401.516" height="7.687" transform="matrix(0.856, -0.516, 0.516, 0.856, 58.249, 607.795)"></rect><rect id="Rettangolo_135-2" data-name="Rettangolo 135" width="401.516" height="7.687" transform="matrix(0.792, -0.611, 0.611, 0.792, 83.763, 645.886)"></rect><rect id="Rettangolo_136-2" data-name="Rettangolo 136" width="401.516" height="7.687" transform="translate(113.453 680.819) rotate(-44.182)"></rect><rect id="Rettangolo_137-2" data-name="Rettangolo 137" width="401.516" height="7.686" transform="matrix(0.633, -0.774, 0.774, 0.633, 146.934, 712.143)"></rect><rect id="Rettangolo_138-2" data-name="Rettangolo 138" width="401.516" height="7.687" transform="translate(183.761 739.442) rotate(-57.272)"></rect><rect id="Rettangolo_139-2" data-name="Rettangolo 139" width="401.516" height="7.687" transform="translate(223.469 762.37) rotate(-63.819)"></rect><rect id="Rettangolo_140-2" data-name="Rettangolo 140" width="401.515" height="7.687" transform="translate(265.523 780.618) rotate(-70.364)"></rect><rect id="Rettangolo_141-2" data-name="Rettangolo 141" width="401.516" height="7.687" transform="translate(309.385 793.954) rotate(-76.909)"></rect><rect id="Rettangolo_142-2" data-name="Rettangolo 142" width="401.516" height="7.686" transform="translate(354.481 802.204) rotate(-83.454)"></rect><path id="Tracciato_1851-2" data-name="Tracciato 1851" d="M844.224,500.087c0,190.059-154.073,344.132-344.132,344.132S155.96,690.145,155.96,500.087,310.033,155.955,500.092,155.955,844.224,310.028,844.224,500.087" transform="translate(-96.021 -96.016)" fill="#fcd575"></path><path id="Tracciato_1852-2" data-name="Tracciato 1852" d="M490.857,840.749a348.822,348.822,0,1,1,136.2-27.5,347.713,347.713,0,0,1-136.2,27.5m0-688.263a337.291,337.291,0,1,0,131.706,26.588,336.238,336.238,0,0,0-131.706-26.588" transform="translate(-86.786 -86.781)"></path><path id="Tracciato_1853-2" data-name="Tracciato 1853" d="M485.38,695.419c4,.04,7.833.09,11.293.371,29.875,2.421,59.583,6.058,89.088,11.351a464.293,464.293,0,0,1,48.486,11.27q7.385,2.154,14.679,4.6a172.253,172.253,0,1,0-229.178-162.6q0,6.655.5,13.187-8.019.035-16.227.343c-22.952,1.44-65.8,5.393-79.095,25.126-13.441,23.1,22.073,44.125,40.589,51.387,27.685,11.069,48.858,14.44,79.285,15.994-2.089-.106-2.537,10.61-2.269,12.057a15.8,15.8,0,0,0,6.57,9.813c9.3,6.943,23.616,6.973,36.283,7.1" transform="translate(-198.22 -238.99)" fill="#d19100"></path><path id="Tracciato_1854-2" data-name="Tracciato 1854" d="M639.761,719.863l-1.868-.621c-5.1-1.7-9.834-3.179-14.473-4.533a461.008,461.008,0,0,0-47.884-11.129c-28.08-5.037-57.041-8.727-88.541-11.28-3.165-.257-6.653-.31-10.886-.352l-.613-.006c-13.314-.132-28.4-.282-39.06-8.24-4.858-3.628-7.815-8.13-8.788-13.381a37.912,37.912,0,0,1,.081-7.294c.016-.167.032-.33.049-.49-25.626-1.673-46.8-5.243-73.619-15.965-3.829-1.5-37.943-15.434-45.664-37.61a25.785,25.785,0,0,1,2.232-22.029l.2-.322c14.136-20.983,54.434-25.835,83.515-27.659l.138-.007c3.387-.131,6.847-.225,10.342-.283-.1-2.5-.155-5-.155-7.486A178,178,0,1,1,727.21,655.217a178.439,178.439,0,0,1-85.591,64ZM476.227,680.419c4.463.045,8.159.1,11.7.389,31.874,2.583,61.2,6.32,89.64,11.423a472.465,472.465,0,0,1,49.082,11.41c4.2,1.225,8.466,2.55,12.992,4.036A166.569,166.569,0,1,0,416.3,551.176c0,4.244.162,8.535.481,12.752l.468,6.173-6.191.027c-5.4.023-10.768.136-15.959.336-11,.691-27.311,2.02-42.125,5.553-16.487,3.932-27.377,9.61-32.375,16.88a14.17,14.17,0,0,0-1.214,12.275c4.26,12.236,23.213,24.482,39.02,30.681,28.08,11.226,48.889,14.143,77.471,15.6h0l-.588,11.515a4.837,4.837,0,0,0,4.529-2.413c-.547,1.349-.895,6.251-.8,7.834a10.242,10.242,0,0,0,4.317,6.072c7.638,5.7,20.728,5.834,32.276,5.949Z" transform="translate(-189.009 -229.755)"></path><path id="Tracciato_1855-2" data-name="Tracciato 1855" d="M558.642,628.772A52.465,52.465,0,1,1,502.3,580.489a52.465,52.465,0,0,1,56.337,48.283" transform="translate(-279.433 -357.294)" fill="#fcd575"></path><path id="Tracciato_1856-2" data-name="Tracciato 1856" d="M499.828,682.834a56.561,56.561,0,1,1,4.377-.169c-1.467.113-2.929.168-4.377.169m.118-104.935q-1.89,0-3.794.146a48.43,48.43,0,0,0,3.682,96.718q1.864,0,3.752-.145a48.431,48.431,0,0,0-3.64-96.72" transform="translate(-272.97 -350.827)"></path><path id="Tracciato_1857-2" data-name="Tracciato 1857" d="M855.316,537.7a4.979,4.979,0,0,1-3.562-1.493,47.836,47.836,0,0,0-55.169-8.529,5,5,0,0,1-4.692-8.822c21.609-11.493,49.78-7.142,66.985,10.344a5,5,0,0,1-3.562,8.5" transform="translate(-485.917 -315.513)"></path><path id="Tracciato_1858-2" data-name="Tracciato 1858" d="M596.166,519.915a5.747,5.747,0,0,1-4.11-1.722,50.254,50.254,0,0,0-57.944-8.959,5.765,5.765,0,1,1-5.414-10.18c23.091-12.28,53.194-7.632,71.577,11.053a5.765,5.765,0,0,1-4.109,9.808" transform="translate(-323.623 -303.051)"></path><path id="Tracciato_1859-2" data-name="Tracciato 1859" d="M870.563,1094.79a3.846,3.846,0,0,1-3.494-5.44,23.211,23.211,0,0,0-.747-20.908,3.843,3.843,0,1,1,6.659-3.839,31.013,31.013,0,0,1,1.08,27.939,3.845,3.845,0,0,1-3.5,2.248" transform="translate(-533.057 -654.263)"></path><path id="Tracciato_1860-2" data-name="Tracciato 1860" d="M576.385,699.005a20.55,20.55,0,1,1-22.066-18.912,20.55,20.55,0,0,1,22.066,18.912" transform="translate(-329.598 -418.677)"></path><path id="Tracciato_1861-2" data-name="Tracciato 1861" d="M522.866,960.652c-.067,0-.134,0-.2,0-14.732-.563-23.549-.648-32.075-.73-9.624-.092-18.714-.179-35.327-.91l-.053,0q-4.55-.247-9.132-.476c-30.676-1.566-62.4-3.186-90.827-14.552-3.808-1.493-37.7-15.331-45.333-37.264a24.9,24.9,0,0,1,2.186-21.55l.181-.289c13.993-20.772,54.113-25.589,83.073-27.406l.125-.006c51.465-1.986,96.785,4.438,149,14.7a5.188,5.188,0,0,1-2,10.182c-51.476-10.113-96.1-16.451-146.534-14.512-11.024.693-27.368,2.024-42.228,5.569-16.644,3.969-27.655,9.733-32.73,17.133a14.721,14.721,0,0,0-1.27,12.771c4.32,12.409,23.428,24.783,39.354,31.029,26.86,10.738,57.706,12.313,87.536,13.837q4.584.234,9.14.477c16.418.722,25.415.808,34.942.9,8.6.082,17.493.168,32.373.737a5.188,5.188,0,0,1-.195,10.373" transform="translate(-189.884 -527.694)"></path><path id="Tracciato_1862-2" data-name="Tracciato 1862" d="M375.187,877.576l-.442-1.721-7.388-6.421-2.643.432c-25.775,4.2-42.04,11.794-49.728,23.2l-.2.319a24.679,24.679,0,0,0-2.135,21.084c7.354,21.123,39.784,34.369,43.422,35.8,3.412,1.364,7.024,2.635,10.737,3.778l5.141,1.583,1.885-5.039c11.788-31.511,1.783-71.334,1.351-73.014" transform="translate(-191.606 -535.286)"></path><path id="Tracciato_1863-2" data-name="Tracciato 1863" d="M834.6,1169.42c-20.419-2.538-45.7-6.563-72.458-10.823-31.591-5.03-64.259-10.231-89.7-13.047l-.231-.03c-.942-.145-4.226-.381-7.4-.61-16.325-1.172-24.21-2.01-27.542-3.852a28.062,28.062,0,0,1-14.218-20.688,35.64,35.64,0,0,1,.484-10.358l10.625,1.7a25.985,25.985,0,0,0-.436,7.279l.012.092a17.232,17.232,0,0,0,8.653,12.506c2.829,1.122,17.085,2.146,23.192,2.584,4.268.307,6.8.493,8.148.689,25.679,2.845,58.431,8.061,90.1,13.1,26.668,4.247,51.857,8.257,72.093,10.772Z" transform="translate(-383.472 -683.405)"></path><path id="Tracciato_1864-2" data-name="Tracciato 1864" d="M962.311,1304.567c-6.645-29.621-9.277-59.128-10.116-88.574-1.291-.359-2.584-.71-3.873-1.074-20.278-5.725-49.028.175-68.838-7,1.7,15.534,3.954,30.939,7.025,46.157,16.182,77,51.911,97.927,82.849,74.506a223.068,223.068,0,0,1-7.047-24.016" transform="translate(-541.477 -743.685)"></path><path id="Tracciato_1865-2" data-name="Tracciato 1865" d="M1054.623,331.47c-38.959-14.382-15.914,64.9-13.918,80.163,4.217,20.53,8.212,41.836,10.747,62.478,13.629,96.615-7.73,192.58,14.073,289.778,30.313,128.767,139.127,132.231,186.8,29.983,33.4-72.255,12-160.519-23.546-242.719-23.248-53.562-58.885-106.712-100.9-155.417a491.5,491.5,0,0,0-34.152-35.99c-11.6-11.181-29.768-25.368-39.076-28.265Z" transform="translate(-635.456 -203.007)"></path><path id="Tracciato_1866-2" data-name="Tracciato 1866" d="M882.621,333.495c7.812-1,15.667-1.648,23.534-2q11.96-.537,23.938-.169,4.534.137,9.062.4Q933.542,326,927.625,320.4c-11.6-11.182-29.767-25.369-39.075-28.266l-.029-.011c-24.164-8.92-24.475,18.192-20.75,43.712q7.386-1.4,14.85-2.34" transform="translate(-533.19 -178.782)"></path><path id="Tracciato_1867-2" data-name="Tracciato 1867" d="M811.23,652.582A52.465,52.465,0,1,1,754.893,604.3a52.465,52.465,0,0,1,56.337,48.283" transform="translate(-434.945 -371.953)" fill="#fcd575"></path><path id="Tracciato_1868-2" data-name="Tracciato 1868" d="M751.439,706.3a57.079,57.079,0,1,1,57-61.462h0a57.142,57.142,0,0,1-52.527,61.29q-2.244.172-4.472.172m.125-104.935q-1.842,0-3.707.143a47.829,47.829,0,1,0,3.707-.143" transform="translate(-427.555 -364.566)"></path><path id="Tracciato_1869-2" data-name="Tracciato 1869" d="M837.405,687.176a25.166,25.166,0,1,1-27.023-23.16,25.166,25.166,0,0,1,27.023,23.16" transform="translate(-484.627 -408.77)"></path></g></g></g></svg>