<svg xmlns="http://www.w3.org/2000/svg" xmlns:xlink="http://www.w3.org/1999/xlink" id="Componente_3_9" data-name="Componente 3 &#x2013; 9" width="88" height="90" viewBox="0 0 88 90"><defs><clipPath id="clip-path"><rect id="Rettangolo_177" data-name="Rettangolo 177" width="42.3" height="37.589" transform="translate(0 0)" fill="none"></rect></clipPath></defs><rect id="Rettangolo_8" data-name="Rettangolo 8" width="78" height="80" transform="translate(10 10)"></rect><g id="Rettangolo_17" data-name="Rettangolo 17" fill="#a35900" stroke="#000" stroke-linejoin="round" stroke-width="7"><rect width="78" height="80" stroke="none"></rect><rect x="3.5" y="3.5" width="71" height="73" fill="none"></rect></g><path id="Tracciato_2140" data-name="Tracciato 2140" d="M42.3,19.079A4.638,4.638,0,0,1,39.727,23.3c.009.116.016.233.02.349q.014.349,0,.7c0,.117-.011.233-.02.349,0,7.113-8.288,12.893-18.513,12.893S2.7,31.812,2.7,24.7c-.009-.116-.016-.233-.02-.349q-.014-.349,0-.7c0-.117.011-.233.02-.349a4.636,4.636,0,1,1,5.113-7.589A22.676,22.676,0,0,1,20.2,11.807L22.548.788a.986.986,0,0,1,.428-.626.984.984,0,0,1,.747-.136L31.5,1.582a3.176,3.176,0,1,1-.413,1.937l-6.8-1.429L22.23,12A22.621,22.621,0,0,1,34.456,15.9,4.636,4.636,0,0,1,42.3,19.079M10.786,23.47a3.177,3.177,0,1,0-.241-1.215,3.179,3.179,0,0,0,.241,1.215m18.188,7.623a.857.857,0,0,0-.587-1.471,1.039,1.039,0,0,0-.63.222,10.414,10.414,0,0,1-6.637,1.937,10.375,10.375,0,0,1-1.755-.071,10.242,10.242,0,0,1-1.718-.365,10.386,10.386,0,0,1-3.132-1.565.857.857,0,0,0-1.207,1.207,12.19,12.19,0,0,0,7.843,2.445A12.191,12.191,0,0,0,27.221,32.1C27.843,31.779,28.436,31.408,28.973,31.092Zm.672-5.652a3.6,3.6,0,1,0-1.223.117A3.752,3.752,0,0,0,29.646,25.44Z" transform="translate(17.85 21.202)" fill="#fff"></path></svg>