<svg xmlns="http://www.w3.org/2000/svg" xmlns:xlink="http://www.w3.org/1999/xlink" id="Componente_2_1" data-name="Componente 2 &#x2013; 1" width="88" height="90" viewBox="0 0 88 90"><defs><clipPath id="clip-path"><rect id="Rettangolo_10" data-name="Rettangolo 10" width="37.407" height="31" fill="none"></rect></clipPath></defs><rect id="Rettangolo_6" data-name="Rettangolo 6" width="78" height="80" transform="translate(10 10)"></rect><g id="Rettangolo_16" data-name="Rettangolo 16" fill="#a35900" stroke="#000" stroke-linejoin="round" stroke-width="7"><rect width="78" height="80" stroke="none"></rect><rect x="3.5" y="3.5" width="71" height="73" fill="none"></rect></g><g id="Raggruppa_8" data-name="Raggruppa 8" transform="translate(20 24.999)"><g id="Raggruppa_7" data-name="Raggruppa 7" transform="translate(0 0.001)" clip-path="url(#clip-path)"><path id="Tracciato_43" data-name="Tracciato 43" d="M2.572,13.346,22.66,4.694C32.225.715,34.213.024,35.508,0a2.265,2.265,0,0,1,1.335.4,1.451,1.451,0,0,1,.49.933,6.071,6.071,0,0,1,.058,1.356c-.518,5.446-2.761,18.664-3.9,24.764-.483,2.581-1.433,3.447-2.354,3.531-2,.184-3.519-1.322-5.457-2.592L17.991,23.23c-3.4-2.241-1.2-3.473.742-5.486.507-.527,9.32-8.543,9.491-9.27a.706.706,0,0,0-.16-.609.8.8,0,0,0-.713-.069q-.456.1-14.529,9.6a6.54,6.54,0,0,1-3.735,1.38,24.58,24.58,0,0,1-5.354-1.267C1.575,16.811-.139,16.44.01,15.249q.117-.93,2.562-1.9Z" transform="translate(-0.001 -0.001)" fill="#fff" fill-rule="evenodd"></path></g></g></svg>