<svg xmlns="http://www.w3.org/2000/svg" xmlns:xlink="http://www.w3.org/1999/xlink" width="683" height="270.844" viewBox="0 0 683 270.844"><defs><clipPath id="clip-path"><rect id="Rettangolo_11" data-name="Rettangolo 11" width="594.43" height="247.285" fill="none"></rect></clipPath></defs><g id="Raggruppa_111" data-name="Raggruppa 111" transform="translate(-1075 -2786.904)"><ellipse id="Ellisse_5" data-name="Ellisse 5" cx="322" cy="34.362" rx="322" ry="34.362" transform="translate(1114 2989.023)" opacity="0.297"></ellipse><g id="Raggruppa_34" data-name="Raggruppa 34" transform="translate(1075 2786.904)"><g id="Raggruppa_9" data-name="Raggruppa 9" clip-path="url(#clip-path)"><path id="Tracciato_155" data-name="Tracciato 155" d="M1547.752,450.349c13.619,30.233,52.141,35.293,52.141,35.293l26.668,44.8-3.019,1.665a4.617,4.617,0,0,0,.585,8.365,19.252,19.252,0,0,0,10.259.884,8.863,8.863,0,0,0,7.264-8.043c.629-8.129,1.407-33-.219-47.561l-29.475-57.925Z" transform="translate(-1131.689 -312.817)" fill="#a35900"></path><path id="Tracciato_156" data-name="Tracciato 156" d="M1622.153,536.17a21.35,21.35,0,0,1-7.492-1.356,6.957,6.957,0,0,1-.9-12.605l.9-.5L1589.8,479.937a89.1,89.1,0,0,1-20.467-6.314,73.135,73.135,0,0,1-17.854-11.074,54.548,54.548,0,0,1-14.505-19.086l-1.047-2.324,68.542-24.047,30.6,60.128.047.423c1.657,14.846.844,40.008.225,48a11.2,11.2,0,0,1-9.182,10.164,22.556,22.556,0,0,1-4,.362m-79.8-92.327a50.445,50.445,0,0,0,12.167,15.151,68.506,68.506,0,0,0,16.716,10.355,82.57,82.57,0,0,0,20.317,6.127l1.125.147,28.486,47.85-5.137,2.832a2.263,2.263,0,0,0-1.178,2.182,2.215,2.215,0,0,0,1.449,1.942,16.939,16.939,0,0,0,9.029.774,6.526,6.526,0,0,0,5.346-5.921c.6-7.787,1.4-32.116-.165-46.7l-28.352-55.72Z" transform="translate(-1123.04 -304.97)"></path><path id="Tracciato_157" data-name="Tracciato 157" d="M2062.335,644.516a13.225,13.225,0,1,1-13.225-13.225,13.225,13.225,0,0,1,13.225,13.225" transform="translate(-1488.603 -461.589)" fill="#a35900"></path><path id="Tracciato_158" data-name="Tracciato 158" d="M2042.746,653.717a15.564,15.564,0,1,1,15.564-15.564,15.582,15.582,0,0,1-15.564,15.564m0-26.45a10.886,10.886,0,1,0,10.886,10.886,10.9,10.9,0,0,0-10.886-10.886" transform="translate(-1482.24 -455.225)"></path><path id="Tracciato_159" data-name="Tracciato 159" d="M2068.261,106.562l-.015-.023c-1.651-2.561-3.937-3.15-5.595-.76-1.846,2.651-2.309,7.014-2.924,10.334a53.175,53.175,0,0,1-4.312,14.942,43.7,43.7,0,0,1-5.666,8.878c-5.925,7.233-14,12.508-22.663,15.979a27.036,27.036,0,0,0-3.523,1.633,3.214,3.214,0,0,0-1.875,2.686c.031,2.8,3.333,6.927,5.219,8.971a7.769,7.769,0,0,0,3.675,2.359,5.836,5.836,0,0,0,3.755-.579,22.15,22.15,0,0,0,2.567-1.429c12.439-8.017,24.066-17.679,30.122-31.223a45.869,45.869,0,0,0,4.144-18.107c0-4.618-.485-9.786-2.91-13.662" transform="translate(-1478.223 -76.239)" fill="#a35900"></path><path id="Tracciato_160" data-name="Tracciato 160" d="M2027.54,169.124a5.926,5.926,0,0,1-1.313-.146,9.228,9.228,0,0,1-4.41-2.771l-.027-.028c-1.674-1.814-5.573-6.415-5.612-9.959v-.046a4.652,4.652,0,0,1,2.591-3.924,26.651,26.651,0,0,1,3.553-1.664l.185-.076c9.093-3.644,16.723-9.018,22.068-15.542a42.2,42.2,0,0,0,5.475-8.577,52.464,52.464,0,0,0,4.186-14.54l.006-.034c.1-.533.193-1.092.293-1.684.535-3.159,1.139-6.738,2.872-9.227a4.437,4.437,0,0,1,3.682-2.145c1.612.027,3.165,1.074,4.375,2.949l.025.04c2.818,4.5,3.14,10.4,3.137,14.449v.017a47.642,47.642,0,0,1-4.275,18.7,58.913,58.913,0,0,1-12.982,18.136,111.019,111.019,0,0,1-17.689,13.726l-.015.01a23.1,23.1,0,0,1-2.743,1.524,8.161,8.161,0,0,1-3.379.82m-3.587-4.97a6.212,6.212,0,0,0,2.925,1.934,4.4,4.4,0,0,0,2.817-.482,20.4,20.4,0,0,0,2.385-1.331,108.129,108.129,0,0,0,17.213-13.347,56.022,56.022,0,0,0,12.352-17.23,44.637,44.637,0,0,0,4.015-17.512c0-3.676-.273-9-2.676-12.854l-.006-.008c-.757-1.173-1.5-1.595-1.94-1.6h-.011c-.48,0-.91.474-1.187.873-1.355,1.946-1.9,5.178-2.384,8.03-.1.6-.2,1.162-.3,1.713a55.153,55.153,0,0,1-4.438,15.336,45.133,45.133,0,0,1-5.853,9.171c-5.658,6.906-13.7,12.581-23.249,16.411l-.162.067a24.846,24.846,0,0,0-3.149,1.459c-1.112.672-1.158,1.172-1.164,1.426.039,1.926,2.438,5.372,4.812,7.946" transform="translate(-1474.193 -72.21)"></path><path id="Tracciato_161" data-name="Tracciato 161" d="M954.767,108.845c-19.477-1.688-40.011.057-58.349.08-37.2.046-95.665-1.453-132.954-.254-37.4,1.2-80.4,13.027-89.756,49.184-6.024,23.281,7.3,53.151,30.652,65.8,24.343,13.191,54.8,8.779,81.816,8.829,33.745.063,88.67.8,122.6,1.052,49.508.364,115.839-7.232,115.839-62.627,0-19.234-10.77-38.931-28.72-50.019-12.15-7.5-26.334-10.768-41.13-12.051" transform="translate(-491.548 -79.048)" fill="#fcd575"></path><path id="Tracciato_162" data-name="Tracciato 162" d="M905.648,229.529q-1.616,0-3.258-.012c-12.687-.094-28.216-.254-44.656-.424-27.93-.289-56.811-.588-77.932-.628-5.371-.011-10.767.154-16.481.328-22.821.694-46.419,1.412-66.445-9.44-11.649-6.312-21.362-16.966-27.353-30A65.033,65.033,0,0,1,663.98,170.1a51.458,51.458,0,0,1,1.093-19.194,53.5,53.5,0,0,1,13.285-23.8,72.432,72.432,0,0,1,22.366-15.44c19.118-8.786,41.166-11.21,56.295-11.7,24.4-.785,58.4-.41,88.407-.08,16.314.179,31.722.349,44.62.333,5.969-.008,12.071-.2,18.532-.394,13.168-.406,26.785-.825,40.022.323,17.3,1.5,31.085,5.552,42.156,12.391a63.787,63.787,0,0,1,21.9,22.792,59.544,59.544,0,0,1,7.933,29.217c0,15.58-5.135,28.578-15.262,38.631a69.768,69.768,0,0,1-20.979,13.865,126,126,0,0,1-26,8c-14.853,3.014-32.122,4.486-52.7,4.486m-126.3-5.743h.462c21.141.039,50.032.339,77.972.628,16.437.17,31.962.331,44.642.424,21.7.159,39.686-1.273,54.995-4.38,19.9-4.038,34.908-10.968,44.608-20.6a45.587,45.587,0,0,0,10.162-15.087,53.066,53.066,0,0,0,3.717-20.223,54.865,54.865,0,0,0-7.325-26.912A59.1,59.1,0,0,0,988.3,116.521c-10.434-6.445-23.552-10.276-40.1-11.71-12.964-1.124-26.441-.709-39.474-.308-6.5.2-12.632.389-18.67.4-12.926.016-28.349-.154-44.677-.333-29.956-.33-63.91-.7-88.205.079-14.7.473-36.082,2.813-54.492,11.272-17.862,8.209-28.991,20.375-33.075,36.16a46.8,46.8,0,0,0-.978,17.454,60.345,60.345,0,0,0,5.149,17.87c5.57,12.118,14.566,22,25.331,27.838,18.916,10.25,41.873,9.552,64.073,8.877,5.345-.162,10.868-.33,16.172-.33" transform="translate(-485.177 -72.683)"></path><path id="Tracciato_163" data-name="Tracciato 163" d="M580.33,147.519c-12.763-27.222-37.708-38.1-65.156-42.766-54.483-9.262-109.785-2.181-164.572-.733-41.22,1.089-85.018-7.378-125.922-2.314-14.322,1.773-19.034,3.654-32.063-3.879-10.68-6.174-25.846-18.981-36.789-24.695-15.06-7.864-31.391-14.1-48.373-14.6C93.044,58.1,77.678,62.151,67.342,71.923h0l0,0a37.825,37.825,0,0,0-7.742,10.3l2.091.588-21.27,40.98c-9.216.677-23.85,2.517-28.633,9.618-5.221,8.972,8.573,17.139,15.765,19.959,10.758,4.3,22.9,4.912,34.722,5.516l2.655,2.514-7.048-1.817a11.821,11.821,0,0,0-.177,3.434,8.782,8.782,0,0,0,4.455,6.462c1.533.868,11.341,1.26,12.886,1.5l40.207,5.918c8.333,1.32,16.274,2.545,22.8,3.356l30.3,16.14c13.619,30.233,52.141,35.293,52.141,35.293l26.668,44.8-3.02,1.665a4.617,4.617,0,0,0,.586,8.365,19.255,19.255,0,0,0,10.259.884,8.863,8.863,0,0,0,7.264-8.043c.629-8.129,1.407-33-.218-47.56l-5.069-9.961,159.786-13.477,50.15-8.764c14.788,27.4,50.559,32.095,50.559,32.095l26.668,44.8-3.02,1.665a4.617,4.617,0,0,0,.586,8.365,19.254,19.254,0,0,0,10.26.884,8.863,8.863,0,0,0,7.264-8.043c.629-8.129.626-32.025,8.961-44.078,16.8-24.294,25.943-58.349,12.156-87.756" transform="translate(-7.774 -42.774)" fill="#a35900"></path><path id="Tracciato_164" data-name="Tracciato 164" d="M578.009,571.457q-8.414,1.683-16.819,3.414-12.772,2.634-25.516,5.4c7.067,5.883,13.029.723,24.573,5.7l30.125,52.012-3.02,1.665a4.617,4.617,0,0,0,.586,8.364,19.254,19.254,0,0,0,10.259.884,8.863,8.863,0,0,0,7.264-8.043c.9-11.636,2.107-38.4-3.87-55.855Z" transform="translate(-391.676 -417.839)" fill="#a35900"></path><path id="Tracciato_165" data-name="Tracciato 165" d="M580.527,644.855a21.347,21.347,0,0,1-7.491-1.356,6.957,6.957,0,0,1-.9-12.605l.928-.511-28.531-49.262a29.845,29.845,0,0,0-11.839-2.017c-4.253-.069-8.271-.134-12.6-3.74l-3.682-3.065,4.682-1.018c8.3-1.806,16.894-3.626,25.541-5.409,5.354-1.1,11.017-2.254,16.832-3.417l.862-.172L589.434,576.7l.285.832c2.671,7.8,4.231,18.162,4.638,30.794a244.153,244.153,0,0,1-.65,26,11.2,11.2,0,0,1-9.182,10.164,22.528,22.528,0,0,1-4,.362M529.34,574.287c1.063.1,2.19.119,3.429.139a34.33,34.33,0,0,1,14.319,2.692l.71.307,31.71,54.749-5.112,2.818a2.264,2.264,0,0,0-1.177,2.181,2.216,2.216,0,0,0,1.45,1.943,16.943,16.943,0,0,0,9.029.774,6.526,6.526,0,0,0,5.346-5.921c.82-10.611,2.1-36.865-3.475-54.09L563.52,567.215c-5.5,1.1-10.863,2.191-15.943,3.239-6.135,1.265-12.242,2.549-18.237,3.833" transform="translate(-377.589 -411.131)"></path><path id="Tracciato_166" data-name="Tracciato 166" d="M121.757,157.974A20.378,20.378,0,1,1,99.874,139.22a20.378,20.378,0,0,1,21.882,18.754" transform="translate(-59.269 -101.75)" fill="#fff"></path><path id="Tracciato_167" data-name="Tracciato 167" d="M96.527,176.831a22.191,22.191,0,1,1,1.737-.067q-.871.067-1.737.067m.065-40.759q-.725,0-1.456.056a18.537,18.537,0,1,0,1.456-.056" transform="translate(-54.393 -96.871)"></path><path id="Tracciato_168" data-name="Tracciato 168" d="M292.726,111.126a2.021,2.021,0,0,1-1.445-.606,18.494,18.494,0,0,0-21.326-3.3,2.027,2.027,0,1,1-1.9-3.58,22.514,22.514,0,0,1,26.12,4.034,2.027,2.027,0,0,1-1.445,3.449" transform="translate(-195.207 -73.96)"></path><path id="Tracciato_169" data-name="Tracciato 169" d="M148.039,100.816a2.333,2.333,0,0,1-1.668-.7,19.419,19.419,0,0,0-22.388-3.462,2.339,2.339,0,0,1-2.2-4.131,24.066,24.066,0,0,1,27.92,4.311,2.339,2.339,0,0,1-1.667,3.98" transform="translate(-88.14 -65.706)"></path><path id="Tracciato_170" data-name="Tracciato 170" d="M311.481,419.368a1.56,1.56,0,0,1-1.418-2.208,8.946,8.946,0,0,0-.287-8.06,1.56,1.56,0,0,1,2.7-1.558,12.113,12.113,0,0,1,.422,10.913,1.56,1.56,0,0,1-1.42.912" transform="translate(-226.35 -297.417)"></path><path id="Tracciato_171" data-name="Tracciato 171" d="M142.248,201.893a7.982,7.982,0,1,1-8.571-7.346,7.982,7.982,0,0,1,8.571,7.346" transform="translate(-92.353 -142.232)"></path><path id="Tracciato_172" data-name="Tracciato 172" d="M83.374,332.916l-.082,0c-5.721-.219-9.145-.252-12.456-.283-3.739-.036-7.27-.07-13.725-.354H57.09q-1.767-.1-3.547-.185c-11.922-.608-24.251-1.238-35.307-5.659-1.482-.581-14.68-5.971-17.66-14.528a9.886,9.886,0,0,1,.856-8.445l.074-.118c5.458-8.1,21.068-9.978,32.336-10.684l.051,0c20-.772,37.607,1.724,57.893,5.71a2.105,2.105,0,1,1-.812,4.132c-19.988-3.927-37.313-6.388-56.894-5.635a100.551,100.551,0,0,0-16.385,2.16c-6.44,1.536-10.7,3.761-12.657,6.615a5.632,5.632,0,0,0-.485,4.883c1.17,3.36,6.436,8.547,15.233,12,10.42,4.166,22.393,4.777,33.971,5.369q1.781.091,3.551.185c6.375.28,9.869.314,13.569.349,3.341.032,6.8.065,12.576.286a2.105,2.105,0,0,1-.079,4.209" transform="translate(0 -213.882)"></path><path id="Tracciato_173" data-name="Tracciato 173" d="M26.693,302.863l-.172-.669-2.87-2.494-1.026.167C12.614,301.5,6.3,304.449,3.31,308.881L3.232,309a9.586,9.586,0,0,0-.829,8.189c2.856,8.2,15.453,13.35,16.866,13.9,1.325.53,2.728,1.023,4.17,1.467l2,.615.732-1.957c4.578-12.239.692-27.707.525-28.359" transform="translate(-1.348 -219.135)"></path><path id="Tracciato_174" data-name="Tracciato 174" d="M673.628,284.1a21.115,21.115,0,0,1-7.41-1.341,6.722,6.722,0,0,1-.867-12.181l1.114-.614-25.047-42.075a88.69,88.69,0,0,1-20.518-6.315,72.913,72.913,0,0,1-17.8-11.038,54.314,54.314,0,0,1-14.444-19L592.5,189.8a50.123,50.123,0,0,0,13.289,17.488A68.607,68.607,0,0,0,622.5,217.675a83.26,83.26,0,0,0,20.492,6.194L644,224l.522.876,27.782,46.668-4.926,2.715a2.473,2.473,0,0,0-1.3,2.4,2.424,2.424,0,0,0,1.6,2.144,17.171,17.171,0,0,0,9.152.785,6.76,6.76,0,0,0,5.537-6.133c.086-1.111.161-2.545.248-4.207.549-10.5,1.571-30.048,9.08-40.906a104.815,104.815,0,0,0,17.207-41.126,81.068,81.068,0,0,0,.867-22.508,68.912,68.912,0,0,0-6.092-22.03,66.222,66.222,0,0,0-11.343-16.973,66.988,66.988,0,0,0-14.9-11.954c-9.976-5.94-22.2-10.08-37.36-12.658-40.311-6.853-81.824-4.669-121.971-2.556-13.837.728-28.145,1.481-42.193,1.852-17.122.453-34.957-.752-52.2-1.918-24.437-1.651-49.706-3.359-73.516-.411-1.677.208-3.2.414-4.671.613-11.045,1.5-16.589,2.246-28.7-4.758-4.966-2.871-10.7-7.017-16.772-11.406-6.943-5.019-14.123-10.209-19.937-13.245a148.118,148.118,0,0,0-23.137-9.924,87.031,87.031,0,0,0-24.324-4.439,61.074,61.074,0,0,0-26.707,4.981A43.217,43.217,0,0,0,194.835,67a35.94,35.94,0,0,0-8.1,10.453l-3.749-1.917c4.318-8.443,11.661-15.183,21.236-19.491a65.3,65.3,0,0,1,28.559-5.35,91.167,91.167,0,0,1,25.491,4.64,152.294,152.294,0,0,1,23.8,10.2C288.15,68.714,295.456,74,302.52,79.1c5.982,4.325,11.633,8.409,16.413,11.173,10.87,6.284,15.309,5.683,26.032,4.231,1.484-.2,3.017-.409,4.718-.619,24.21-3,49.683-1.276,74.317.389,17.15,1.159,34.884,2.357,51.808,1.91,13.992-.37,28.272-1.121,42.083-1.848,40.376-2.124,82.126-4.321,122.9,2.61,15.684,2.666,28.379,6.981,38.809,13.191a71.187,71.187,0,0,1,15.833,12.709A70.428,70.428,0,0,1,707.5,140.9a73.113,73.113,0,0,1,6.467,23.373,85.25,85.25,0,0,1-.907,23.679,109.064,109.064,0,0,1-17.891,42.8c-6.83,9.876-7.812,28.647-8.339,38.731-.088,1.689-.165,3.149-.255,4.312a10.971,10.971,0,0,1-8.99,9.952,22.316,22.316,0,0,1-3.956.359" transform="translate(-133.795 -37.046)"></path><path id="Tracciato_175" data-name="Tracciato 175" d="M256.878,456.422c-7.933-.986-17.752-2.549-28.148-4.2-12.269-1.953-24.956-3.973-34.835-5.067l-.093-.012c-.362-.056-1.636-.147-2.868-.236-6.356-.457-9.428-.784-10.737-1.509a11,11,0,0,1-5.569-8.1,13.93,13.93,0,0,1,.188-4.05l4.312.692a10.013,10.013,0,0,0-.169,2.8l0,.037a6.6,6.6,0,0,0,3.307,4.783c1.114.431,6.617.826,8.976,1,1.706.123,2.645.192,3.17.268,9.976,1.106,22.7,3.131,35,5.09,10.358,1.649,20.141,3.207,28,4.184Z" transform="translate(-127.627 -316.777)"></path><path id="Tracciato_176" data-name="Tracciato 176" d="M594.519,510.189c13.619,30.233,52.141,35.293,52.141,35.293l26.668,44.8-3.02,1.664a4.617,4.617,0,0,0,.586,8.364,19.252,19.252,0,0,0,10.259.884,8.863,8.863,0,0,0,7.264-8.043c.629-8.129,1.407-33-.218-47.561l-29.475-57.925Z" transform="translate(-434.702 -356.571)" fill="#a35900"></path><path id="Tracciato_177" data-name="Tracciato 177" d="M668.919,596.009a21.339,21.339,0,0,1-7.492-1.356,6.957,6.957,0,0,1-.9-12.605l.9-.5-24.869-41.774a89.116,89.116,0,0,1-20.467-6.314,73.147,73.147,0,0,1-17.854-11.074A54.552,54.552,0,0,1,583.736,503.3l-1.047-2.324,68.542-24.047,30.6,60.128.047.423c1.657,14.845.844,40.008.226,48a11.205,11.205,0,0,1-9.182,10.164,22.56,22.56,0,0,1-4,.362m-79.8-92.327a50.421,50.421,0,0,0,12.109,15.1,68.368,68.368,0,0,0,16.653,10.351,83.023,83.023,0,0,0,20.439,6.181l1.123.149.581.974,27.906,46.875-5.137,2.832a2.264,2.264,0,0,0-1.177,2.181,2.215,2.215,0,0,0,1.45,1.942,16.938,16.938,0,0,0,9.029.774,6.526,6.526,0,0,0,5.346-5.921c.6-7.787,1.4-32.116-.165-46.7L648.918,482.7Z" transform="translate(-426.052 -348.724)"></path><path id="Tracciato_178" data-name="Tracciato 178" d="M349.582,525.2a179.394,179.394,0,0,1-3.929-34.4c-.5-.139-1-.276-1.5-.417-7.876-2.224-19.043.068-26.737-2.719.659,6.034,1.536,12.017,2.728,17.928,6.285,29.908,20.163,38.036,32.18,28.939a86.5,86.5,0,0,1-2.737-9.328" transform="translate(-232.085 -356.57)"></path><path id="Tracciato_179" data-name="Tracciato 179" d="M410.912.675c-15.132-5.586-6.181,25.209-5.406,31.136,1.638,7.974,3.19,16.249,4.174,24.267,5.294,37.527-3,74.8,5.466,112.554,11.774,50.015,54.039,51.36,72.555,11.646,12.973-28.065,4.663-62.348-9.145-94.275-9.03-20.8-22.872-41.449-39.19-60.366A190.822,190.822,0,0,0,426.1,11.658C421.593,7.315,414.538,1.8,410.923.679Z" transform="translate(-294.063 0)"></path><path id="Tracciato_180" data-name="Tracciato 180" d="M317.135,16.744c3.034-.387,6.085-.64,9.141-.777q4.645-.208,9.3-.066,1.761.053,3.52.155-2.179-2.224-4.478-4.4C330.108,7.315,323.054,1.8,319.438.679l-.012,0c-9.385-3.465-9.506,7.066-8.059,16.978q2.869-.544,5.768-.909" transform="translate(-227.17 0)"></path><path id="Tracciato_181" data-name="Tracciato 181" d="M262.022,171.2a20.378,20.378,0,1,1-21.882-18.754A20.378,20.378,0,0,1,262.022,171.2" transform="translate(-161.829 -111.418)" fill="#fff"></path><path id="Tracciato_182" data-name="Tracciato 182" d="M237.446,190.456a21.948,21.948,0,1,1,1.7-.066c-.57.044-1.138.066-1.7.066m.029-40.758q-.725,0-1.458.056a18.81,18.81,0,1,0,1.458-.056" transform="translate(-157.587 -107.176)"></path><path id="Tracciato_183" data-name="Tracciato 183" d="M285.656,194.613a9.775,9.775,0,1,1-10.5-9,9.775,9.775,0,0,1,10.5,9" transform="translate(-194.593 -135.699)"></path><path id="Tracciato_184" data-name="Tracciato 184" d="M1090.973,171.087a26.2,26.2,0,0,1-13.629-4.005c-2.231-1.356-4.236-2.821-6.176-4.237-.573-.419-1.146-.837-1.72-1.249-2.092-1.5-4.257-3.077-6.62-4.823-2.89-2.136-5.932-4.225-8.563-4.258h-.062c-2.476,0-5.409,1.86-8.213,3.873-1.3.933-2.581,1.886-3.937,2.895-3.329,2.475-6.772,5.034-10.528,7.312a26.538,26.538,0,0,1-13.762,4.019,23.493,23.493,0,0,1-10.524-2.481A38.612,38.612,0,0,1,998.722,162q-1.665-1.483-3.325-2.974-1.762-1.58-3.528-3.156c-1.852-1.649-4.3-3.815-6.823-5.948a11.99,11.99,0,0,0-3.928-2.356c-2.292-.753-4.755-.219-7.321,1.588-3.228,2.273-6.337,4.735-9.628,7.341-1.326,1.049-2.7,2.135-4.066,3.2a34.14,34.14,0,0,1-9.765,5.5,23.567,23.567,0,0,1-12.971.823c-6.581-1.453-11.592-5.519-15.617-8.786-.812-.659-1.578-1.281-2.322-1.855q-1.169-.9-2.331-1.817c-1.612-1.263-3.135-2.455-4.687-3.6a16.279,16.279,0,0,0-4.493-2.559c-2.934-.885-5.789.769-7.669,2.312-3.237,2.658-6.334,5.474-9.613,8.456-1.135,1.032-2.309,2.1-3.477,3.149l-.2.184a40.693,40.693,0,0,1-8.211,6.142,25.173,25.173,0,0,1-10.946,2.918c-.231.007-.462.01-.69.01-8.5,0-14.928-4.7-19.219-7.839-2.271-1.661-4.624-3.337-6.9-4.957l-.47-.335-.75-.536a33.318,33.318,0,0,0-4.981-3.171,7.553,7.553,0,0,0-7.442.685,41.812,41.812,0,0,0-4.216,3.315q-.627.535-1.256,1.066a8.577,8.577,0,1,1-11.031-13.138q.578-.485,1.152-.978a56.038,56.038,0,0,1,6.073-4.694,24.82,24.82,0,0,1,23.894-1.839,47.213,47.213,0,0,1,7.795,4.806l.713.509.469.334c2.32,1.652,4.72,3.36,7.08,5.086,3.695,2.7,6.521,4.611,9.268,4.527a7.933,7.933,0,0,0,3.441-.937,27.178,27.178,0,0,0,4.761-3.735l.208-.187c1.129-1.014,2.282-2.063,3.4-3.077,3.292-2.994,6.7-6.091,10.27-9.024a28.594,28.594,0,0,1,10.471-5.58,23.062,23.062,0,0,1,13.039.1,32.209,32.209,0,0,1,9.7,5.166c1.759,1.294,3.455,2.623,5.1,3.908q1.119.877,2.241,1.748c.906.7,1.79,1.417,2.644,2.11,3.027,2.456,5.886,4.777,8.506,5.355,1.63.36,4.07.33,8.513-3.121,1.308-1.016,2.647-2.077,3.942-3.1,3.333-2.639,6.779-5.368,10.4-7.918,7.037-4.955,15.047-6.326,22.553-3.859a28.7,28.7,0,0,1,9.649,5.554c2.671,2.258,5.227,4.519,7.155,6.235q1.789,1.593,3.57,3.194,1.643,1.472,3.288,2.941a24.09,24.09,0,0,0,4.75,3.587c2.878,1.433,5.8.329,7.743-.85,3.065-1.859,6.039-4.07,9.188-6.411,1.353-1.006,2.752-2.046,4.166-3.062,4.894-3.515,10.877-7.094,18.213-7.094l.285,0c8.382.106,14.992,4.992,18.543,7.616,2.295,1.7,4.394,3.225,6.417,4.676.616.442,1.23.89,1.845,1.339,1.726,1.261,3.357,2.452,4.966,3.43,2.547,1.548,4.933,1.9,7.092,1.049,2.569-1.013,5.193-3.124,7.971-5.358.592-.476,1.2-.968,1.822-1.455a8.578,8.578,0,1,1,10.613,13.478c-.549.432-1.1.876-1.683,1.345-3.484,2.8-7.433,5.977-12.426,7.947a23.527,23.527,0,0,1-8.667,1.658" transform="translate(-590.634 -95.044)" fill="red"></path><path id="Tracciato_185" data-name="Tracciato 185" d="M1084.609,167.06a28.713,28.713,0,0,1-14.844-4.345c-2.316-1.408-4.362-2.9-6.341-4.347l-.028-.021c-.558-.408-1.115-.815-1.675-1.216-2.1-1.507-4.276-3.091-6.647-4.843-1.91-1.412-5.106-3.774-7.2-3.8h-.033c-2.066,0-5.417,2.406-6.848,3.434-1.278.918-2.547,1.86-3.889,2.858l-.018.014c-3.374,2.509-6.861,5.1-10.71,7.435a29,29,0,0,1-14.975,4.358,25.724,25.724,0,0,1-11.567-2.726,40.667,40.667,0,0,1-9.031-6.484q-1.65-1.47-3.295-2.948l-.1-.09q-1.727-1.548-3.457-3.092c-1.843-1.641-4.278-3.795-6.777-5.908a9.754,9.754,0,0,0-3.148-1.92c-1.573-.517-3.288-.1-5.243,1.278-3.174,2.235-6.258,4.677-9.523,7.263-1.332,1.055-2.706,2.142-4.083,3.213a36.415,36.415,0,0,1-10.435,5.866,25.871,25.871,0,0,1-14.241.9c-7.122-1.572-12.37-5.832-16.587-9.254-.8-.648-1.552-1.26-2.278-1.82q-1.175-.908-2.343-1.827c-1.6-1.254-3.109-2.434-4.631-3.554a14.642,14.642,0,0,0-3.782-2.2c-1.946-.587-4.07.7-5.509,1.88-3.193,2.622-6.268,5.418-9.523,8.379l-.07.063c-1.115,1.014-2.268,2.063-3.418,3.1l-.2.184a42.6,42.6,0,0,1-8.681,6.47,27.527,27.527,0,0,1-11.97,3.188c-.254.008-.509.011-.76.011-9.266,0-16.085-4.988-20.6-8.289-2.266-1.657-4.611-3.326-6.878-4.941l-.47-.334-.756-.54a31.948,31.948,0,0,0-4.6-2.948,5.222,5.222,0,0,0-5.2.528,40.253,40.253,0,0,0-3.963,3.127c-.427.365-.848.723-1.27,1.078a10.917,10.917,0,0,1-14.041-16.721c.374-.313.745-.63,1.116-.947l.022-.019a57.883,57.883,0,0,1,6.327-4.883,27.148,27.148,0,0,1,26.137-2,49.1,49.1,0,0,1,8.178,5.029l.709.507.469.334c2.322,1.652,4.722,3.361,7.1,5.1,3.156,2.309,5.736,4.079,7.717,4.079h.1a5.582,5.582,0,0,0,2.419-.667,25.974,25.974,0,0,0,4.291-3.407l.208-.187c1.123-1.009,2.273-2.055,3.386-3.066,3.315-3.015,6.741-6.131,10.36-9.1a30.919,30.919,0,0,1,11.329-6.026,25.365,25.365,0,0,1,14.342.117,34.405,34.405,0,0,1,10.416,5.522c1.784,1.313,3.492,2.65,5.144,3.944.75.588,1.492,1.169,2.237,1.745.93.719,1.824,1.444,2.688,2.145,2.683,2.177,5.457,4.428,7.536,4.887.665.147,2.429.537,6.573-2.684,1.309-1.017,2.639-2.07,3.925-3.089,3.361-2.661,6.831-5.409,10.505-8,7.657-5.392,16.4-6.873,24.631-4.169a30.986,30.986,0,0,1,10.429,5.99c2.693,2.277,5.262,4.549,7.2,6.274q1.792,1.6,3.577,3.2l.18.162q1.55,1.389,3.1,2.775a22.5,22.5,0,0,0,4.237,3.239c1.545.769,3.392.515,5.487-.756,2.971-1.8,5.9-3.981,9.006-6.288,1.357-1.009,2.76-2.052,4.2-3.084,5.255-3.774,11.731-7.633,19.893-7.531,9.136.116,16.141,5.293,19.9,8.074,2.283,1.688,4.373,3.21,6.389,4.656.617.442,1.233.892,1.849,1.342l.013.009c1.685,1.231,3.276,2.393,4.8,3.32,1.915,1.164,3.556,1.449,5.018.872,2.239-.883,4.729-2.885,7.364-5,.6-.479,1.212-.974,1.84-1.47a10.917,10.917,0,0,1,13.507,17.154c-.533.419-1.072.853-1.643,1.312l-.022.018c-3.614,2.906-7.71,6.2-13.034,8.3a25.851,25.851,0,0,1-9.526,1.822m-36.769-23.252h.088c3.33.042,6.73,2.353,9.927,4.716,2.352,1.739,4.508,3.31,6.592,4.8.57.409,1.139.824,1.708,1.24l.028.021c1.9,1.388,3.864,2.823,6.011,4.127a23.718,23.718,0,0,0,12.414,3.665,21.193,21.193,0,0,0,7.809-1.5c4.663-1.839,8.464-4.9,11.818-7.594l.023-.018c.58-.467,1.129-.908,1.681-1.342a6.238,6.238,0,1,0-7.719-9.8c-.61.48-1.216.968-1.8,1.439-2.921,2.349-5.679,4.567-8.579,5.711-1.976.78-5.171,1.2-9.165-1.226-1.695-1.03-3.364-2.249-5.131-3.54-.617-.451-1.221-.892-1.827-1.327-2.036-1.459-4.143-2.995-6.445-4.7-3.339-2.468-9.554-7.062-17.182-7.158l-.256,0c-6.68,0-12.266,3.364-16.848,6.655-1.406,1.01-2.794,2.041-4.135,3.039-3.194,2.375-6.211,4.618-9.371,6.534-3.458,2.1-7.009,2.433-10,.944a25.836,25.836,0,0,1-5.264-3.934q-1.559-1.389-3.112-2.784l-.181-.162q-1.78-1.6-3.565-3.189c-1.917-1.707-4.456-3.953-7.109-6.2a26.419,26.419,0,0,0-8.869-5.117c-6.787-2.23-14.059-.969-20.477,3.55-3.566,2.512-6.985,5.219-10.291,7.836-1.3,1.028-2.637,2.088-3.963,3.119-4.066,3.159-7.29,4.257-10.453,3.558s-6.227-3.187-9.474-5.822c-.844-.685-1.715-1.392-2.6-2.076q-1.131-.874-2.254-1.757c-1.633-1.278-3.313-2.594-5.041-3.866a30.021,30.021,0,0,0-8.994-4.81,20.756,20.756,0,0,0-11.736-.09,26.281,26.281,0,0,0-9.615,5.135c-3.528,2.9-6.909,5.972-10.18,8.946-1.119,1.018-2.275,2.069-3.409,3.087l-.208.187a28.6,28.6,0,0,1-5.231,4.063,10.284,10.284,0,0,1-4.464,1.207c-.085,0-.169,0-.254,0-3.389,0-6.489-2.072-10.466-4.982-2.357-1.724-4.745-3.424-7.055-5.068l-.469-.334-.719-.513a45.329,45.329,0,0,0-7.411-4.583,22.492,22.492,0,0,0-21.65,1.682,54.16,54.16,0,0,0-5.82,4.506l-.022.019c-.381.325-.762.65-1.145.972A6.238,6.238,0,0,0,814,150.644q.62-.52,1.235-1.048a43.393,43.393,0,0,1,4.477-3.509,9.945,9.945,0,0,1,9.686-.843,34.846,34.846,0,0,1,5.365,3.394l.745.533.47.334c2.28,1.623,4.637,3.3,6.925,4.974,4.264,3.119,10.1,7.388,17.837,7.388q.308,0,.62-.009a22.821,22.821,0,0,0,9.922-2.648,38.838,38.838,0,0,0,7.74-5.813l.2-.184c1.14-1.023,2.287-2.067,3.4-3.076l.07-.064c3.3-3,6.418-5.837,9.7-8.533,3.327-2.731,6.725-3.68,9.829-2.744a18.276,18.276,0,0,1,5.2,2.915c1.578,1.162,3.113,2.363,4.738,3.636.777.608,1.548,1.212,2.323,1.811s1.545,1.224,2.366,1.89c3.834,3.112,8.606,6.985,14.648,8.318a21.261,21.261,0,0,0,11.7-.749,31.853,31.853,0,0,0,9.1-5.14c1.361-1.057,2.726-2.138,4.046-3.184,3.321-2.63,6.455-5.112,9.737-7.423,3.99-2.81,7.313-2.583,9.4-1.9a14.251,14.251,0,0,1,4.708,2.792c2.54,2.147,5,4.327,6.868,5.987q1.737,1.547,3.468,3.1l.1.09q1.641,1.471,3.285,2.939a36.6,36.6,0,0,0,8,5.788,21.086,21.086,0,0,0,9.481,2.236,24.326,24.326,0,0,0,12.549-3.68c3.66-2.22,7.057-4.745,10.342-7.187l.021-.016c1.358-1.01,2.641-1.964,3.951-2.9,3.119-2.24,6.438-4.312,9.577-4.312" transform="translate(-584.27 -88.677)"></path><path id="Tracciato_186" data-name="Tracciato 186" d="M1098.606,245.649c-14.144.3-26.469-10.9-40.845-9.819-16.874,1.22-28.94,14.295-46.878,6.973-10.718-4.173-20.186-13.345-32.234-13.115a38.983,38.983,0,0,0-13.333,3.092c-8.7,3.383-17.5,8.015-27.022,6.846-5.828-.611-11.333-3.035-16.71-5.289-11.607-5.072-19.891-6.978-31.639-.886-9.07,4.508-18.05,11.295-28.62,11.355-9.746.131-18.89-4.826-28.223-7.418-4.105-1.24-8.374-2.311-12.42-3.528-3.863-1.175-8.184-2.635-10.8-5.135-5.287-5.236,1.4-12.568,6.929-14.945,14.382-6.2,28.087,6.078,42.425,6.332,11.938.386,21.409-8.317,31.858-12.82,17.242-7.628,27.544,2.6,43.014,7.119,7.719,2.141,14.468.63,21.688-2.393,11.857-5.072,21.346-10.521,34.493-5.429,10.541,4.007,19.92,12.853,31.451,13.481,12.91.636,24.495-8.519,37.426-8.639,11.577-.26,21.837,6.592,32.848,9.241,2.73.721,5.508,1.3,8.238,1.847,5.076,1.155,13.595,2.217,16.232,6.39,1.216,2.008.7,4.531-.311,6.551-3.037,6.157-10.39,10.107-17.535,10.189Z" transform="translate(-590.76 -149.562)" fill="#0fd827"></path><path id="Tracciato_187" data-name="Tracciato 187" d="M1091.681,241.591c-7.069,0-13.616-2.591-19.955-5.1-6.82-2.7-13.263-5.248-20.16-4.731-6.024.435-11.576,2.531-16.944,4.558-6.069,2.291-12.274,4.633-19.185,4.634a30.8,30.8,0,0,1-11.79-2.379,84.478,84.478,0,0,1-11.08-5.645c-6.68-3.827-12.99-7.443-20.242-7.3-4.505.063-8.865,1.519-12.536,2.935-1.406.547-2.859,1.146-4.264,1.725-7.526,3.1-15.307,6.306-23.864,5.263-5.834-.615-11.223-2.881-16.436-5.072l-.948-.4c-11.568-5.055-18.951-6.487-29.625-.953l-.036.018c-2.075,1.031-4.119,2.17-6.284,3.376-7.209,4.017-14.665,8.171-23.356,8.223-7.1.094-13.793-2.313-20.264-4.641-2.83-1.018-5.755-2.07-8.606-2.862l-.051-.015c-2.055-.621-4.2-1.211-6.267-1.781-2.031-.56-4.13-1.138-6.15-1.747-4.115-1.251-8.749-2.823-11.745-5.683l-.031-.03a8.2,8.2,0,0,1-2.463-7.626c.919-4.848,5.784-9.269,10.115-11.13,9.535-4.11,18.585-.892,27.336,2.22,5.537,1.969,10.766,3.829,16.055,3.923h.034c7.548.244,14.1-3.506,21.024-7.476a98.958,98.958,0,0,1,9.819-5.149c13.417-5.933,22.929-1.8,33,2.566a98.083,98.083,0,0,0,11.591,4.446c6.263,1.734,12.1,1.068,20.138-2.3,1.226-.524,2.442-1.06,3.619-1.578,10.262-4.519,19.956-8.786,32.63-3.878a84.292,84.292,0,0,1,11.65,5.892c6.351,3.635,12.351,7.069,19.083,7.435,6.214.305,12.17-1.859,18.474-4.151,5.984-2.176,12.173-4.426,18.789-4.491,7.753-.169,14.835,2.61,21.691,5.3a90.49,90.49,0,0,0,11.74,4.008l.051.013c2.746.726,5.621,1.317,8.1,1.815l.059.013c.763.174,1.621.348,2.531.533,5.524,1.123,12.4,2.52,15.159,6.889l.024.038c1.457,2.408,1.377,5.619-.221,8.81a19.881,19.881,0,0,1-8.162,8.359,24.116,24.116,0,0,1-11.416,3.121h-.028c-.2,0-.4.006-.6.006m-38.318-14.577c7.133,0,13.708,2.6,20.085,5.126s12.369,4.9,18.73,4.766h.06c6.562-.075,12.921-3.729,15.463-8.885.413-.824,1.263-2.86.42-4.286-1.712-2.667-7.976-3.941-12.125-4.784-.925-.188-1.8-.366-2.608-.549-2.533-.508-5.468-1.113-8.321-1.866a95.567,95.567,0,0,1-12.328-4.2c-6.727-2.638-13.082-5.129-19.895-4.976h-.031c-5.821.054-11.371,2.073-17.248,4.21-6.462,2.35-13.143,4.78-20.315,4.427-7.852-.428-14.62-4.3-21.165-8.047a79.584,79.584,0,0,0-11-5.584c-10.883-4.215-18.908-.682-29.068,3.792-1.191.524-2.422,1.066-3.673,1.6l-.016.007c-6.343,2.656-14.062,5.028-23.217,2.489l-.031-.009a101.7,101.7,0,0,1-12.159-4.65c-4.779-2.074-9.293-4.033-14-4.787a26.082,26.082,0,0,0-15.254,2.211l-.021.009a93.787,93.787,0,0,0-9.357,4.917c-6.958,3.987-14.147,8.106-22.651,8.107-.278,0-.555,0-.836-.013-6.047-.112-11.879-2.186-17.52-4.192-8.263-2.939-16.068-5.714-23.918-2.331-3.094,1.33-6.79,4.653-7.368,7.7a3.574,3.574,0,0,0,1.144,3.416c2.257,2.142,6.269,3.484,9.854,4.574,1.961.59,4.034,1.162,6.038,1.714,2.089.576,4.25,1.171,6.351,1.806,3.01.837,6.011,1.917,8.914,2.961,6.361,2.288,12.377,4.449,18.628,4.365h.018c7.493-.042,14.416-3.9,21.112-7.632,2.11-1.176,4.293-2.392,6.461-3.47,6.018-3.117,11.45-4.385,17.094-3.991,5.76.4,11.345,2.55,16.523,4.812l.9.38c4.9,2.062,9.977,4.194,15.13,4.734l.041,0c7.347.9,14.558-2.07,21.533-4.943,1.426-.587,2.9-1.195,4.355-1.761,3.828-1.476,8.888-3.178,14.149-3.251,8.536-.164,15.708,3.947,22.645,7.923a79.621,79.621,0,0,0,10.471,5.351l.035.014a25.976,25.976,0,0,0,14.156,1.73c4.523-.667,8.842-2.3,13.415-4.024,5.681-2.145,11.557-4.363,18.253-4.847q1.077-.081,2.139-.08" transform="translate(-584.391 -143.159)"></path><path id="Tracciato_188" data-name="Tracciato 188" d="M991.61,260.48c-20.443-1.765-42,.06-61.242.084-39.041.048-100.409-1.519-139.547-.265-39.25,1.258-84.388,13.618-94.207,51.412-6.322,24.335,7.663,55.558,32.172,68.785,25.551,13.788,57.52,9.176,85.874,9.229,35.418.066,93.067.839,128.68,1.1,51.964.38,121.583-7.559,121.583-65.463,0-20.105-11.3-40.694-30.144-52.284-12.752-7.844-27.64-11.256-43.168-12.6" transform="translate(-508.244 -189.897)" fill="#fcd575"></path><path id="Tracciato_189" data-name="Tracciato 189" d="M940.368,386.811c-1.13,0-2.268,0-3.417-.013-13.318-.1-29.618-.265-46.875-.443-29.313-.3-59.625-.615-81.792-.656-5.633-.011-11.3.161-17.3.343-23.936.725-48.687,1.475-69.677-9.852-12.2-6.587-22.384-17.7-28.661-31.305a67.656,67.656,0,0,1-5.809-20.1,53.479,53.479,0,0,1,1.144-20.027A55.765,55.765,0,0,1,701.9,279.926a75.92,75.92,0,0,1,23.439-16.115c20.048-9.175,43.171-11.707,59.039-12.216,25.6-.82,61.294-.429,92.785-.084,17.123.188,33.3.365,46.834.348,6.266-.008,12.673-.2,19.455-.412,13.817-.424,28.1-.862,41.992.337a127.331,127.331,0,0,1,23.047,3.935,80.672,80.672,0,0,1,21.147,9,66.689,66.689,0,0,1,22.944,23.785A61.95,61.95,0,0,1,1060.89,319c0,16.215-5.351,29.749-15.9,40.225A72.975,72.975,0,0,1,1023,373.736a132.311,132.311,0,0,1-27.279,8.376c-15.6,3.158-33.735,4.7-55.357,4.7M807.8,381.02h.487c22.187.041,52.509.354,81.832.656,17.254.178,33.551.346,46.861.443,22.812.167,41.722-1.336,57.812-4.594,20.93-4.238,36.708-11.514,46.893-21.625a47.717,47.717,0,0,0,10.633-15.78A55.388,55.388,0,0,0,1056.211,319a57.263,57.263,0,0,0-7.7-28.179,62,62,0,0,0-21.329-22.113,76.075,76.075,0,0,0-19.939-8.474,122.765,122.765,0,0,0-22.205-3.784c-13.615-1.175-27.763-.741-41.446-.322-6.818.209-13.257.406-19.592.414-13.567.016-29.753-.161-46.891-.349-31.443-.344-67.081-.735-92.583.082-15.438.495-37.9,2.942-57.242,11.794-18.78,8.6-30.481,21.336-34.776,37.868a48.832,48.832,0,0,0-1.029,18.281,62.991,62.991,0,0,0,5.413,18.709c5.856,12.688,15.315,23.039,26.635,29.149,19.883,10.73,43.995,10,67.314,9.293,5.608-.17,11.4-.345,16.966-.345" transform="translate(-501.872 -183.532)"></path><path id="Tracciato_190" data-name="Tracciato 190" d="M1834.764,487.532c.1.478-.215.98-1.224,1.473-2.474,1.211-9.332,3.472-9.332-1.51a3.1,3.1,0,0,1,2.854-3.1,8.54,8.54,0,0,1,3.176.485c1.2.341,4.261,1.414,4.525,2.648" transform="translate(-1333.829 -354.167)" fill="#fff"></path><path id="Tracciato_191" data-name="Tracciato 191" d="M1825.476,489.24a4.875,4.875,0,0,1-2.6-.633,3.53,3.53,0,0,1-1.574-3.233,3.866,3.866,0,0,1,3.555-3.872,9.21,9.21,0,0,1,3.469.51c1.4.4,4.706,1.517,5.074,3.235.135.633-.04,1.552-1.644,2.337a16.926,16.926,0,0,1-6.285,1.656m-.069-6.206a3.787,3.787,0,0,0-.387.019,2.329,2.329,0,0,0-2.154,2.321,2.054,2.054,0,0,0,.84,1.91c1.639,1.023,5.39-.132,7.37-1.1.737-.36.8-.6.8-.6v-.005c-.1-.467-1.758-1.428-3.977-2.062a9.384,9.384,0,0,0-2.5-.478" transform="translate(-1331.707 -352.045)"></path><path id="Tracciato_192" data-name="Tracciato 192" d="M1599.052,441.474c.058.273-.123.559-.7.84-1.411.69-5.321,1.98-5.321-.861a1.765,1.765,0,0,1,1.627-1.766,4.871,4.871,0,0,1,1.811.277c.683.195,2.43.807,2.581,1.51" transform="translate(-1164.797 -321.482)" fill="#fff"></path><path id="Tracciato_193" data-name="Tracciato 193" d="M1592.854,441.873a3.121,3.121,0,0,1-1.667-.414,2.331,2.331,0,0,1-1.055-2.128,2.534,2.534,0,0,1,2.328-2.541,5.514,5.514,0,0,1,2.1.3c1.066.3,2.89.981,3.129,2.1.084.391.05,1.133-1.117,1.7a9.734,9.734,0,0,1-3.722.98m-.05-3.541a1.813,1.813,0,0,0-.186.009.986.986,0,0,0-.927.99c0,.6.233.75.321.8.695.434,2.554,0,3.878-.644.055-.027.1-.052.141-.075a6.671,6.671,0,0,0-1.9-.825,5.1,5.1,0,0,0-1.332-.26" transform="translate(-1162.676 -319.36)"></path><path id="Tracciato_194" data-name="Tracciato 194" d="M1067.65,470.452c.231.149.3.476.1,1.073-.5,1.467-2.333,5.1-4.316,3.113a1.742,1.742,0,0,1-.1-2.368,4.8,4.8,0,0,1,1.457-1.071c.612-.34,2.259-1.133,2.855-.747" transform="translate(-777.189 -343.911)" fill="#fff"></path><path id="Tracciato_195" data-name="Tracciato 195" d="M1062.5,473.9a2.437,2.437,0,0,1-1.747-.807,2.512,2.512,0,0,1-.15-3.412,5.457,5.457,0,0,1,1.683-1.26c.959-.533,2.708-1.335,3.658-.72.334.216.832.761.413,1.981-.129.376-1.319,3.688-3.373,4.163a2.145,2.145,0,0,1-.484.056m2.424-4.86a6.651,6.651,0,0,0-1.88.743,4.23,4.23,0,0,0-1.231.882.964.964,0,0,0,.043,1.325c.417.417.679.357.776.335.785-.182,1.779-1.776,2.25-3.15.017-.051.031-.1.042-.135" transform="translate(-775.058 -341.809)"></path><path id="Tracciato_196" data-name="Tracciato 196" d="M1234.176,437.683c-.085-.4.179-.816,1.018-1.226,2.06-1.008,7.768-2.89,7.768,1.257a2.577,2.577,0,0,1-2.376,2.577,7.107,7.107,0,0,1-2.643-.4c-1-.284-3.547-1.177-3.767-2.2" transform="translate(-902.396 -318.171)" fill="#fff"></path><path id="Tracciato_197" data-name="Tracciato 197" d="M1238.073,438.974a8.985,8.985,0,0,1-2.469-.453c-1.19-.34-3.995-1.292-4.315-2.791-.123-.572.028-1.4,1.438-2.089.2-.1,5-2.415,7.518-.845a3.062,3.062,0,0,1,1.372,2.8,3.347,3.347,0,0,1-3.076,3.353,4.59,4.59,0,0,1-.468.023m-5.244-3.535a7.078,7.078,0,0,0,3.2,1.583,6.489,6.489,0,0,0,2.35.378,1.789,1.789,0,0,0,1.676-1.8c0-1.08-.479-1.38-.637-1.478-1.25-.78-4.265.07-6.007.922a1.672,1.672,0,0,0-.584.4" transform="translate(-900.272 -316.055)"></path><path id="Tracciato_198" data-name="Tracciato 198" d="M1719.192,390.97c.162-.249.514-.328,1.159-.107,1.584.543,5.5,2.518,3.361,4.659a1.882,1.882,0,0,1-2.557.1,5.2,5.2,0,0,1-1.156-1.573c-.367-.661-1.223-2.438-.807-3.082" transform="translate(-1256.961 -285.697)" fill="#fff"></path><path id="Tracciato_199" data-name="Tracciato 199" d="M1720.288,394.747a2.733,2.733,0,0,1-1.729-.63,5.836,5.836,0,0,1-1.346-1.8c-.568-1.023-1.426-2.887-.779-3.885h0c.223-.345.788-.859,2.066-.421a11.566,11.566,0,0,1,2.462,1.21,4.228,4.228,0,0,1,1.992,2.386,2.436,2.436,0,0,1-.795,2.351,2.636,2.636,0,0,1-1.872.787m-2.532-5.327a6.737,6.737,0,0,0,.821,2.141,4.6,4.6,0,0,0,.967,1.347,1.1,1.1,0,0,0,1.514-.051c.475-.475.4-.781.378-.9-.2-.868-1.942-1.959-3.44-2.473a1.93,1.93,0,0,0-.239-.068" transform="translate(-1254.858 -283.585)"></path><path id="Tracciato_200" data-name="Tracciato 200" d="M1310.077,441.731c-.1-.455.205-.933,1.165-1.4,2.355-1.152,8.884-3.305,8.884,1.438a2.948,2.948,0,0,1-2.718,2.947,8.134,8.134,0,0,1-3.023-.461c-1.139-.325-4.056-1.346-4.308-2.521" transform="translate(-957.892 -320.864)" fill="#fff"></path><path id="Tracciato_201" data-name="Tracciato 201" d="M1314.84,443.394a10.207,10.207,0,0,1-2.794-.513c-1.342-.383-4.5-1.453-4.857-3.108-.131-.616.037-1.508,1.585-2.266.23-.112,5.665-2.735,8.49-.971a3.4,3.4,0,0,1,1.516,3.109,3.717,3.717,0,0,1-3.418,3.723,5.155,5.155,0,0,1-.522.026m-6.124-3.942c.106.435,1.728,1.35,3.758,1.929a7.526,7.526,0,0,0,2.73.436,2.181,2.181,0,0,0,2.017-2.172,1.922,1.922,0,0,0-.782-1.786,4.9,4.9,0,0,0-3.389-.175,16.236,16.236,0,0,0-3.59,1.224c-.61.3-.727.508-.744.544" transform="translate(-955.767 -318.743)"></path><path id="Tracciato_202" data-name="Tracciato 202" d="M1485.8,439.6c.342.221.451.7.147,1.587-.744,2.169-3.449,7.536-6.381,4.6a2.577,2.577,0,0,1-.142-3.5,7.11,7.11,0,0,1,2.154-1.584c.906-.5,3.34-1.676,4.222-1.1" transform="translate(-1081.281 -321.315)" fill="#fff"></path><path id="Tracciato_203" data-name="Tracciato 203" d="M1479.214,445.328a3.252,3.252,0,0,1-2.325-1.084,3.347,3.347,0,0,1-.2-4.546,7.785,7.785,0,0,1,2.38-1.773c1.082-.6,3.738-1.911,5.025-1.078.492.318.97,1.009.461,2.495-.074.214-1.83,5.244-4.719,5.914a2.782,2.782,0,0,1-.627.072m3.819-7.208a8.663,8.663,0,0,0-3.2,1.169,6.5,6.5,0,0,0-1.929,1.395,1.789,1.789,0,0,0,.089,2.459c.765.764,1.316.637,1.5.595,1.434-.332,2.967-3.066,3.6-4.9a1.661,1.661,0,0,0,.132-.694.6.6,0,0,0-.183-.023" transform="translate(-1079.151 -319.218)"></path><path id="Tracciato_204" data-name="Tracciato 204" d="M1527.083,490.228c-.085-.4.179-.816,1.018-1.226,2.06-1.008,7.768-2.89,7.768,1.257a2.577,2.577,0,0,1-2.376,2.577,7.113,7.113,0,0,1-2.644-.4c-1-.284-3.547-1.177-3.767-2.2" transform="translate(-1116.564 -356.591)" fill="#fff"></path><path id="Tracciato_205" data-name="Tracciato 205" d="M1530.979,491.519a9,9,0,0,1-2.469-.453c-1.19-.34-3.994-1.292-4.315-2.791-.122-.573.027-1.4,1.438-2.09.2-.1,5-2.415,7.519-.845a3.064,3.064,0,0,1,1.372,2.8,3.347,3.347,0,0,1-3.076,3.353,4.582,4.582,0,0,1-.468.023m-5.244-3.535a7.078,7.078,0,0,0,3.2,1.583,6.5,6.5,0,0,0,2.35.378,1.789,1.789,0,0,0,1.676-1.8c0-1.081-.48-1.38-.638-1.478-1.25-.78-4.265.07-6.007.922a1.675,1.675,0,0,0-.584.4" transform="translate(-1114.44 -354.474)"></path><path id="Tracciato_206" data-name="Tracciato 206" d="M1616.011,459.06c-.084-.4.18-.816,1.019-1.226,2.06-1.008,7.768-2.89,7.768,1.257a2.577,2.577,0,0,1-2.375,2.577,7.109,7.109,0,0,1-2.644-.4c-1-.284-3.547-1.177-3.767-2.2" transform="translate(-1181.587 -333.801)" fill="#fff"></path><path id="Tracciato_207" data-name="Tracciato 207" d="M1619.908,460.351a9,9,0,0,1-2.469-.453c-1.19-.34-3.994-1.292-4.315-2.791-.123-.573.028-1.4,1.439-2.089.2-.1,5-2.415,7.518-.845a3.062,3.062,0,0,1,1.372,2.8,3.346,3.346,0,0,1-3.076,3.353,4.573,4.573,0,0,1-.468.023m-5.244-3.535a7.078,7.078,0,0,0,3.2,1.583,6.49,6.49,0,0,0,2.35.378,1.789,1.789,0,0,0,1.676-1.8c0-1.081-.48-1.38-.638-1.479-1.248-.779-4.264.07-6.006.923a1.655,1.655,0,0,0-.584.4" transform="translate(-1179.462 -331.685)"></path><path id="Tracciato_208" data-name="Tracciato 208" d="M981.227,438.777c-.1-.455.205-.933,1.165-1.4,2.356-1.152,8.884-3.305,8.884,1.438a2.948,2.948,0,0,1-2.718,2.947,8.132,8.132,0,0,1-3.023-.461c-1.139-.325-4.057-1.346-4.308-2.521" transform="translate(-717.443 -318.704)" fill="#fff"></path><path id="Tracciato_209" data-name="Tracciato 209" d="M985.99,440.438a10.189,10.189,0,0,1-2.794-.514c-1.342-.383-4.5-1.453-4.857-3.108-.131-.616.036-1.508,1.585-2.266.23-.113,5.664-2.735,8.49-.972a3.4,3.4,0,0,1,1.516,3.11,3.718,3.718,0,0,1-3.418,3.723,5.126,5.126,0,0,1-.523.026m-6.124-3.942c.1.435,1.727,1.349,3.758,1.929a7.515,7.515,0,0,0,2.73.436,2.181,2.181,0,0,0,2.017-2.172,1.921,1.921,0,0,0-.782-1.786,4.894,4.894,0,0,0-3.389-.175,16.219,16.219,0,0,0-3.591,1.225c-.61.3-.727.508-.743.544" transform="translate(-715.318 -316.581)"></path><path id="Tracciato_210" data-name="Tracciato 210" d="M873.939,425.331c.1.478-.215.98-1.223,1.473-2.475,1.21-9.332,3.472-9.332-1.51a3.1,3.1,0,0,1,2.855-3.1,8.536,8.536,0,0,1,3.175.485c1.2.341,4.262,1.414,4.526,2.648" transform="translate(-631.291 -308.686)" fill="#fff"></path><path id="Tracciato_211" data-name="Tracciato 211" d="M864.653,427.039a4.872,4.872,0,0,1-2.595-.633,3.531,3.531,0,0,1-1.574-3.233,3.866,3.866,0,0,1,3.555-3.872,9.222,9.222,0,0,1,3.469.511c1.4.4,4.706,1.517,5.074,3.235.135.633-.04,1.552-1.643,2.337a16.922,16.922,0,0,1-6.286,1.656m-.069-6.206a3.842,3.842,0,0,0-.387.019,2.329,2.329,0,0,0-2.154,2.321,2.053,2.053,0,0,0,.84,1.909c1.639,1.023,5.39-.132,7.369-1.1.737-.36.8-.6.8-.6v-.005c-.1-.467-1.757-1.428-3.977-2.062a9.384,9.384,0,0,0-2.5-.478" transform="translate(-629.17 -306.566)"></path><path id="Tracciato_212" data-name="Tracciato 212" d="M1610.3,376.016c.058.273-.123.559-.7.84-1.411.69-5.322,1.98-5.322-.861a1.766,1.766,0,0,1,1.628-1.766,4.872,4.872,0,0,1,1.811.277c.683.195,2.43.807,2.581,1.51" transform="translate(-1173.02 -273.62)" fill="#fff"></path><path id="Tracciato_213" data-name="Tracciato 213" d="M1604.1,376.414a3.122,3.122,0,0,1-1.667-.413,2.332,2.332,0,0,1-1.055-2.128,2.534,2.534,0,0,1,2.328-2.541,5.514,5.514,0,0,1,2.1.3c1.066.3,2.89.981,3.129,2.1.083.391.05,1.133-1.118,1.7a9.739,9.739,0,0,1-3.722.979m-.05-3.54a1.813,1.813,0,0,0-.185.009.987.987,0,0,0-.927.99c0,.6.233.75.321.8.7.434,2.554,0,3.878-.644.056-.028.1-.052.141-.075a6.658,6.658,0,0,0-1.895-.825,5.11,5.11,0,0,0-1.333-.26" transform="translate(-1170.9 -271.498)"></path><path id="Tracciato_214" data-name="Tracciato 214" d="M1080.513,395.585c.231.149.3.476.1,1.073-.5,1.467-2.332,5.1-4.316,3.113a1.742,1.742,0,0,1-.1-2.368,4.811,4.811,0,0,1,1.457-1.071c.612-.34,2.26-1.133,2.855-.747" transform="translate(-786.593 -289.169)" fill="#fff"></path><path id="Tracciato_215" data-name="Tracciato 215" d="M1075.361,399.028a2.436,2.436,0,0,1-1.746-.807,2.512,2.512,0,0,1-.15-3.412,5.46,5.46,0,0,1,1.683-1.26c.958-.533,2.708-1.335,3.658-.72h0c.333.216.831.761.413,1.981-.129.376-1.32,3.688-3.373,4.163a2.15,2.15,0,0,1-.485.056m2.424-4.859a6.634,6.634,0,0,0-1.88.743,4.226,4.226,0,0,0-1.231.882.964.964,0,0,0,.043,1.325c.417.417.678.357.776.334.785-.182,1.779-1.776,2.25-3.15.017-.051.031-.1.042-.134" transform="translate(-784.463 -287.067)"></path><path id="Tracciato_216" data-name="Tracciato 216" d="M1354.209,371.629c-.086-.4.179-.816,1.018-1.226,2.06-1.008,7.767-2.89,7.767,1.257a2.577,2.577,0,0,1-2.376,2.577,7.1,7.1,0,0,1-2.643-.4c-1-.284-3.547-1.177-3.766-2.2" transform="translate(-990.163 -269.873)" fill="#fff"></path><path id="Tracciato_217" data-name="Tracciato 217" d="M1358.105,372.919a8.99,8.99,0,0,1-2.469-.453c-1.19-.34-3.994-1.292-4.315-2.791-.123-.573.028-1.4,1.438-2.09.2-.1,5-2.415,7.519-.845a3.063,3.063,0,0,1,1.372,2.8,3.347,3.347,0,0,1-3.076,3.353,4.573,4.573,0,0,1-.468.023m-5.244-3.535a7.084,7.084,0,0,0,3.2,1.583,6.5,6.5,0,0,0,2.35.378,1.789,1.789,0,0,0,1.676-1.8c0-1.08-.479-1.38-.638-1.478-1.249-.78-4.265.07-6.007.922a1.677,1.677,0,0,0-.584.4" transform="translate(-988.038 -267.756)"></path><path id="Tracciato_218" data-name="Tracciato 218" d="M1533.773,433.953c.162-.249.513-.328,1.159-.107,1.583.543,5.5,2.518,3.361,4.659a1.882,1.882,0,0,1-2.557.1,5.192,5.192,0,0,1-1.156-1.573c-.367-.661-1.224-2.438-.807-3.082" transform="translate(-1121.385 -317.125)" fill="#fff"></path><path id="Tracciato_219" data-name="Tracciato 219" d="M1534.868,437.729a2.734,2.734,0,0,1-1.729-.63,5.842,5.842,0,0,1-1.346-1.8c-.568-1.023-1.426-2.887-.779-3.885.223-.345.79-.859,2.066-.421a11.6,11.6,0,0,1,2.463,1.21,4.225,4.225,0,0,1,1.991,2.387,2.435,2.435,0,0,1-.794,2.351,2.637,2.637,0,0,1-1.872.787m-2.532-5.327a6.739,6.739,0,0,0,.821,2.141,4.6,4.6,0,0,0,.968,1.347,1.1,1.1,0,0,0,1.513-.051c.475-.475.4-.781.377-.9-.2-.868-1.942-1.959-3.44-2.473a2,2,0,0,0-.238-.068" transform="translate(-1119.281 -315.013)"></path><path id="Tracciato_220" data-name="Tracciato 220" d="M1345.339,615.251c.058.273-.123.559-.7.84-1.411.69-5.322,1.98-5.322-.861a1.766,1.766,0,0,1,1.628-1.766,4.872,4.872,0,0,1,1.811.277c.682.195,2.43.807,2.581,1.51" transform="translate(-979.286 -448.544)" fill="#fff"></path><path id="Tracciato_221" data-name="Tracciato 221" d="M1339.141,615.649a3.122,3.122,0,0,1-1.667-.413,2.332,2.332,0,0,1-1.055-2.128,2.534,2.534,0,0,1,2.328-2.541,5.51,5.51,0,0,1,2.1.3c1.067.3,2.891.982,3.129,2.1h0c.084.391.049,1.133-1.118,1.7a9.726,9.726,0,0,1-3.721.98m-.05-3.54a1.774,1.774,0,0,0-.186.009.987.987,0,0,0-.927.99c0,.6.233.75.321.8.695.434,2.554,0,3.878-.644.055-.027.1-.052.14-.075a6.658,6.658,0,0,0-1.894-.825,5.106,5.106,0,0,0-1.332-.26" transform="translate(-977.165 -446.422)"></path><path id="Tracciato_222" data-name="Tracciato 222" d="M1232.091,613.375c.341.221.45.7.146,1.587-.744,2.169-3.449,7.536-6.38,4.6a2.578,2.578,0,0,1-.143-3.5,7.116,7.116,0,0,1,2.155-1.584c.905-.5,3.34-1.676,4.222-1.1" transform="translate(-895.769 -448.377)" fill="#fff"></path><path id="Tracciato_223" data-name="Tracciato 223" d="M1225.5,619.1a3.249,3.249,0,0,1-2.323-1.084,3.347,3.347,0,0,1-.2-4.546,7.785,7.785,0,0,1,2.38-1.773c1.082-.6,3.738-1.911,5.025-1.078.491.318.97,1.009.46,2.495-.073.214-1.829,5.244-4.719,5.914a2.787,2.787,0,0,1-.627.072m3.82-7.209a8.663,8.663,0,0,0-3.2,1.169,6.5,6.5,0,0,0-1.929,1.394,1.788,1.788,0,0,0,.089,2.459c.765.765,1.315.637,1.5.595,1.435-.332,2.966-3.065,3.6-4.9a1.674,1.674,0,0,0,.132-.694.594.594,0,0,0-.183-.023" transform="translate(-893.639 -446.28)"></path><path id="Tracciato_224" data-name="Tracciato 224" d="M1068.634,637.017c-.085-.4.179-.816,1.018-1.226,2.06-1.008,7.767-2.89,7.767,1.257a2.577,2.577,0,0,1-2.376,2.577,7.112,7.112,0,0,1-2.643-.4c-1-.285-3.546-1.177-3.766-2.2" transform="translate(-781.355 -463.92)" fill="#fff"></path><path id="Tracciato_225" data-name="Tracciato 225" d="M1072.53,638.307a8.989,8.989,0,0,1-2.469-.453c-1.19-.34-3.995-1.292-4.315-2.791-.122-.573.028-1.4,1.438-2.09.2-.1,5-2.415,7.518-.844a3.062,3.062,0,0,1,1.372,2.8,3.347,3.347,0,0,1-3.076,3.353,4.567,4.567,0,0,1-.468.024m-5.244-3.535a7.087,7.087,0,0,0,3.2,1.583,6.494,6.494,0,0,0,2.35.377,1.789,1.789,0,0,0,1.675-1.8c0-1.081-.48-1.38-.637-1.479-1.25-.78-4.265.07-6.007.923a1.657,1.657,0,0,0-.584.4" transform="translate(-779.229 -461.804)"></path><path id="Tracciato_226" data-name="Tracciato 226" d="M1362.3,632.837c-.085-.4.179-.815,1.018-1.226,2.06-1.008,7.767-2.89,7.767,1.257a2.577,2.577,0,0,1-2.376,2.577,7.111,7.111,0,0,1-2.644-.4c-1-.284-3.546-1.177-3.766-2.2" transform="translate(-996.077 -460.864)" fill="#fff"></path><path id="Tracciato_227" data-name="Tracciato 227" d="M1366.194,634.127a8.989,8.989,0,0,1-2.468-.453c-1.191-.34-3.994-1.292-4.316-2.791-.123-.573.028-1.4,1.439-2.09.2-.1,5-2.415,7.518-.845a3.063,3.063,0,0,1,1.371,2.8,3.346,3.346,0,0,1-3.076,3.353,4.553,4.553,0,0,1-.468.023m-5.244-3.535a7.081,7.081,0,0,0,3.2,1.583,6.5,6.5,0,0,0,2.35.378,1.789,1.789,0,0,0,1.675-1.8c0-1.081-.48-1.38-.637-1.479-1.25-.78-4.265.07-6.007.922a1.675,1.675,0,0,0-.584.4" transform="translate(-993.951 -458.747)"></path><path id="Tracciato_228" data-name="Tracciato 228" d="M1280.059,607.729c.161-.249.513-.329,1.159-.107,1.584.543,5.5,2.518,3.361,4.659a1.883,1.883,0,0,1-2.557.1,5.2,5.2,0,0,1-1.156-1.573c-.367-.661-1.224-2.438-.807-3.082" transform="translate(-935.874 -444.187)" fill="#fff"></path><path id="Tracciato_229" data-name="Tracciato 229" d="M1281.154,611.505a2.732,2.732,0,0,1-1.729-.629,5.853,5.853,0,0,1-1.346-1.8c-.568-1.022-1.425-2.887-.779-3.885h0c.223-.345.788-.859,2.065-.421a11.562,11.562,0,0,1,2.463,1.21,4.227,4.227,0,0,1,1.991,2.387,2.436,2.436,0,0,1-.794,2.351,2.637,2.637,0,0,1-1.872.786m-2.532-5.327a6.72,6.72,0,0,0,.821,2.141,4.593,4.593,0,0,0,.967,1.347,1.1,1.1,0,0,0,1.514-.051c.475-.475.4-.781.378-.9-.2-.868-1.942-1.959-3.441-2.473a2.035,2.035,0,0,0-.238-.068" transform="translate(-933.771 -442.075)"></path><path id="Tracciato_230" data-name="Tracciato 230" d="M902.735,498.818c-.1-.455.205-.933,1.165-1.4,2.356-1.152,8.884-3.3,8.884,1.438a2.947,2.947,0,0,1-2.717,2.947,8.133,8.133,0,0,1-3.023-.461c-1.139-.325-4.057-1.346-4.308-2.521" transform="translate(-660.051 -362.605)" fill="#fff"></path><path id="Tracciato_231" data-name="Tracciato 231" d="M907.5,500.481a10.21,10.21,0,0,1-2.794-.513c-1.342-.383-4.5-1.453-4.856-3.108-.132-.616.036-1.508,1.584-2.266.23-.112,5.665-2.735,8.49-.972a3.4,3.4,0,0,1,1.516,3.109,3.717,3.717,0,0,1-3.418,3.723,5.227,5.227,0,0,1-.523.026m-6.124-3.942c.1.435,1.727,1.349,3.758,1.929a7.52,7.52,0,0,0,2.73.436,2.181,2.181,0,0,0,2.017-2.172,1.92,1.92,0,0,0-.782-1.786,4.894,4.894,0,0,0-3.389-.175,16.2,16.2,0,0,0-3.59,1.225c-.61.3-.727.508-.744.544" transform="translate(-657.927 -360.483)"></path><path id="Tracciato_232" data-name="Tracciato 232" d="M1303.442,340.6c.342.221.45.7.147,1.587-.744,2.169-3.449,7.536-6.38,4.6a2.577,2.577,0,0,1-.143-3.5,7.116,7.116,0,0,1,2.154-1.584c.905-.5,3.34-1.676,4.222-1.1" transform="translate(-947.94 -248.93)" fill="#fff"></path><path id="Tracciato_233" data-name="Tracciato 233" d="M1296.849,346.331a3.25,3.25,0,0,1-2.324-1.083,3.347,3.347,0,0,1-.2-4.546,7.783,7.783,0,0,1,2.38-1.773c1.082-.6,3.738-1.911,5.025-1.078.492.318.97,1.009.461,2.495-.073.214-1.83,5.245-4.719,5.913a2.774,2.774,0,0,1-.627.072m3.819-7.208a8.668,8.668,0,0,0-3.2,1.169,6.505,6.505,0,0,0-1.929,1.395,1.789,1.789,0,0,0,.09,2.459c.764.764,1.316.637,1.5.595,1.435-.332,2.966-3.065,3.6-4.9a1.684,1.684,0,0,0,.132-.694.6.6,0,0,0-.183-.023" transform="translate(-945.809 -246.834)"></path><path id="Tracciato_234" data-name="Tracciato 234" d="M1476.069,393.6c-.085-.4.179-.816,1.019-1.226,2.06-1.008,7.767-2.89,7.767,1.257a2.577,2.577,0,0,1-2.375,2.577,7.115,7.115,0,0,1-2.644-.4c-1-.284-3.546-1.177-3.766-2.2" transform="translate(-1079.264 -285.939)" fill="#fff"></path><path id="Tracciato_235" data-name="Tracciato 235" d="M1479.964,394.892a8.993,8.993,0,0,1-2.469-.453c-1.191-.34-3.995-1.292-4.315-2.791-.122-.573.028-1.4,1.439-2.09.2-.1,5-2.415,7.518-.845a3.062,3.062,0,0,1,1.372,2.8,3.346,3.346,0,0,1-3.076,3.353,4.586,4.586,0,0,1-.468.023m-5.244-3.535a7.08,7.08,0,0,0,3.2,1.583,6.5,6.5,0,0,0,2.35.378,1.789,1.789,0,0,0,1.675-1.8c0-1.081-.48-1.38-.637-1.479-1.249-.779-4.265.07-6.007.923a1.673,1.673,0,0,0-.584.4" transform="translate(-1077.139 -283.822)"></path><path id="Tracciato_236" data-name="Tracciato 236" d="M1627.258,393.6c-.086-.4.179-.816,1.018-1.226,2.059-1.008,7.768-2.89,7.768,1.257a2.578,2.578,0,0,1-2.376,2.577,7.108,7.108,0,0,1-2.643-.4c-1-.284-3.547-1.177-3.767-2.2" transform="translate(-1189.811 -285.939)" fill="#fff"></path><path id="Tracciato_237" data-name="Tracciato 237" d="M1631.153,394.892a8.993,8.993,0,0,1-2.469-.453c-1.19-.34-3.994-1.292-4.315-2.791-.123-.573.028-1.4,1.438-2.09.2-.1,5-2.415,7.518-.845a3.062,3.062,0,0,1,1.372,2.8,3.346,3.346,0,0,1-3.076,3.353,4.6,4.6,0,0,1-.469.023m-5.244-3.535a7.084,7.084,0,0,0,3.2,1.583,6.5,6.5,0,0,0,2.35.378,1.788,1.788,0,0,0,1.675-1.8c0-1.081-.48-1.38-.637-1.479-1.249-.779-4.265.07-6.008.923a1.681,1.681,0,0,0-.584.4" transform="translate(-1187.686 -283.822)"></path><path id="Tracciato_238" data-name="Tracciato 238" d="M1402.511,446.538c.058.273-.123.559-.7.84-1.412.69-5.322,1.98-5.322-.861a1.766,1.766,0,0,1,1.628-1.766,4.876,4.876,0,0,1,1.811.277c.682.195,2.43.806,2.58,1.51" transform="translate(-1021.09 -325.184)" fill="#fff"></path><path id="Tracciato_239" data-name="Tracciato 239" d="M1396.314,446.937a3.12,3.12,0,0,1-1.667-.414,2.33,2.33,0,0,1-1.055-2.128,2.534,2.534,0,0,1,2.328-2.541,5.517,5.517,0,0,1,2.1.3c1.066.3,2.89.981,3.129,2.1.083.391.05,1.132-1.118,1.7a9.734,9.734,0,0,1-3.722.98m-.05-3.541c-.062,0-.124,0-.185.009a.987.987,0,0,0-.928.99c0,.6.234.75.322.8.7.434,2.554,0,3.878-.644.056-.027.1-.052.14-.075a6.657,6.657,0,0,0-1.895-.825,5.1,5.1,0,0,0-1.333-.26" transform="translate(-1018.97 -323.063)"></path><path id="Tracciato_240" data-name="Tracciato 240" d="M1037.636,442.747c-.085-.4.179-.816,1.018-1.226,2.06-1.008,7.767-2.89,7.767,1.257a2.577,2.577,0,0,1-2.376,2.577,7.111,7.111,0,0,1-2.643-.4c-1-.284-3.547-1.177-3.766-2.2" transform="translate(-758.69 -321.873)" fill="#fff"></path><path id="Tracciato_241" data-name="Tracciato 241" d="M1041.531,444.037a8.99,8.99,0,0,1-2.468-.453c-1.191-.34-3.995-1.292-4.315-2.791-.122-.572.028-1.4,1.438-2.089.2-.1,5-2.415,7.519-.845a3.063,3.063,0,0,1,1.371,2.8,3.346,3.346,0,0,1-3.076,3.353,4.584,4.584,0,0,1-.469.023m-5.244-3.535a7.085,7.085,0,0,0,3.2,1.583,6.5,6.5,0,0,0,2.35.378,1.788,1.788,0,0,0,1.676-1.8c0-1.081-.48-1.38-.637-1.479-1.25-.78-4.265.07-6.007.923a1.672,1.672,0,0,0-.584.4" transform="translate(-756.564 -319.757)"></path><path id="Tracciato_242" data-name="Tracciato 242" d="M1112.8,442.153c.161-.249.513-.329,1.159-.107,1.583.543,5.5,2.518,3.361,4.659a1.882,1.882,0,0,1-2.557.1,5.183,5.183,0,0,1-1.156-1.573c-.368-.661-1.224-2.438-.807-3.082" transform="translate(-813.578 -323.121)" fill="#fff"></path><path id="Tracciato_243" data-name="Tracciato 243" d="M1113.9,445.929a2.731,2.731,0,0,1-1.729-.63,5.834,5.834,0,0,1-1.345-1.8c-.568-1.022-1.426-2.887-.78-3.885h0c.223-.345.789-.859,2.065-.42a11.556,11.556,0,0,1,2.462,1.21,4.223,4.223,0,0,1,1.991,2.387,2.435,2.435,0,0,1-.794,2.351,2.636,2.636,0,0,1-1.872.787m-2.532-5.326a6.72,6.72,0,0,0,.821,2.141,4.6,4.6,0,0,0,.967,1.347,1.1,1.1,0,0,0,1.513-.051c.475-.475.4-.781.377-.9-.2-.868-1.942-1.96-3.44-2.473a1.97,1.97,0,0,0-.238-.067" transform="translate(-811.474 -321.008)"></path><path id="Tracciato_244" data-name="Tracciato 244" d="M1205.388,499.191c.341.221.45.7.147,1.587-.744,2.169-3.449,7.536-6.381,4.6a2.578,2.578,0,0,1-.142-3.5,7.111,7.111,0,0,1,2.154-1.584c.906-.5,3.34-1.676,4.222-1.1" transform="translate(-876.245 -364.888)" fill="#fff"></path><path id="Tracciato_245" data-name="Tracciato 245" d="M1198.8,504.92a3.251,3.251,0,0,1-2.324-1.083,3.347,3.347,0,0,1-.2-4.546,7.784,7.784,0,0,1,2.38-1.773c1.082-.6,3.739-1.911,5.025-1.078.491.318.97,1.009.46,2.495-.073.214-1.829,5.245-4.719,5.914a2.78,2.78,0,0,1-.627.072m3.82-7.209a8.66,8.66,0,0,0-3.2,1.169,6.5,6.5,0,0,0-1.929,1.395,1.789,1.789,0,0,0,.09,2.459c.764.764,1.315.636,1.5.594,1.434-.332,2.965-3.065,3.595-4.9a1.663,1.663,0,0,0,.132-.694.594.594,0,0,0-.183-.023" transform="translate(-874.113 -362.791)"></path><path id="Tracciato_246" data-name="Tracciato 246" d="M1712.5,428.806c-.085-.4.179-.815,1.019-1.226,2.059-1.008,7.768-2.89,7.768,1.257a2.578,2.578,0,0,1-2.376,2.577,7.109,7.109,0,0,1-2.643-.4c-1-.284-3.547-1.177-3.767-2.2" transform="translate(-1252.14 -311.68)" fill="#fff"></path><path id="Tracciato_247" data-name="Tracciato 247" d="M1716.4,430.1a8.99,8.99,0,0,1-2.469-.453c-1.19-.34-3.995-1.292-4.315-2.791h0c-.123-.572.028-1.4,1.438-2.089.2-.1,5-2.415,7.518-.845a3.063,3.063,0,0,1,1.372,2.8,3.347,3.347,0,0,1-3.077,3.353,4.572,4.572,0,0,1-.468.023m-5.244-3.535a7.079,7.079,0,0,0,3.2,1.583,6.5,6.5,0,0,0,2.35.377,1.788,1.788,0,0,0,1.675-1.8c0-1.081-.479-1.38-.637-1.479-1.25-.779-4.265.07-6.007.923a1.66,1.66,0,0,0-.584.4" transform="translate(-1250.015 -309.563)"></path><path id="Tracciato_248" data-name="Tracciato 248" d="M1391.353,499.834c-.085-.4.18-.816,1.019-1.226,2.06-1.008,7.767-2.89,7.767,1.257a2.577,2.577,0,0,1-2.376,2.577,7.109,7.109,0,0,1-2.643-.4c-1-.284-3.547-1.177-3.767-2.2" transform="translate(-1017.321 -363.614)" fill="#fff"></path><path id="Tracciato_249" data-name="Tracciato 249" d="M1395.249,501.125a8.995,8.995,0,0,1-2.468-.453c-1.19-.34-3.994-1.292-4.315-2.791-.122-.573.028-1.4,1.438-2.09.2-.1,5-2.415,7.518-.845a3.062,3.062,0,0,1,1.372,2.8,3.346,3.346,0,0,1-3.076,3.353,4.611,4.611,0,0,1-.469.023m-5.243-3.535a7.075,7.075,0,0,0,3.2,1.583,6.5,6.5,0,0,0,2.35.378,1.789,1.789,0,0,0,1.676-1.8c0-1.08-.48-1.38-.638-1.478-1.25-.78-4.265.07-6.007.922a1.67,1.67,0,0,0-.584.4" transform="translate(-1015.197 -361.498)"></path><path id="Tracciato_250" data-name="Tracciato 250" d="M1413.758,381.079c.058.273-.123.559-.7.84-1.411.69-5.322,1.98-5.322-.861a1.766,1.766,0,0,1,1.628-1.766,4.871,4.871,0,0,1,1.811.277c.682.195,2.43.806,2.581,1.51" transform="translate(-1029.313 -277.322)" fill="#fff"></path><path id="Tracciato_251" data-name="Tracciato 251" d="M1407.56,381.478a3.119,3.119,0,0,1-1.667-.414,2.331,2.331,0,0,1-1.055-2.128,2.535,2.535,0,0,1,2.328-2.542,5.512,5.512,0,0,1,2.1.3c1.066.3,2.89.981,3.129,2.1.084.391.05,1.132-1.117,1.7a9.734,9.734,0,0,1-3.722.98m-.05-3.541a1.821,1.821,0,0,0-.185.009.986.986,0,0,0-.927.99c0,.6.233.75.321.8.7.434,2.554,0,3.878-.644.056-.027.1-.052.14-.075a6.649,6.649,0,0,0-1.895-.825,5.108,5.108,0,0,0-1.332-.26" transform="translate(-1027.193 -275.201)"></path><path id="Tracciato_252" data-name="Tracciato 252" d="M1157.668,376.693c-.085-.4.179-.816,1.018-1.226,2.06-1.008,7.768-2.89,7.768,1.257a2.577,2.577,0,0,1-2.376,2.577,7.107,7.107,0,0,1-2.644-.4c-1-.284-3.547-1.177-3.767-2.2" transform="translate(-846.456 -273.576)" fill="#fff"></path><path id="Tracciato_253" data-name="Tracciato 253" d="M1161.565,377.983a8.994,8.994,0,0,1-2.469-.453c-1.191-.34-3.994-1.292-4.315-2.791-.122-.572.027-1.4,1.439-2.09.2-.1,5-2.415,7.518-.845a3.062,3.062,0,0,1,1.372,2.8,3.346,3.346,0,0,1-3.076,3.353,4.588,4.588,0,0,1-.468.023m-5.245-3.535a7.079,7.079,0,0,0,3.2,1.583,6.505,6.505,0,0,0,2.35.378,1.788,1.788,0,0,0,1.675-1.8c0-1.081-.48-1.38-.637-1.479-1.249-.78-4.265.07-6.008.922a1.675,1.675,0,0,0-.583.4" transform="translate(-844.33 -271.459)"></path><path id="Tracciato_254" data-name="Tracciato 254" d="M1224.5,366.276c.161-.249.513-.329,1.159-.107,1.583.543,5.5,2.518,3.361,4.659a1.882,1.882,0,0,1-2.557.1,5.192,5.192,0,0,1-1.156-1.573c-.368-.661-1.224-2.438-.807-3.082" transform="translate(-895.248 -267.641)" fill="#fff"></path><path id="Tracciato_255" data-name="Tracciato 255" d="M1225.591,370.052a2.735,2.735,0,0,1-1.729-.629,5.847,5.847,0,0,1-1.345-1.8c-.569-1.023-1.426-2.887-.78-3.885h0c.224-.345.789-.859,2.066-.421a11.6,11.6,0,0,1,2.462,1.21,4.228,4.228,0,0,1,1.992,2.386,2.436,2.436,0,0,1-.794,2.351,2.639,2.639,0,0,1-1.872.787m-2.532-5.326a6.722,6.722,0,0,0,.821,2.141,4.6,4.6,0,0,0,.967,1.347,1.1,1.1,0,0,0,1.514-.051c.475-.475.4-.781.378-.9-.2-.868-1.942-1.959-3.441-2.473a2.046,2.046,0,0,0-.238-.068" transform="translate(-893.144 -265.528)"></path><path id="Tracciato_256" data-name="Tracciato 256" d="M1145.176,462.5c.341.221.45.7.147,1.587-.744,2.169-3.448,7.536-6.381,4.6a2.577,2.577,0,0,1-.143-3.5,7.11,7.11,0,0,1,2.154-1.584c.905-.5,3.34-1.676,4.222-1.1" transform="translate(-832.219 -338.057)" fill="#fff"></path><path id="Tracciato_257" data-name="Tracciato 257" d="M1138.584,468.225a3.25,3.25,0,0,1-2.324-1.083,3.347,3.347,0,0,1-.2-4.546,7.78,7.78,0,0,1,2.38-1.773c1.082-.6,3.738-1.911,5.025-1.078.491.318.97,1.01.461,2.495-.073.214-1.829,5.244-4.719,5.913a2.777,2.777,0,0,1-.627.072m3.819-7.208a8.66,8.66,0,0,0-3.2,1.169,6.488,6.488,0,0,0-1.928,1.395,1.788,1.788,0,0,0,.089,2.459c.764.765,1.315.636,1.5.595,1.435-.332,2.966-3.065,3.6-4.9a1.669,1.669,0,0,0,.132-.694.594.594,0,0,0-.183-.023" transform="translate(-830.088 -335.96)"></path><path id="Tracciato_258" data-name="Tracciato 258" d="M1636.994,612.975c.342.221.45.7.147,1.587-.744,2.169-3.449,7.536-6.381,4.6a2.577,2.577,0,0,1-.143-3.5,7.11,7.11,0,0,1,2.155-1.583c.906-.5,3.34-1.676,4.222-1.1" transform="translate(-1191.827 -448.085)" fill="#fff"></path><path id="Tracciato_259" data-name="Tracciato 259" d="M1630.4,618.7a3.251,3.251,0,0,1-2.324-1.083,3.347,3.347,0,0,1-.2-4.546,7.772,7.772,0,0,1,2.38-1.773c1.082-.6,3.737-1.911,5.024-1.078.491.318.971,1.009.46,2.495-.073.214-1.829,5.244-4.719,5.913a2.773,2.773,0,0,1-.627.072m3.819-7.209a8.666,8.666,0,0,0-3.2,1.169,6.511,6.511,0,0,0-1.929,1.395,1.789,1.789,0,0,0,.089,2.459c.764.764,1.316.636,1.5.594,1.435-.332,2.966-3.065,3.6-4.9a1.671,1.671,0,0,0,.132-.694.6.6,0,0,0-.184-.023" transform="translate(-1189.697 -445.988)"></path><path id="Tracciato_260" data-name="Tracciato 260" d="M1250.546,403.208c-.085-.4.179-.816,1.019-1.226,2.059-1.008,7.767-2.89,7.767,1.257a2.578,2.578,0,0,1-2.376,2.577,7.1,7.1,0,0,1-2.643-.4c-1-.284-3.547-1.177-3.767-2.2" transform="translate(-914.366 -292.963)" fill="#fff"></path><path id="Tracciato_261" data-name="Tracciato 261" d="M1254.442,404.5a8.993,8.993,0,0,1-2.469-.453c-1.19-.34-3.995-1.292-4.315-2.791-.122-.573.028-1.4,1.438-2.09.2-.1,5-2.415,7.518-.845a3.063,3.063,0,0,1,1.372,2.8,3.347,3.347,0,0,1-3.076,3.353,4.624,4.624,0,0,1-.468.023m-5.244-3.535a7.083,7.083,0,0,0,3.2,1.583,6.5,6.5,0,0,0,2.35.378,1.789,1.789,0,0,0,1.675-1.8c0-1.081-.48-1.38-.638-1.479-1.25-.779-4.265.07-6.007.923a1.672,1.672,0,0,0-.584.4" transform="translate(-912.24 -290.846)"></path><path id="Tracciato_262" data-name="Tracciato 262" d="M1543.453,395.54c-.085-.4.18-.816,1.018-1.226,2.06-1.008,7.768-2.89,7.768,1.257a2.578,2.578,0,0,1-2.376,2.577,7.108,7.108,0,0,1-2.643-.4c-1-.284-3.547-1.177-3.767-2.2" transform="translate(-1128.534 -287.356)" fill="#fff"></path><path id="Tracciato_263" data-name="Tracciato 263" d="M1547.348,396.83a8.99,8.99,0,0,1-2.468-.453c-1.191-.34-4-1.292-4.315-2.791-.123-.573.028-1.4,1.439-2.089.2-.1,5-2.415,7.518-.845a3.063,3.063,0,0,1,1.371,2.8,3.346,3.346,0,0,1-3.076,3.353,4.6,4.6,0,0,1-.468.023M1542.1,393.3a7.085,7.085,0,0,0,3.2,1.583,6.494,6.494,0,0,0,2.35.377,1.788,1.788,0,0,0,1.676-1.8c0-1.081-.48-1.38-.637-1.479-1.25-.779-4.265.07-6.008.922a1.663,1.663,0,0,0-.584.4" transform="translate(-1126.409 -285.24)"></path><path id="Tracciato_264" data-name="Tracciato 264" d="M981.227,377.776c-.1-.455.205-.933,1.165-1.4,2.356-1.153,8.884-3.305,8.884,1.438a2.948,2.948,0,0,1-2.718,2.947,8.126,8.126,0,0,1-3.023-.462c-1.139-.325-4.057-1.346-4.308-2.521" transform="translate(-717.443 -274.101)" fill="#fff"></path><path id="Tracciato_265" data-name="Tracciato 265" d="M985.989,379.439a10.2,10.2,0,0,1-2.793-.514c-1.342-.383-4.5-1.453-4.857-3.108-.132-.616.036-1.508,1.584-2.266.23-.112,5.665-2.735,8.49-.972a3.4,3.4,0,0,1,1.516,3.109,3.718,3.718,0,0,1-3.418,3.723,5.209,5.209,0,0,1-.523.026m-6.124-3.942c.1.435,1.727,1.349,3.758,1.929a7.5,7.5,0,0,0,2.73.436,2.18,2.18,0,0,0,2.017-2.172,1.922,1.922,0,0,0-.782-1.786,4.9,4.9,0,0,0-3.389-.175,16.223,16.223,0,0,0-3.59,1.224c-.61.3-.727.508-.743.544" transform="translate(-715.318 -271.979)"></path></g></g></g></svg>