<svg xmlns="http://www.w3.org/2000/svg" xmlns:xlink="http://www.w3.org/1999/xlink" id="Raggruppa_15" data-name="Raggruppa 15" width="59.575" height="80.389" viewBox="0 0 59.575 80.389"><defs><clipPath id="clip-path"><rect id="Rettangolo_14" data-name="Rettangolo 14" width="59.575" height="80.389" fill="none"></rect></clipPath></defs><g id="Raggruppa_14" data-name="Raggruppa 14" clip-path="url(#clip-path)"><path id="Tracciato_266" data-name="Tracciato 266" d="M65.33,100.246s21.546,9.156,27.437,32.7c0,0,.721-27.5,17.562-37.933A53.774,53.774,0,0,1,77.345,67.545s5.671,23.545-12.015,32.7" transform="translate(-53.248 -55.054)" fill="#fcd575"></path><path id="Tracciato_267" data-name="Tracciato 267" d="M81.77,124.444a2.5,2.5,0,0,1-2.42-1.89,45.593,45.593,0,0,0-15-23.776,48.17,48.17,0,0,0-11-7.235,2.5,2.5,0,0,1-.168-4.513C59.7,83.658,63.5,77.7,64.477,69.32a39.391,39.391,0,0,0-.556-12.193,2.5,2.5,0,0,1,4.665-1.69A50.065,50.065,0,0,0,88.113,76.423a46.9,46.9,0,0,0,11.792,5.161,2.5,2.5,0,0,1,.743,4.553c-15.479,9.586-16.373,35.616-16.381,35.878a2.5,2.5,0,0,1-2.5,2.429m-22.455-35.4a57.727,57.727,0,0,1,8.151,5.829,52.8,52.8,0,0,1,13.106,16.648c.33-1.659.744-3.445,1.261-5.3,2.567-9.188,6.739-16.462,12.194-21.335a57.512,57.512,0,0,1-8.3-4.075,56.723,56.723,0,0,1-16.038-14.2c-.036,1.008-.109,2.057-.23,3.132-.941,8.341-4.42,14.928-10.14,19.3" transform="translate(-42.253 -44.054)"></path><path id="Tracciato_268" data-name="Tracciato 268" d="M11.672,120.689A3.086,3.086,0,1,1,8.586,117.6a3.086,3.086,0,0,1,3.086,3.086" transform="translate(-4.483 -95.855)" fill="#fcd575"></path><path id="Tracciato_269" data-name="Tracciato 269" d="M4.1,120.309a4.1,4.1,0,1,1,4.1-4.1,4.108,4.108,0,0,1-4.1,4.1m0-6.172a2.069,2.069,0,1,0,2.069,2.069A2.071,2.071,0,0,0,4.1,114.137" transform="translate(0.001 -91.372)"></path><path id="Tracciato_270" data-name="Tracciato 270" d="M68.389,327.662a5.275,5.275,0,1,1-5.275-5.275,5.275,5.275,0,0,1,5.275,5.275" transform="translate(-47.143 -262.768)" fill="#fcd575"></path><path id="Tracciato_271" data-name="Tracciato 271" d="M55.778,327.265a6.939,6.939,0,1,1,6.939-6.939,6.947,6.947,0,0,1-6.939,6.939m0-10.549a3.61,3.61,0,1,0,3.61,3.61,3.614,3.614,0,0,0-3.61-3.61" transform="translate(-39.807 -255.432)"></path><path id="Tracciato_272" data-name="Tracciato 272" d="M233.315,15.774A5.275,5.275,0,1,1,228.04,10.5a5.275,5.275,0,0,1,5.275,5.275" transform="translate(-181.569 -8.557)" fill="#fcd575"></path><path id="Tracciato_273" data-name="Tracciato 273" d="M219.482,14.433A7.216,7.216,0,1,1,226.7,7.216a7.225,7.225,0,0,1-7.216,7.217m0-10.549a3.333,3.333,0,1,0,3.333,3.333,3.337,3.337,0,0,0-3.333-3.333" transform="translate(-173.012)"></path></g></svg>