<svg xmlns="http://www.w3.org/2000/svg" xmlns:xlink="http://www.w3.org/1999/xlink" width="88" height="90" viewBox="0 0 88 90">
  <defs>
    <clipPath id="clip-path">
      <rect id="Rettangolo_185" data-name="Rettangolo 185" width="40.151" height="47.782" fill="none"/>
    </clipPath>
  </defs>
  <g id="Raggruppa_216" data-name="Raggruppa 216" transform="translate(-1750 -61)">
    <rect id="Rettangolo_8" data-name="Rettangolo 8" width="78" height="80" transform="translate(1760 71)"/>
    <g id="Rettangolo_17" data-name="Rettangolo 17" transform="translate(1750 61)" fill="#e6a106" stroke="#000" stroke-linejoin="round" stroke-width="7">
      <rect width="78" height="80" stroke="none"/>
      <rect x="3.5" y="3.5" width="71" height="73" fill="none"/>
    </g>
    <g id="Raggruppa_214" data-name="Raggruppa 214" transform="translate(1769 77)">
      <g id="Raggruppa_213" data-name="Raggruppa 213" clip-path="url(#clip-path)">
        <path id="Tracciato_2147" data-name="Tracciato 2147" d="M34.652,201.983l-3.908,6.341-4.105-3.864-6.561,10.647L13.516,204.46l-4.105,3.864L5.5,201.983.016,206.408,0,206.4c.016-.033.03-.067.047-.1A32.836,32.836,0,0,0,3,198.132a36.13,36.13,0,0,0,.857-7.4q.036-3.2.023-6.4a16.254,16.254,0,0,1,1.692-7.325c.153-.313.319-.62.488-.948l.127.173A25.478,25.478,0,0,0,8.656,179.2a.13.13,0,0,1,.029.18,8.707,8.707,0,0,0-.731,1.82,4.882,4.882,0,0,0,2.422,5.551,6.631,6.631,0,0,0,3.231.844h.263c-.033.255-.076.5-.095.743-.039.508-.069,1.017-.094,1.525a.194.194,0,0,1-.109.186q-2.465,1.419-4.926,2.844l-.169.1.211.12c1.225.687,2.443,1.385,3.677,2.055A6.156,6.156,0,0,1,14.421,197a18.11,18.11,0,0,1,1.908,3.459,50.038,50.038,0,0,1,2,5.585c.559,1.852,1.1,3.71,1.648,5.565.028.1.06.191.1.319.053-.169.1-.306.14-.445.55-1.86,1.088-3.723,1.652-5.578a47.156,47.156,0,0,1,2.151-5.883,17.162,17.162,0,0,1,1.808-3.151,6.449,6.449,0,0,1,2.181-1.827c1.2-.649,2.391-1.333,3.585-2,.023-.013.044-.027.082-.051l-.8-.464q-2.146-1.239-4.294-2.477a.18.18,0,0,1-.112-.173,13.338,13.338,0,0,0-.186-2.237.4.4,0,0,1,.007-.06c.216,0,.437.012.656,0a6.21,6.21,0,0,0,3.514-1.288,4.816,4.816,0,0,0,1.627-5.458c-.162-.5-.408-.969-.618-1.452-.025-.059-.049-.1.012-.162a25.652,25.652,0,0,0,2.561-3.088c.01-.014.022-.027.046-.056.131.246.263.478.382.717a16.623,16.623,0,0,1,1.676,5.39,22.225,22.225,0,0,1,.121,2.775c0,1.662-.007,3.325.019,4.987.017,1.1.049,2.208.137,3.307a33.9,33.9,0,0,0,3.287,12.259c.143.294.294.585.441.878,0,0,0,.007-.008.026l-5.491-4.427" transform="translate(0 -167.325)" fill="#fff"/>
        <path id="Tracciato_2148" data-name="Tracciato 2148" d="M91.149,2.276c.28.323.524.635.8.914a6.088,6.088,0,0,0,2.317,1.559,5.194,5.194,0,0,0,.685.15.276.276,0,0,0,.268-.1,16.061,16.061,0,0,1,5.051-3.473A15.635,15.635,0,0,1,104.525.17,17.76,17.76,0,0,1,106.551,0,15.8,15.8,0,0,1,108.5.12a16.019,16.019,0,0,1,4.38,1.1,15.87,15.87,0,0,1,5.239,3.519.488.488,0,0,0,.47.15,3.75,3.75,0,0,0,1.359-.514,7.122,7.122,0,0,0,2.227-2.042c.007-.01.017-.019.05-.054-.014.059-.02.089-.029.117a12.5,12.5,0,0,1-1.724,3.279,26.925,26.925,0,0,1-4.321,4.7,31.99,31.99,0,0,1-5.46,3.907c-.382.214-.779.4-1.165.609a.171.171,0,0,1-.212-.022,4.292,4.292,0,0,0-5.21-.009.207.207,0,0,1-.247.022,28.655,28.655,0,0,1-5.139-3.291,30.749,30.749,0,0,1-4.943-4.8,15.623,15.623,0,0,1-2.237-3.538c-.136-.311-.251-.631-.388-.978" transform="translate(-86.624 0)" fill="#fff"/>
        <path id="Tracciato_2149" data-name="Tracciato 2149" d="M289.889,342.591c-.161.1-.32.193-.476.292A10.139,10.139,0,0,0,286,346.62a22.354,22.354,0,0,0-1.621,3.877c-.256.773-.5,1.551-.745,2.327-.008.024-.017.048-.035.1-.023-.061-.038-.1-.051-.136-.452-1.342-.877-2.693-1.363-4.023a13.5,13.5,0,0,0-1.947-3.611,9.544,9.544,0,0,0-2.88-2.523c-.019-.011-.037-.023-.072-.046.262-.152.512-.3.764-.443.431-.246.864-.486,1.294-.734a.949.949,0,0,0,.491-.893c0-.62-.014-1.242.024-1.86a6.986,6.986,0,0,1,.819-3.04,4.908,4.908,0,0,1,1.45-1.6,2.432,2.432,0,0,1,3.022.058,5.219,5.219,0,0,1,1.938,3,11.6,11.6,0,0,1,.282,3.233,2.458,2.458,0,0,0,.009.45.932.932,0,0,0,.513.685c.66.371,1.316.75,1.973,1.127.01.006.017.019.029.034" transform="translate(-263.516 -316.954)" fill="#fff"/>
        <path id="Tracciato_2150" data-name="Tracciato 2150" d="M492.62,276.979a2.5,2.5,0,0,1-.033,2.62,2.9,2.9,0,0,1-1.733,1.132,4.516,4.516,0,0,1-3.382-.439.439.439,0,0,1-.044-.035,30.269,30.269,0,0,0,5.192-3.279" transform="translate(-463.23 -263.229)" fill="#fff"/>
        <path id="Tracciato_2151" data-name="Tracciato 2151" d="M210.067,277.019a30.351,30.351,0,0,0,5.2,3.28,4.508,4.508,0,0,1-4.227.153,2.336,2.336,0,0,1-1.248-1.466,2.671,2.671,0,0,1,.192-1.776c.025-.06.053-.119.086-.191" transform="translate(-199.3 -263.267)" fill="#fff"/>
      </g>
    </g>
  </g>
</svg>
