<svg xmlns="http://www.w3.org/2000/svg" xmlns:xlink="http://www.w3.org/1999/xlink" width="88" height="90" viewBox="0 0 88 90">
  <defs>
    <clipPath id="clip-path">
      <rect id="Rettangolo_184" data-name="Rettangolo 184" width="38.497" height="44.672" fill="none"/>
    </clipPath>
  </defs>
  <g id="Raggruppa_210" data-name="Raggruppa 210" transform="translate(-1434 574)">
    <rect id="Rettangolo_8" data-name="Rettangolo 8" width="78" height="80" transform="translate(1444 -564)"/>
    <g id="Rettangolo_17" data-name="Rettangolo 17" transform="translate(1434 -574)" fill="#e6a106" stroke="#000" stroke-linejoin="round" stroke-width="7">
      <rect width="78" height="80" stroke="none"/>
      <rect x="3.5" y="3.5" width="71" height="73" fill="none"/>
    </g>
    <g id="Raggruppa_206" data-name="Raggruppa 206" transform="translate(1454 -556)">
      <path id="Tracciato_2143" data-name="Tracciato 2143" d="M19.249,0,0,11.17V33.5l19.249,11.17L38.5,33.5v-17.9l-2.016,1.158V32.344l-17.24,10L2,32.344V12.335L19.249,2.317l13.249,7.7,2-1.158Z" transform="translate(0 0)" fill="#fff"/>
      <g id="Raggruppa_205" data-name="Raggruppa 205">
        <g id="Raggruppa_204" data-name="Raggruppa 204" clip-path="url(#clip-path)">
          <path id="Tracciato_2144" data-name="Tracciato 2144" d="M168.281,202.5H165.4v-9.726h9.614a3.426,3.426,0,0,0,2.421-1.033,3.507,3.507,0,0,0,1-2.442,3.293,3.293,0,0,0-.258-1.319,3.364,3.364,0,0,0-.753-1.109,3.408,3.408,0,0,0-1.1-.753,3.236,3.236,0,0,0-1.312-.258H165.4V182.9h9.621a6.38,6.38,0,0,1,4.486,1.884,6.469,6.469,0,0,1,1.877,4.514,6.441,6.441,0,0,1-3.893,5.9,11.093,11.093,0,0,1-3.44.523h-5.77Z" transform="translate(-153.861 -170.14)" fill="#fff"/>
          <path id="Tracciato_2145" data-name="Tracciato 2145" d="M314.058,391.37H310.7l-2.6-4.549a10.836,10.836,0,0,0,3.007-.621Z" transform="translate(-286.605 -359.256)" fill="#fff"/>
          <path id="Tracciato_2146" data-name="Tracciato 2146" d="M494.1,147.109l1.988,1.109,1.988-1.109v-2.351l-1.988-1.158-1.988,1.158Z" transform="translate(-459.628 -133.581)" fill="#fff"/>
        </g>
      </g>
    </g>
  </g>
</svg>
